<svg width="128" height="93" viewBox="0 0 128 93" fill="none" xmlns="http://www.w3.org/2000/svg">
<g clip-path="url(#clip0_201_2793)">
<path d="M116.861 35.1378C115.352 34.703 113.794 34.4953 112.221 34.4518C114.84 28.3331 115.086 21.6904 109.076 16.8713C104.975 13.5812 99.4436 12.9314 94.4484 14.2093C92.8253 14.6247 91.306 15.277 89.8639 16.0862C89.591 13.5571 88.9485 11.0787 87.7384 8.7283C84.707 2.84152 78.2795 -0.315635 71.7771 0.024964C62.1154 0.532236 55.9053 6.65573 52.1735 14.4339C51.3546 13.3324 50.4392 12.301 49.3885 11.3734C44.4416 6.9915 37.3475 5.08804 31.2364 8.16067C26.2365 10.6753 23.1906 16.0693 22.309 21.4657C21.7558 24.8402 21.9974 28.1616 22.3935 31.4806C20.2655 30.6376 17.9902 30.2124 15.5409 30.4564C9.63035 31.0458 4.0676 34.7924 1.5169 40.2033C-2.69321 49.1385 2.39371 58.0351 10.2222 61.5305C8.91299 64.4654 9.12311 67.9704 10.9975 70.7194C14.2438 75.4781 19.1544 76.4105 23.8162 75.1641C32.8983 85.4496 45.659 91.962 59.9318 92.7447C72.1129 93.4114 86.9775 89.1455 96.0885 80.1402C97.3711 80.5073 98.7044 80.7392 100.074 80.8093C105.093 81.0677 110.291 78.7367 112.081 73.7727C112.951 71.3619 112.825 69.0454 112.129 66.8569C114.738 66.1829 117.231 65.149 119.468 63.5837C124.383 60.1464 127.634 54.3272 127.465 48.2641C127.286 41.9401 122.818 36.8456 116.866 35.1306L116.861 35.1378ZM93.3832 65.4896C93.4219 65.4075 93.4581 65.323 93.4968 65.2408C93.4702 65.3375 93.4388 65.4341 93.4098 65.5307C93.4026 65.5162 93.3929 65.5041 93.3857 65.4896H93.3832Z" fill="#719CBC"/>
<path d="M93.4681 65.3689C93.4293 65.451 93.393 65.5355 93.3542 65.6176C93.3615 65.6321 93.3712 65.6466 93.3785 65.6587C93.4075 65.5621 93.439 65.4655 93.4681 65.3689Z" fill="#7A94A1"/>
<path d="M10.2004 61.412C8.88157 64.3446 9.07966 67.8471 10.9492 70.6033C14.1811 75.3717 19.0892 76.321 23.7558 75.0867C32.8065 85.3988 45.5479 91.9498 59.8183 92.776C71.997 93.4789 86.8737 89.2589 96.0137 80.2802C97.2963 80.6497 98.6272 80.8865 99.9967 80.9614C105.016 81.2343 110.219 78.9202 112.026 73.961C112.902 71.5527 112.784 69.2361 112.093 67.0452C114.704 66.3809 117.199 65.3518 119.441 63.7938C124.366 60.3709 127.637 54.5614 127.484 48.4983C127.436 46.5658 126.982 44.7493 126.212 43.1067C117.388 53.7812 98.2818 70.0695 73.5743 72.8933C16.4226 79.425 1.63528 40.1646 1.63528 40.1646L1.50726 40.1815C-2.62313 49.0611 2.42272 57.907 10.2028 61.412H10.2004ZM93.4678 65.3688C93.4388 65.4654 93.4098 65.562 93.3784 65.6586C93.3712 65.6441 93.3615 65.6296 93.3543 65.6176C93.3953 65.5354 93.4292 65.4509 93.4678 65.3688Z" fill="#6093B1"/>
<path d="M42.6591 42.9595C42.5456 39.7298 45.0697 37.0196 48.2991 36.906C51.5286 36.7925 54.2387 39.3168 54.3522 42.5464C54.4657 45.7761 51.9416 48.4863 48.7122 48.5999C45.4827 48.7134 42.7726 46.1891 42.6591 42.9595Z" fill="white"/>
<path d="M44.9972 42.8774C44.9272 40.9401 46.4441 39.3144 48.3812 39.2444C50.3184 39.1767 51.944 40.6913 52.0141 42.6286C52.0817 44.5659 50.5672 46.1916 48.63 46.2616C46.6928 46.3293 45.0673 44.8147 44.9972 42.8774Z" fill="#14242B"/>
<path d="M49.1735 45.0708C49.1396 44.1021 49.8957 43.2881 50.8643 43.2543C51.8329 43.2204 52.6469 43.9765 52.6807 44.9452C52.7145 45.9138 51.9585 46.7279 50.9899 46.7617C50.0213 46.7955 49.2073 46.0394 49.1735 45.0708Z" fill="white"/>
<path d="M72.4776 41.9063C72.364 38.6766 74.8882 35.9663 78.1176 35.8528C81.347 35.7393 84.0572 38.2636 84.1707 41.4932C84.2842 44.7228 81.7601 47.4331 78.5306 47.5466C75.3012 47.6602 72.5911 45.1359 72.4776 41.9063Z" fill="white"/>
<path d="M74.8158 41.8217C74.7481 39.8844 76.2626 38.2588 78.1998 38.1887C80.137 38.1211 81.7626 39.6356 81.8326 41.5729C81.9027 43.5102 80.3858 45.1359 78.4486 45.206C76.5114 45.2736 74.8858 43.759 74.8158 41.8217Z" fill="#14242B"/>
<path d="M78.9921 44.0176C78.9582 43.0489 79.7143 42.2349 80.6829 42.201C81.6515 42.1672 82.4655 42.9233 82.4993 43.892C82.5331 44.8606 81.7771 45.6747 80.8085 45.7085C79.8399 45.7423 79.0259 44.9862 78.9921 44.0176Z" fill="white"/>
<path d="M68.6153 56.9047C68.7361 59.3396 67.0888 61.6755 64.4729 61.7141C61.8714 61.7504 60.055 59.7261 60.0019 57.2091C59.985 56.3612 58.6686 56.4071 58.6855 57.255C58.7531 60.4653 61.2072 63.1466 64.5187 63.0282C67.8303 62.9123 70.0887 60.0643 69.9293 56.8564C69.8883 56.0109 68.5718 56.0544 68.6129 56.9023L68.6153 56.9047Z" fill="#14242B"/>
<path d="M33.4152 54.7041C33.3355 52.4431 35.1036 50.5469 37.362 50.4672C39.6229 50.3875 41.519 52.1557 41.5987 54.4143C41.6784 56.6752 39.9103 58.5715 37.6519 58.6512C35.391 58.7309 33.4949 56.9627 33.4152 54.7017V54.7041Z" fill="#F8C1C1"/>
<path d="M86.9219 53.1026C86.8422 50.8416 88.6103 48.9453 90.8711 48.8656C93.132 48.7859 95.0281 50.5541 95.1078 52.8127C95.1875 55.0737 93.4194 56.9699 91.1586 57.0496C88.8977 57.1293 87.0016 55.3611 86.9219 53.1026Z" fill="#F8C1C1"/>
<path opacity="0.57" d="M43.8595 10.7187C40.2025 8.17266 28.0118 9.52297 25.5215 21.9053C23.0336 34.2874 53.4608 17.405 43.8595 10.7187Z" fill="white"/>
<path opacity="0.57" d="M75.2047 3.17007C66.9584 1.70622 58.9174 6.08809 59.1034 11.3492C59.2894 16.6104 83.3447 18.1032 84.3278 12.7986C85.3109 7.49396 80.5162 4.11215 75.2071 3.16765L75.2047 3.17007Z" fill="white"/>
<path opacity="0.57" d="M94.5354 20.0501C95.5596 15.9171 103.139 15.0619 108.023 20.7434C112.907 26.4248 111.482 31.1593 107.226 31.3091C103.134 31.454 93.1272 25.7291 94.5354 20.0501Z" fill="white"/>
<path opacity="0.57" d="M19.5047 33.8262C15.9129 31.6112 5.51445 35.493 7.45404 40.6913C9.39364 45.8921 25.3114 37.4061 19.5047 33.8262Z" fill="white"/>
<mask id="mask0_201_2793" style="mask-type:alpha" maskUnits="userSpaceOnUse" x="0" y="0" width="128" height="93">
<path d="M116.861 35.1378C115.352 34.703 113.794 34.4953 112.221 34.4518C114.84 28.3331 115.086 21.6904 109.076 16.8713C104.975 13.5812 99.4436 12.9314 94.4484 14.2093C92.8253 14.6247 91.306 15.277 89.8639 16.0862C89.591 13.5571 88.9485 11.0787 87.7384 8.7283C84.707 2.84152 78.2795 -0.315635 71.7771 0.024964C62.1154 0.532236 55.9053 6.65573 52.1735 14.4339C51.3546 13.3324 50.4392 12.301 49.3885 11.3734C44.4416 6.9915 37.3475 5.08804 31.2364 8.16067C26.2365 10.6753 23.1906 16.0693 22.309 21.4657C21.7558 24.8402 21.9974 28.1616 22.3935 31.4806C20.2655 30.6376 17.9902 30.2124 15.5409 30.4564C9.63035 31.0458 4.0676 34.7924 1.5169 40.2033C-2.69321 49.1385 2.39371 58.0351 10.2222 61.5305C8.91299 64.4654 9.12311 67.9704 10.9975 70.7194C14.2438 75.4781 19.1544 76.4105 23.8162 75.1641C32.8983 85.4496 45.659 91.962 59.9318 92.7447C72.1129 93.4114 86.9775 89.1455 96.0885 80.1402C97.3711 80.5073 98.7044 80.7392 100.074 80.8093C105.093 81.0677 110.291 78.7367 112.081 73.7727C112.951 71.3619 112.825 69.0454 112.129 66.8569C114.738 66.1829 117.231 65.149 119.468 63.5837C124.383 60.1464 127.634 54.3272 127.465 48.2641C127.286 41.9401 122.818 36.8456 116.866 35.1306L116.861 35.1378ZM93.3832 65.4896C93.4219 65.4075 93.4581 65.323 93.4968 65.2408C93.4702 65.3375 93.4388 65.4341 93.4098 65.5307C93.4026 65.5162 93.3929 65.5041 93.3857 65.4896H93.3832Z" fill="#719CBC"/>
<path d="M93.4681 65.3689C93.4293 65.451 93.393 65.5355 93.3542 65.6176C93.3615 65.6321 93.3712 65.6466 93.3785 65.6587C93.4075 65.5621 93.439 65.4655 93.4681 65.3689Z" fill="#7A94A1"/>
<path d="M10.2004 61.412C8.88157 64.3446 9.07966 67.8471 10.9492 70.6033C14.1811 75.3717 19.0892 76.321 23.7558 75.0867C32.8065 85.3988 45.5479 91.9498 59.8183 92.776C71.997 93.4789 86.8737 89.2589 96.0137 80.2802C97.2963 80.6497 98.6272 80.8865 99.9967 80.9614C105.016 81.2343 110.219 78.9202 112.026 73.961C112.902 71.5527 112.784 69.2361 112.093 67.0452C114.704 66.3809 117.199 65.3518 119.441 63.7938C124.366 60.3709 127.637 54.5614 127.484 48.4983C127.436 46.5658 126.982 44.7493 126.212 43.1067C117.388 53.7812 98.2818 70.0695 73.5743 72.8933C16.4226 79.425 1.63528 40.1646 1.63528 40.1646L1.50726 40.1815C-2.62313 49.0611 2.42272 57.907 10.2028 61.412H10.2004ZM93.4678 65.3688C93.4388 65.4654 93.4098 65.562 93.3784 65.6586C93.3712 65.6441 93.3615 65.6296 93.3543 65.6176C93.3953 65.5354 93.4292 65.4509 93.4678 65.3688Z" fill="#6093B1"/>
<path d="M42.6591 42.9595C42.5456 39.7298 45.0697 37.0196 48.2991 36.906C51.5286 36.7925 54.2387 39.3168 54.3522 42.5464C54.4657 45.7761 51.9416 48.4863 48.7122 48.5999C45.4827 48.7134 42.7726 46.1891 42.6591 42.9595Z" fill="white"/>
<path d="M44.9972 42.8774C44.9272 40.9401 46.4441 39.3144 48.3812 39.2444C50.3184 39.1767 51.944 40.6913 52.0141 42.6286C52.0817 44.5659 50.5672 46.1916 48.63 46.2616C46.6928 46.3293 45.0673 44.8147 44.9972 42.8774Z" fill="#14242B"/>
<path d="M49.1735 45.0708C49.1396 44.1021 49.8957 43.2881 50.8643 43.2543C51.8329 43.2204 52.6469 43.9765 52.6807 44.9452C52.7145 45.9138 51.9585 46.7279 50.9899 46.7617C50.0213 46.7955 49.2073 46.0394 49.1735 45.0708Z" fill="white"/>
<path d="M72.4776 41.9063C72.364 38.6766 74.8882 35.9663 78.1176 35.8528C81.347 35.7393 84.0572 38.2636 84.1707 41.4932C84.2842 44.7228 81.7601 47.4331 78.5306 47.5466C75.3012 47.6602 72.5911 45.1359 72.4776 41.9063Z" fill="white"/>
<path d="M74.8158 41.8217C74.7481 39.8844 76.2626 38.2588 78.1998 38.1887C80.137 38.1211 81.7626 39.6356 81.8326 41.5729C81.9027 43.5102 80.3858 45.1359 78.4486 45.206C76.5114 45.2736 74.8858 43.759 74.8158 41.8217Z" fill="#14242B"/>
<path d="M78.9921 44.0176C78.9582 43.0489 79.7143 42.2349 80.6829 42.201C81.6515 42.1672 82.4655 42.9233 82.4993 43.892C82.5331 44.8606 81.7771 45.6747 80.8085 45.7085C79.8399 45.7423 79.0259 44.9862 78.9921 44.0176Z" fill="white"/>
<path d="M68.6153 56.9047C68.7361 59.3396 67.0888 61.6755 64.4729 61.7141C61.8714 61.7504 60.055 59.7261 60.0019 57.2091C59.985 56.3612 58.6686 56.4071 58.6855 57.255C58.7531 60.4653 61.2072 63.1466 64.5187 63.0282C67.8303 62.9123 70.0887 60.0643 69.9293 56.8564C69.8883 56.0109 68.5718 56.0544 68.6129 56.9023L68.6153 56.9047Z" fill="#14242B"/>
<path d="M33.4152 54.7041C33.3355 52.4431 35.1036 50.5469 37.362 50.4672C39.6229 50.3875 41.519 52.1557 41.5987 54.4143C41.6784 56.6752 39.9103 58.5715 37.6519 58.6512C35.391 58.7309 33.4949 56.9627 33.4152 54.7017V54.7041Z" fill="#F4A7B7"/>
<path d="M86.9219 53.1026C86.8422 50.8416 88.6103 48.9453 90.8711 48.8656C93.132 48.7859 95.0281 50.5541 95.1078 52.8127C95.1875 55.0737 93.4194 56.9699 91.1586 57.0496C88.8977 57.1293 87.0016 55.3611 86.9219 53.1026Z" fill="#F4A7B7"/>
<path opacity="0.57" d="M43.8595 10.7187C40.2025 8.17266 28.0118 9.52297 25.5215 21.9053C23.0336 34.2874 53.4608 17.405 43.8595 10.7187Z" fill="white"/>
<path opacity="0.57" d="M75.2047 3.17007C66.9584 1.70622 58.9174 6.08809 59.1034 11.3492C59.2894 16.6104 83.3447 18.1032 84.3278 12.7986C85.3109 7.49396 80.5162 4.11215 75.2071 3.16765L75.2047 3.17007Z" fill="white"/>
<path opacity="0.57" d="M94.5354 20.0501C95.5596 15.9171 103.139 15.0619 108.023 20.7434C112.907 26.4248 111.482 31.1593 107.226 31.3091C103.134 31.454 93.1272 25.7291 94.5354 20.0501Z" fill="white"/>
<path opacity="0.57" d="M19.5047 33.8262C15.9129 31.6112 5.51445 35.493 7.45404 40.6913C9.39364 45.8921 25.3114 37.4061 19.5047 33.8262Z" fill="white"/>
</mask>
<g mask="url(#mask0_201_2793)">
<path style="mix-blend-mode:screen" opacity="0.3" d="M136.229 88.5299C136.229 88.5299 126.075 71.8013 104.255 68.4518C82.4353 65.106 89.6703 76.1464 87.8176 76.7844C85.965 77.4221 74.0711 62.6704 57.0706 63.5917C40.0697 64.513 40.0726 75.3186 37.241 74.457C34.4082 73.5953 12.8976 59.4291 16.2385 48.9665C19.5793 38.5041 46.5231 47.6051 50.0015 53.4762C53.48 59.3506 40.169 68.4255 35.5075 67.9781C30.8445 67.5305 27.464 60.8724 27.464 60.8724C27.464 60.8724 26.2015 52.4541 32.1326 52.0215C32.1326 52.0215 29.7848 60.891 34.9811 63.8192C40.1777 66.7471 49.6767 59.9214 49.9986 55.0799C50.3209 50.2386 24.7445 40.5818 21.9101 46.7623C19.0757 52.9428 30.192 72.1742 38.1888 69.6043C46.1854 67.0344 54.5723 49.6342 70.6453 56.6242C86.7181 63.6139 83.8611 68.0078 93.448 65.1021C103.037 62.1928 108.989 34.9421 136.231 51.5104V88.5299H136.229Z" fill="url(#paint0_linear_201_2793)"/>
<path style="mix-blend-mode:screen" opacity="0.3" d="M-8.18595 77.4931C-8.18595 77.4931 1.9685 60.7642 23.7882 57.4147C45.608 54.0691 38.3731 65.1096 40.2257 65.7475C42.0784 66.3852 53.9722 51.6335 70.9728 52.5548C87.9736 53.4722 87.9707 64.2815 90.8023 63.4199C93.6352 62.5585 115.146 48.392 111.805 37.9297C108.464 27.4673 81.5203 36.5682 78.0418 42.4391C74.5633 48.3138 87.8743 57.3886 92.5359 56.941C97.1989 56.4934 100.579 49.8356 100.579 49.8356C100.579 49.8356 101.842 41.417 95.9107 40.9844C95.9107 40.9844 98.2585 49.8542 93.0622 52.7821C87.8656 55.7103 78.3667 48.8843 78.0447 44.043C77.7227 39.2015 103.299 29.5449 106.133 35.7252C108.968 41.9057 97.8513 61.1371 89.8548 58.5674C81.858 55.9975 73.4711 38.5973 57.398 45.5873C41.3252 52.5809 44.1822 56.971 34.5953 54.0653C25.0068 51.1559 19.0543 23.9052 -8.18738 40.4735V77.4931H-8.18595Z" fill="url(#paint1_linear_201_2793)"/>
<path style="mix-blend-mode:screen" fill-rule="evenodd" clip-rule="evenodd" d="M-8.4541 71.3982C-8.4541 71.3982 5.56324 72.7447 12.2648 67.4818C17.9378 63.0246 4.03965 55.6841 4.67803 51.4952C5.31641 47.3066 18.8344 24.9569 26.1289 25.8036C33.4235 26.6502 38.0752 37.4559 40.7604 38.3661C43.4445 39.276 51.7719 18.4706 65.6955 18.4706C79.6193 18.4706 84.7349 29.5745 85.6697 31.156C86.6045 32.7375 81.5118 37.6834 80.8507 41.0329C80.1896 44.3823 93.5841 34.5987 96.0554 26.6427C98.5266 18.6869 90.7624 12.6631 89.595 3.16297C88.4274 -6.33341 101.68 -12.7675 104.916 -5.6956C108.152 1.37634 108.028 6.90037 107.79 9.72017C107.55 12.5363 103.441 14.8302 102.79 13.2039C102.138 11.5777 100.63 11.7977 100.528 12.6519C100.426 13.506 101.483 24.2371 110.786 29.3509C120.09 34.4644 130.376 52.2861 130.871 57.8287C131.366 63.3715 128.661 70.8834 129.833 76.1613C131.004 81.4391 135.876 85.3444 135.876 85.3444V92.7595H-8.4541V71.4057V71.3982Z" fill="url(#paint2_linear_201_2793)"/>
<path style="mix-blend-mode:screen" opacity="0.3" d="M135.746 62.2C135.746 62.2 125.592 45.4714 103.772 42.1219C81.9521 38.7761 89.1871 49.8165 87.3345 50.4545C85.4818 51.0922 73.588 36.3405 56.5874 37.2618C39.5866 38.1831 39.5895 48.9887 36.7579 48.1271C33.925 47.2654 12.4145 33.0992 15.7553 22.6367C19.0962 12.1743 46.0399 21.2753 49.5184 27.1463C52.9968 33.0207 39.6859 42.0956 35.0243 41.6482C30.3613 41.2006 26.9809 34.5425 26.9809 34.5425C26.9809 34.5425 25.7183 26.1242 31.6495 25.6916C31.6495 25.6916 29.3016 34.5611 34.498 37.4893C39.6945 40.4172 49.1935 33.5915 49.5155 28.75C49.8377 23.9086 24.2614 14.2518 21.427 20.4323C18.5925 26.6129 29.7089 45.8443 37.7057 43.2744C45.7022 40.7045 54.0891 23.3043 70.1622 30.2942C86.235 37.284 83.378 41.6779 92.9649 38.7722C102.553 35.8629 108.506 8.61218 135.748 25.1805V62.2H135.746Z" fill="url(#paint3_linear_201_2793)"/>
<path style="mix-blend-mode:screen" opacity="0.3" d="M-8.66898 51.1632C-8.66898 51.1632 1.48547 34.4343 23.3052 31.0849C45.125 27.7393 37.89 38.7797 39.7427 39.4177C41.5953 40.0554 53.4892 25.3037 70.4898 26.225C87.4906 27.1424 87.4877 37.9517 90.3193 37.09C93.1521 36.2286 114.663 22.0623 111.322 11.5998C107.981 1.1374 81.0373 10.2384 77.5588 16.1093C74.0803 21.9839 87.3913 31.0588 92.0529 30.6112C96.7159 30.1636 100.096 23.5058 100.096 23.5058C100.096 23.5058 101.359 15.0873 95.4277 14.6546C95.4277 14.6546 97.7755 23.5244 92.5792 26.4523C87.3826 29.3805 77.8837 22.5546 77.5617 17.7132C77.2397 12.8717 102.816 3.21496 105.65 9.39545C108.485 15.5759 97.3683 34.8073 89.3717 32.2376C81.3749 29.6677 72.9881 12.2675 56.915 19.2574C40.8422 26.2511 43.6992 30.6411 34.1123 27.7354C24.5237 24.8261 18.5713 -2.42468 -8.67041 14.1436V51.1632H-8.66898Z" fill="url(#paint4_linear_201_2793)"/>
<path style="mix-blend-mode:screen" fill-rule="evenodd" clip-rule="evenodd" d="M-8.93713 66.9978C-8.93713 66.9978 5.0912 68.7129 11.798 62.0092C17.4755 56.3316 3.5664 46.9811 4.20529 41.6456C4.84417 36.31 18.3728 7.84121 25.673 8.91974C32.9734 9.99825 37.6286 23.7623 40.3161 24.9215C43.0023 26.081 51.336 -0.421043 65.2707 -0.421043C79.2053 -0.421043 84.3248 13.7232 85.2603 15.7376C86.1961 17.7521 81.0993 24.0521 80.4377 28.3188C79.7761 32.5852 93.181 20.123 95.6542 9.98874C98.1274 -0.145477 90.3572 -7.8186 89.1888 -19.9198C88.0205 -32.0162 101.283 -40.2121 104.522 -31.2039C107.76 -22.1956 107.637 -15.1591 107.398 -11.5672C107.158 -7.98012 103.045 -5.05816 102.394 -7.12967C101.742 -9.20118 100.233 -8.92087 100.131 -7.83285C100.028 -6.74484 101.086 6.92425 110.397 13.4381C119.707 19.9519 130.002 42.6529 130.497 49.7131C130.993 56.7734 128.285 66.3423 129.458 73.0651C130.631 79.7879 135.506 84.7623 135.506 84.7623V94.2077H-8.93713V67.0073V66.9978Z" fill="url(#paint5_linear_201_2793)"/>
</g>
</g>
<defs>
<linearGradient id="paint0_linear_201_2793" x1="136.231" y1="66.3556" x2="15.8881" y2="66.3556" gradientUnits="userSpaceOnUse">
<stop stop-color="#858DBC"/>
<stop offset="0.23" stop-color="#838AB9"/>
<stop offset="0.38" stop-color="#7C84B0"/>
<stop offset="0.5" stop-color="#7279A1"/>
<stop offset="0.62" stop-color="#63698C"/>
<stop offset="0.73" stop-color="#4F5470"/>
<stop offset="0.83" stop-color="#373B4F"/>
<stop offset="0.92" stop-color="#1C1D27"/>
<stop offset="1"/>
</linearGradient>
<linearGradient id="paint1_linear_201_2793" x1="112.157" y1="55.3185" x2="-8.18596" y2="55.3185" gradientUnits="userSpaceOnUse">
<stop stop-color="#1A1A24"/>
<stop offset="0.02" stop-color="#21222F"/>
<stop offset="0.12" stop-color="#3C3E54"/>
<stop offset="0.21" stop-color="#525674"/>
<stop offset="0.32" stop-color="#656A8E"/>
<stop offset="0.44" stop-color="#737AA2"/>
<stop offset="0.57" stop-color="#7D84B1"/>
<stop offset="0.73" stop-color="#838BB9"/>
<stop offset="1" stop-color="#858DBC"/>
</linearGradient>
<linearGradient id="paint2_linear_201_2793" x1="63.711" y1="92.752" x2="63.711" y2="-8.70192" gradientUnits="userSpaceOnUse">
<stop stop-color="#8196B3"/>
<stop offset="0.4" stop-color="#4F5C6E"/>
<stop offset="1"/>
</linearGradient>
<linearGradient id="paint3_linear_201_2793" x1="135.748" y1="40.0257" x2="15.4049" y2="40.0257" gradientUnits="userSpaceOnUse">
<stop stop-color="#858DBC"/>
<stop offset="0.23" stop-color="#838AB9"/>
<stop offset="0.38" stop-color="#7C84B0"/>
<stop offset="0.5" stop-color="#7279A1"/>
<stop offset="0.62" stop-color="#63698C"/>
<stop offset="0.73" stop-color="#4F5470"/>
<stop offset="0.83" stop-color="#373B4F"/>
<stop offset="0.92" stop-color="#1C1D27"/>
<stop offset="1"/>
</linearGradient>
<linearGradient id="paint4_linear_201_2793" x1="111.674" y1="28.9886" x2="-8.66899" y2="28.9886" gradientUnits="userSpaceOnUse">
<stop stop-color="#1A1A24"/>
<stop offset="0.02" stop-color="#21222F"/>
<stop offset="0.12" stop-color="#3C3E54"/>
<stop offset="0.21" stop-color="#525674"/>
<stop offset="0.32" stop-color="#656A8E"/>
<stop offset="0.44" stop-color="#737AA2"/>
<stop offset="0.57" stop-color="#7D84B1"/>
<stop offset="0.73" stop-color="#838BB9"/>
<stop offset="1" stop-color="#858DBC"/>
</linearGradient>
<linearGradient id="paint5_linear_201_2793" x1="63.2845" y1="94.1983" x2="63.2845" y2="-35.0333" gradientUnits="userSpaceOnUse">
<stop stop-color="#8196B3"/>
<stop offset="0.4" stop-color="#4F5C6E"/>
<stop offset="1"/>
</linearGradient>
<clipPath id="clip0_201_2793">
<rect width="127.535" height="93" fill="white"/>
</clipPath>
</defs>
</svg>
