<svg width="225" height="129" viewBox="0 0 225 129" fill="none" xmlns="http://www.w3.org/2000/svg">
<path d="M224.984 117.757C181.572 128.423 141.62 121.664 97.8949 123.856C65.2577 125.489 32.6371 127.285 0 129C15.5525 124.384 31.1049 119.768 46.6574 115.152C34.8118 111.624 29.1279 95.2041 36.2616 85.0983C43.3953 74.9925 60.7601 74.8771 68.042 84.8675C65.0106 66.0077 62.0781 46.1753 68.6022 28.2223C75.1428 10.2693 94.6657 -4.46906 112.887 1.25152C125.062 5.07622 133.349 16.9295 136.463 29.3104C139.577 41.6912 138.407 54.6985 137.237 67.409C136.199 53.5445 147.65 39.9437 161.472 38.6083C175.295 37.273 189.134 48.4504 190.765 62.249C192.396 76.0476 181.522 90.1265 167.766 92.0388C174.405 88.8076 181.951 86.6974 189.167 88.2471C196.383 89.7968 202.989 95.7811 203.385 103.15C203.78 110.519 196.053 117.707 189.068 115.317C201.045 116.125 213.023 116.932 225 117.757H224.984Z" fill="#A3B7CA"/>
</svg>
