<svg width="288" height="165" viewBox="0 0 288 165" fill="none" xmlns="http://www.w3.org/2000/svg">
<path d="M287.467 150.278C231.999 163.89 180.951 155.264 125.083 158.062C83.3814 160.145 41.7012 162.438 0 164.626C19.8717 158.735 39.7435 152.844 59.6153 146.953C44.4799 142.451 37.2175 121.497 46.3324 108.6C55.4473 95.7032 77.6346 95.556 86.9389 108.305C83.0656 84.2371 79.3186 58.9276 87.6546 36.0165C96.0117 13.1053 120.957 -5.70328 144.239 1.59715C159.795 6.47813 170.383 21.6049 174.362 37.405C178.341 53.2051 176.846 69.8046 175.351 86.0254C174.025 68.3319 188.655 50.975 206.317 49.2708C223.978 47.5667 241.661 61.8309 243.745 79.4403C245.829 97.0497 231.935 115.017 214.358 117.457C222.841 113.334 232.483 110.641 241.703 112.618C250.923 114.596 259.364 122.233 259.869 131.637C260.375 141.042 250.502 150.214 241.576 147.164C256.88 148.195 272.184 149.226 287.488 150.278H287.467Z" fill="#A3B7CA"/>
</svg>
