<svg width="107" height="47" viewBox="0 0 107 47" fill="none" xmlns="http://www.w3.org/2000/svg">
<path d="M94.1842 46.9077C62.7859 45.5025 31.4303 44.3315 0 43.6715C6.47157 42.756 12.9538 41.8404 19.4254 40.9249C4.16867 44.2357 16.3015 24.105 20.2783 29.6726C15.5126 23.0085 16.2909 13.1294 21.6537 6.94439C27.0164 0.748687 36.2919 -1.50816 44.0855 1.01483C51.8791 3.53782 57.9456 10.4574 59.9606 18.399C58.9478 13.1827 60.5043 6.96568 65.2061 4.46398C69.9078 1.97292 77.1577 5.98628 76.0276 11.1813C76.9018 4.11267 85.719 -0.209412 92.3611 2.37745C99.0139 4.95367 102.692 12.7569 101.807 19.8255C100.922 26.8941 96.2206 33.0579 90.3993 37.1777C93.4166 35.6341 96.6044 34.0586 99.9948 34.1757C103.385 34.2928 106.946 36.7625 106.999 40.1478C107.042 42.8731 104.803 45.2151 102.255 46.1838C99.7069 47.1526 96.8922 47.0461 94.1628 46.9184L94.1842 46.9077Z" fill="#A3B7CA"/>
</svg>
