<svg width="212" height="93" viewBox="0 0 212 93" fill="none" xmlns="http://www.w3.org/2000/svg">
<path d="M185.961 92.7034C123.967 89.9263 62.0571 87.6121 0 86.3077C12.7777 84.4983 25.5765 82.689 38.3542 80.8797C8.23078 87.4227 32.1863 47.6385 40.0382 58.6418C30.6286 45.4716 32.1654 25.9476 42.7538 13.7241C53.3422 1.47963 71.6562 -2.98058 87.0442 2.00559C102.432 6.99177 114.41 20.6669 118.389 36.3618C116.389 26.0528 119.462 13.7662 128.745 8.82213C138.029 3.89907 152.343 11.8307 150.112 22.0975C151.838 8.12785 169.247 -0.413859 182.361 4.69854C195.497 9.78991 202.759 25.2113 201.012 39.181C199.265 53.1507 189.982 65.3321 178.488 73.474C184.445 70.4234 190.739 67.3097 197.433 67.5411C204.128 67.7726 211.158 72.6535 211.264 79.3438C211.348 84.7298 206.927 89.3583 201.896 91.2728C196.865 93.1873 191.308 92.9769 185.919 92.7245L185.961 92.7034Z" fill="#A3B7CA"/>
</svg>
