<svg width="400" height="605" viewBox="0 0 400 605" fill="none" xmlns="http://www.w3.org/2000/svg">
<mask id="mask0_224_94" style="mask-type:luminance" maskUnits="userSpaceOnUse" x="0" y="0" width="400" height="605">
<path d="M400 0H0V605H400V0Z" fill="white"/>
</mask>
<g mask="url(#mask0_224_94)">
<g filter="url(#filter0_d_224_94)">
<mask id="mask1_224_94" style="mask-type:luminance" maskUnits="userSpaceOnUse" x="-361" y="-7" width="962" height="614">
<path d="M601 -6.5H-361V606.5H601V-6.5Z" fill="white"/>
</mask>
<g mask="url(#mask1_224_94)">
<path d="M601 -6.5H-361V606.5H601V-6.5Z" fill="#D3D3D3"/>
<path d="M70.2354 574.59C52.4845 575.018 35.7283 573.74 18.2124 575.674C9.6892 576.613 -36.9464 581.51 -37.1467 571.364C-45.7804 568.056 -55.3948 569.748 -64.6294 570.238C-73.864 570.729 -84.3211 569.375 -89.9985 562.075C-94.2256 556.64 -94.7091 549.077 -93.2655 542.35C-91.4421 533.869 -86.2619 525.575 -78.1532 522.488C-70.0444 519.4 -59.2213 523.468 -57.1354 531.894C-55.8783 526.176 -52.8531 521.645 -48.1011 518.295C-42.3269 514.221 -33.5413 513.62 -28.6443 518.71C-29.2314 508.523 -21.0052 498.598 -10.8865 497.279C-0.767893 495.96 9.72371 503.453 11.7613 513.454C15.2355 497.3 14.4343 483.411 31.08 474.799C41.9515 469.177 58.0722 472.195 62.2993 483.68C69.0266 467.153 86.0177 455.343 103.844 454.798C121.678 454.252 139.36 464.998 147.082 481.077C149.389 470.924 160.91 463.893 170.994 466.49C181.078 469.08 187.778 480.8 184.897 490.801C187.695 485.241 196.618 485.683 200.707 490.38C204.796 495.076 205.093 501.962 204.257 508.129C210.266 497.01 221.11 488.625 233.384 485.614C245.658 482.603 259.154 485.006 269.625 492.079C264.161 481.933 267.442 468.362 276 460.64C284.557 452.919 297.315 450.813 308.448 453.803C319.582 456.794 329.1 464.377 336.028 473.59C337.527 464.66 349.565 456.276 358.151 461.179C365.341 465.282 370.521 479.467 371.529 486.968C377.518 475.924 392.63 470.524 403.757 477.437C414.587 484.157 417.329 500.933 409.207 510.754C412.874 506.306 420.299 506.347 424.754 509.994C429.209 513.647 430.874 519.925 430.169 525.644C429.465 531.362 426.709 536.625 423.608 541.473C432.566 537.06 443.721 537.44 452.361 542.461C458.502 546.031 463.62 553.09 461.63 559.906C459.317 567.828 449.564 570.377 441.386 571.495C420.589 574.341 399.696 576.413 378.782 578.181C359.449 579.811 340.593 582.587 321.544 584.79C306.383 586.545 291.064 584.701 275.889 583.078C207.614 575.771 138.863 572.932 70.2215 574.596L70.2354 574.59Z" fill="#FAF3E0"/>
<path d="M437.208 521.541C441.221 521.818 445.061 523.965 447.395 527.232C448.97 529.442 449.854 532.06 450.711 534.636C453.902 544.215 457.1 553.794 460.291 563.374C437.684 563.063 414.774 561.612 392.188 562.427C376.53 562.994 359.664 564.458 347.376 551.785C345.332 549.678 335.482 530.699 335.883 530.637C339.868 529.96 344.164 531.777 346.457 535.099C344.586 531.673 342.894 527.985 342.824 524.083C342.748 520.112 345.642 513.343 350.678 513.951C354.428 514.4 359.159 521.783 360.713 524.849C359.76 521.382 358.8 517.915 357.847 514.448C357.274 512.376 356.714 510.139 357.46 508.129C358.558 505.194 362.323 503.861 365.313 504.814C368.304 505.767 370.459 508.488 371.53 511.437C372.6 514.386 372.752 517.57 372.89 520.706C371.108 517.183 373.084 512.294 376.82 511.009C380.557 509.718 385.129 512.349 385.896 516.223C384.998 511.7 379.611 501.278 384.577 497.638C386.345 496.347 388.977 496.706 390.655 498.108C392.333 499.51 393.162 501.734 393.335 503.916C393.507 506.099 393.093 508.281 392.686 510.436C392.554 505.774 396.705 501.423 401.368 501.326C406.03 501.23 410.353 505.408 410.423 510.07C410.423 505.097 409.601 499.952 414.905 497.521C418.676 495.794 423.767 497.32 425.839 500.939C428.291 505.215 426.26 511.327 421.854 513.523C430.902 509.006 447.112 512.059 440.841 525.706C439.211 529.263 436.227 532.011 433.153 534.436C436.496 533.669 438.776 538.573 437.104 541.563C435.267 544.85 432.062 546.087 428.512 546.757C424.078 547.592 419.098 547.551 415.582 549.519C405.836 554.982 398.667 562.358 386.911 563.664C386.055 563.76 385.171 563.829 384.259 563.871" fill="#A7BED3"/>
<path d="M-71.6189 522.639C-68.7249 523.917 -66.3144 526.106 -63.4895 527.536C-68.8147 523.8 -71.9574 517.169 -71.4808 510.684C-71.3358 508.744 -70.8661 506.775 -69.7126 505.214C-68.5592 503.654 -66.6252 502.569 -64.6982 502.818C-62.1772 503.149 -60.4366 505.546 -59.594 507.943C-58.7513 510.339 -58.4751 512.943 -57.3009 515.194C-56.2027 509.317 -50.6081 504.6 -44.6267 504.517C-38.6453 504.434 -32.9194 508.978 -31.6554 514.828C-31.393 511.182 -32.2909 507.563 -32.7744 503.944C-33.2579 500.325 -33.2717 496.416 -31.4206 493.266C-29.5696 490.11 -25.3149 488.142 -22.0963 489.875C-20.2935 490.842 -19.1608 492.728 -18.5046 494.661C-16.771 499.772 -17.8347 505.353 -18.9122 510.643C-19.5131 507.21 -17.4272 503.495 -14.1809 502.224C-10.9346 500.953 -6.88024 502.259 -4.98774 505.187C-3.09524 508.115 -3.57182 512.349 -6.06522 514.78C-6.38294 507.155 -1.24418 499.627 5.96666 497.141C8.98494 496.105 12.9357 496.195 14.6555 498.881C15.9886 500.96 15.4084 503.709 14.5243 506.023C12.8114 510.47 10.1108 514.538 6.67114 517.839C19.9324 505.097 35.4385 532.467 19.5318 540.223C21.8249 535.568 29.2499 535.402 32.6895 539.291C36.1292 543.179 35.8391 549.374 33.1937 553.836C30.5484 558.297 26.0313 561.322 21.4174 563.698C9.62044 569.776 -1.87271 570.749 -14.7266 571.026C-29.4176 571.337 -43.9498 573.83 -58.7651 573.581C-63.3099 573.505 -67.9306 573.298 -72.2268 571.813C-92.3259 564.865 -87.6845 515.553 -71.612 522.646L-71.6189 522.639Z" fill="#A7BED3"/>
<path d="M334.992 563.684C318.36 572.248 298.509 573.553 280.607 568.539C270.018 565.57 260.148 559.085 253.2 550.562C250.168 546.839 245.036 546.757 241.016 543.849C236.962 540.914 233.778 536.722 232.258 531.935C231.374 529.138 231.139 525.761 233.108 523.586C235.235 521.237 239.048 521.362 241.942 522.639C244.836 523.917 247.246 526.106 250.071 527.536C244.746 523.8 241.603 517.169 242.08 510.684C242.225 508.744 242.695 506.775 243.848 505.214C245.001 503.654 246.935 502.569 248.862 502.818C251.383 503.149 253.124 505.546 253.967 507.943C254.809 510.339 255.086 512.943 256.26 515.194C257.358 509.317 262.953 504.6 268.934 504.517C274.915 504.434 280.641 508.978 281.905 514.828C282.168 511.182 281.27 507.563 280.786 503.944C280.303 500.325 280.289 496.416 282.14 493.266C283.991 490.11 288.246 488.142 291.464 489.875C293.267 490.842 294.4 492.728 295.056 494.661C296.79 499.772 295.726 505.353 294.649 510.643C294.048 507.21 296.133 503.495 299.38 502.224C302.626 500.953 306.68 502.259 308.573 505.187C310.465 508.115 309.989 512.349 307.495 514.78C307.178 507.155 312.316 499.627 319.527 497.141C322.546 496.105 326.496 496.195 328.216 498.881C329.549 500.96 328.969 503.709 328.085 506.023C326.372 510.47 323.671 514.538 320.232 517.839C333.493 505.097 348.999 532.467 333.092 540.223C335.386 535.568 342.811 535.402 346.25 539.291C349.69 543.179 349.4 549.374 346.754 553.836C344.109 558.297 339.592 561.322 334.978 563.698L334.992 563.684Z" fill="#A7BED3"/>
<path d="M151.033 546.743C146.598 547.579 141.619 547.537 138.103 549.505C128.357 554.968 121.188 562.344 109.432 563.65C97.235 565.003 78.724 560.88 69.9108 551.785C67.8663 549.678 58.017 530.699 58.4176 530.637C62.4029 529.96 66.6991 531.777 68.9922 535.099C67.1204 531.673 65.4282 527.985 65.3591 524.083C65.2831 520.112 68.1771 513.343 73.2123 513.951C76.9628 514.4 81.6871 521.783 83.2481 524.849C82.2949 521.382 81.3348 517.915 80.3817 514.448C79.8084 512.376 79.249 510.139 79.9949 508.129C81.0931 505.194 84.8574 503.861 87.8481 504.814C90.8319 505.767 92.9937 508.488 94.0643 511.437C95.1349 514.386 95.2868 517.57 95.425 520.706C93.643 517.183 95.6184 512.294 99.355 511.009C103.092 509.718 107.664 512.349 108.431 516.223C107.533 511.7 102.145 501.278 107.112 497.638C108.88 496.347 111.511 496.706 113.19 498.108C114.868 499.51 115.697 501.734 115.87 503.916C116.042 506.099 115.628 508.281 115.22 510.436C115.089 505.774 119.24 501.423 123.902 501.326C128.564 501.23 132.888 505.408 132.957 510.07C132.957 505.097 132.135 499.952 137.44 497.521C141.211 495.794 146.301 497.32 148.374 500.939C150.825 505.215 148.795 511.327 144.388 513.523C153.436 509.006 169.647 512.059 163.375 525.706C161.745 529.263 158.762 532.011 155.688 534.436C159.031 533.669 161.31 538.573 159.639 541.563C157.801 544.85 154.597 546.087 151.047 546.757L151.033 546.743Z" fill="#A7BED3"/>
<path d="M107.553 584.334C111.221 586.165 115.517 586.945 118.749 589.369H299.014C301.783 584.549 302.294 578.347 299.4 573.547C294.759 565.839 282.824 564.182 275.986 569.81C279.681 566.026 282.016 560.915 282.389 555.631C277.015 554.582 271.206 556.08 267.007 559.596C272.505 554.582 276.082 547.219 275.571 539.802C275.06 532.384 270.018 525.209 262.876 523.123C255.735 521.037 247.087 524.96 244.766 532.025C245.305 523.171 238.633 514.428 229.944 512.618C221.255 510.802 211.641 516.14 208.588 524.47C207.455 514.372 205.017 502.445 195.624 498.557C187.453 495.173 177.755 500.249 172.969 507.68C168.735 514.248 167.402 522.156 166.49 529.974C165.772 525.14 159.418 521.113 154.762 523.648C149.838 526.327 149.382 533.897 152.973 538.041C147.165 533.6 138.628 532.875 132.259 536.542C125.76 540.292 122.092 548.29 123.232 555.666C121.802 552.309 116.574 550.811 113.321 553.021C109.515 555.611 108.693 561.129 110.199 565.48C111.704 569.831 114.999 573.284 118.197 576.592C115.966 574.369 113.625 572.076 110.648 571.047C107.671 570.024 103.858 570.68 102.228 573.381C99.8658 577.29 103.464 582.29 107.553 584.334Z" fill="#E6E6FA"/>
<path d="M-33.8245 586.648C-31.6627 587.726 -29.2314 588.354 -27.0626 589.369H122.182C123.799 585.702 123.888 581.351 121.809 577.891C118.045 571.641 108.362 570.294 102.815 574.859C105.813 571.786 107.705 567.642 108.009 563.36C103.651 562.51 98.934 563.726 95.5285 566.571C99.99 562.503 102.891 556.536 102.477 550.514C102.062 544.491 97.974 538.676 92.1786 536.984C86.3837 535.292 79.3732 538.476 77.4876 544.208C77.9227 537.026 72.5077 529.933 65.4626 528.462C58.4175 526.991 50.6196 531.321 48.14 538.075C47.2214 529.884 45.2391 520.208 37.6277 517.052C31.0039 514.31 23.13 518.42 19.2483 524.456C15.8156 529.788 14.7312 536.204 13.9922 542.544C13.412 538.621 8.25252 535.354 4.47442 537.412C0.482223 539.588 0.109244 545.728 3.02396 549.091C-1.68657 545.493 -8.61422 544.899 -13.7806 547.876C-19.0506 550.914 -22.0275 557.406 -21.102 563.387C-22.2623 560.666 -26.5032 559.451 -29.1416 561.246C-32.229 563.346 -32.8921 567.821 -31.6696 571.357C-30.4471 574.887 -27.7741 577.691 -25.1771 580.377C-26.9867 578.575 -28.8861 576.71 -31.3035 575.881C-33.7209 575.052 -36.8152 575.584 -38.1345 577.773C-40.0546 580.944 -37.133 584.998 -33.8176 586.655L-33.8245 586.648Z" fill="#E6E6FA"/>
<path d="M278.555 587.58C279.985 588.299 281.553 588.796 283.059 589.369H420.147C421.335 586.199 421.294 582.573 419.533 579.652C416.121 573.989 407.342 572.773 402.321 576.91C405.042 574.127 406.755 570.37 407.031 566.488C403.08 565.722 398.812 566.82 395.724 569.396C399.765 565.715 402.39 560.3 402.017 554.851C401.644 549.395 397.935 544.125 392.685 542.599C387.436 541.066 381.082 543.953 379.376 549.139C379.769 542.633 374.866 536.211 368.484 534.878C362.102 533.545 355.036 537.467 352.791 543.587C351.955 536.162 350.166 527.398 343.266 524.546C337.264 522.059 330.136 525.789 326.621 531.252C323.512 536.079 322.532 541.895 321.862 547.634C321.337 544.077 316.661 541.121 313.242 542.986C309.623 544.954 309.291 550.514 311.93 553.566C307.661 550.307 301.39 549.768 296.707 552.468C291.934 555.224 289.233 561.101 290.076 566.523C289.026 564.057 285.186 562.952 282.789 564.582C279.992 566.488 279.391 570.542 280.496 573.74C281.601 576.938 284.026 579.479 286.374 581.91C284.737 580.273 283.017 578.588 280.828 577.836C278.638 577.083 275.834 577.566 274.639 579.548C272.898 582.421 275.544 586.096 278.548 587.594L278.555 587.58Z" fill="#E6E6FA"/>
<path d="M204.264 586.669C204.734 587.642 205.252 588.533 205.791 589.369H313.863C314.671 588.893 315.431 588.347 316.129 587.705C318.795 585.246 320.197 581.04 318.408 577.884C317.027 575.446 314.077 574.209 311.273 574.23C308.469 574.244 305.782 575.315 303.275 576.565C307.329 573.657 310.596 569.347 311.301 564.409C312.005 559.471 309.692 553.981 305.188 551.826C300.685 549.671 294.365 551.888 292.928 556.667C293.847 552.806 294.766 548.877 294.565 544.912C294.365 540.948 292.887 536.866 289.779 534.394C285.158 530.727 278.258 531.597 273.099 534.456C265.888 538.448 260.763 546.004 259.727 554.181C258.373 550.175 259.893 545.831 260.051 541.604C260.21 537.378 257.745 532.198 253.524 532.474C250.796 532.654 248.807 535.064 247.336 537.371C242.232 545.341 238.985 554.499 237.929 563.905C231.906 558.145 231.754 546.501 223.776 544.111C218.189 542.433 212.325 547.233 210.667 552.827C209.009 558.421 210.37 564.416 211.731 570.086C210.494 566.923 209.182 563.636 206.661 561.357C204.14 559.078 200.044 558.159 197.343 560.217C194.076 562.71 194.594 567.793 196.142 571.599C198.276 576.855 201.785 581.558 204.264 586.669Z" fill="#FAF3E0"/>
<path d="M-86.5247 587.208C-86.1449 587.988 -85.7373 588.699 -85.3022 589.369H1.20014C1.84939 588.989 2.4572 588.554 3.01666 588.036C5.1509 586.068 6.26986 582.705 4.8401 580.177C3.73499 578.222 1.37282 577.235 -0.871933 577.248C-3.11669 577.262 -5.26475 578.119 -7.27467 579.12C-4.02841 576.793 -1.41068 573.346 -0.851219 569.389C-0.291759 565.432 -2.14283 561.039 -5.74824 559.319C-9.35366 557.593 -14.4096 559.368 -15.563 563.194C-14.8309 560.1 -14.0918 556.957 -14.2506 553.78C-14.4095 550.604 -15.5975 547.337 -18.084 545.362C-21.7792 542.426 -27.3047 543.124 -31.4351 545.41C-37.2093 548.608 -41.3051 554.658 -42.1408 561.198C-43.2252 557.993 -42.0096 554.513 -41.8783 551.135C-41.754 547.751 -43.7294 543.607 -47.1069 543.828C-49.2895 543.973 -50.8781 545.9 -52.0592 547.744C-56.1481 554.126 -58.7451 561.454 -59.5877 568.982C-64.4087 564.375 -64.5262 555.051 -70.9151 553.138C-75.3908 551.798 -80.0806 555.638 -81.4067 560.114C-82.7328 564.589 -81.6484 569.389 -80.5502 573.927C-81.5379 571.392 -82.5878 568.767 -84.6046 566.944C-86.6214 565.121 -89.9022 564.382 -92.0641 566.032C-94.6749 568.028 -94.2674 572.096 -93.0311 575.142C-91.3181 579.348 -88.5139 583.119 -86.5316 587.201L-86.5247 587.208Z" fill="#FAF3E0"/>
<path d="M77.5151 589.369H156.157C156.24 589.314 156.337 589.266 156.42 589.21C160.302 586.69 163.527 582.877 164.494 578.347C165.461 573.823 163.796 568.616 159.88 566.15C157.104 564.403 153.298 564.465 150.549 566.108C153.194 561.799 152.462 555.293 148.201 552.316C143.483 549.022 136.176 551.267 133.537 556.205C134.587 553.311 135.492 550.355 135.616 547.295C135.768 543.469 134.497 539.381 131.444 537.067C126.637 533.427 119.261 535.693 115.372 540.299C111.483 544.906 110.178 551.101 109.011 557.02C109.75 552.758 110.482 548.345 109.391 544.16C108.306 539.975 104.867 536.072 100.55 535.9C95.7356 535.706 91.916 539.975 89.8371 544.319C86.4181 551.446 85.6653 559.817 87.7581 567.441C85.9623 564.465 84.0559 561.371 81.0791 559.582C78.1022 557.793 73.7232 557.814 71.6166 560.576C69.9382 562.78 70.2145 565.901 71.0433 568.546C72.2727 572.483 74.5935 576.054 77.6325 578.844C74.3586 577.283 70.6565 576.606 67.0442 576.993C66.4847 577.055 72.0724 585.695 72.8046 586.393C74.3103 587.815 75.8643 588.63 77.522 589.376L77.5151 589.369Z" fill="#FAF3E0"/>
<path d="M278.61 559.893C277.643 559.154 276.373 558.96 275.226 559.25C276.027 555.079 275.461 549.871 270.094 550.196C266.461 550.417 263.629 552.924 262.345 556.122C261.391 554.216 259.478 552.952 257.04 553.283C253.469 553.76 252.088 557.137 252.295 560.369C252.35 561.253 253.732 561.26 253.676 560.369C253.566 558.663 253.711 556.06 255.631 555.21C258.622 553.884 261.647 555.611 261.626 559.043C261.626 559.948 262.925 559.913 263.008 559.043C263.298 555.908 265.176 553.18 268.181 552.061C274.183 549.816 274.604 556.205 273.624 560.086C273.458 560.231 273.299 560.383 273.154 560.563C272.608 561.253 273.582 562.234 274.128 561.536C274.183 561.467 274.245 561.412 274.307 561.35C274.522 561.315 274.715 561.184 274.805 560.936C275.661 560.39 276.808 560.314 277.692 560.936C278.949 561.826 279.073 563.622 278.348 564.879C277.906 565.653 279.094 566.35 279.543 565.577C280.593 563.753 280.351 561.233 278.61 559.907V559.893Z" fill="#E6E6FA"/>
<path d="M234.821 561.253C231.768 560.549 230.511 563.297 230.082 565.88C228.749 563.594 226.733 561.074 224.205 562.697C221.179 564.637 222.278 569.099 224.398 571.178C225.033 571.799 226.007 570.825 225.372 570.204C224.536 569.382 223.928 568.464 223.818 567.269C223.666 565.694 224.225 562.372 227.278 564.34C228.528 565.148 229.33 567.358 229.986 568.609C230.31 569.223 231.277 568.926 231.27 568.263C231.264 566.502 231.112 563.698 233.101 562.876C236.154 561.612 237.031 566.661 236.195 568.049C235.732 568.816 236.927 569.506 237.39 568.747C238.723 566.537 237.618 561.909 234.827 561.267L234.821 561.253Z" fill="#E6E6FA"/>
<path d="M125.498 558.429C124.33 556.992 121.775 556.619 120.566 558.09C120.027 555.459 117.596 552.896 115.034 552.503C112.52 552.116 110.344 554.395 109.481 556.84C108.369 555.984 106.787 555.687 105.364 556.35C102.684 557.6 101.213 561.626 103.451 563.919C104.072 564.555 105.046 563.581 104.425 562.945C103.023 561.509 103.927 559.064 105.329 557.987C106.483 557.102 108.293 557.31 109.121 558.318C109.066 558.767 109.066 559.209 109.121 559.616C109.163 559.886 109.315 560.024 109.508 560.079C109.508 560.107 109.508 560.134 109.494 560.169C109.294 561.032 110.627 561.405 110.827 560.535C111.042 559.61 110.89 558.76 110.503 558.042C110.972 555.611 113.59 553.083 115.925 554.278C117.707 555.189 119.634 557.441 119.281 559.527C119.136 560.397 120.469 560.77 120.615 559.893C120.621 559.837 120.621 559.775 120.628 559.72C120.905 559.824 121.215 559.775 121.367 559.416C121.858 558.277 123.391 558.297 124.213 559.078C124.717 559.554 124.98 560.224 125.125 560.88C125.152 560.991 125.429 563.035 125.201 563.021C124.317 562.959 124.317 564.34 125.201 564.403C127.86 564.596 126.361 559.499 125.491 558.435L125.498 558.429Z" fill="#E6E6FA"/>
<path d="M102.822 573.112C101.655 568.809 96.344 568.83 94.762 572.131C92.5587 569.845 87.5512 572.366 89.7476 576.24C90.1827 577.014 91.3776 576.316 90.9425 575.543C89.2779 572.6 93.9263 571.696 94.3407 574.514C94.4581 575.287 95.7152 575.094 95.6944 574.327C95.6116 570.66 100.502 569.845 101.482 573.478C101.717 574.334 103.05 573.968 102.815 573.112H102.822Z" fill="#E6E6FA"/>
<path d="M391.497 589.369H457.714C457.783 589.321 457.859 589.286 457.935 589.238C461.202 587.118 463.916 583.906 464.731 580.094C465.546 576.282 464.144 571.903 460.85 569.824C458.515 568.353 455.303 568.408 452.99 569.79C455.214 566.164 454.599 560.68 451.014 558.18C447.043 555.403 440.889 557.296 438.665 561.453C439.549 559.016 440.309 556.529 440.412 553.953C440.543 550.735 439.473 547.288 436.903 545.341C432.856 542.274 426.647 544.187 423.366 548.062C420.085 551.936 418.994 557.158 418.006 562.137C418.628 558.553 419.242 554.83 418.331 551.308C417.419 547.786 414.525 544.498 410.885 544.353C406.831 544.187 403.619 547.786 401.865 551.439C398.991 557.441 398.356 564.485 400.11 570.908C398.598 568.401 396.995 565.798 394.488 564.292C391.981 562.786 388.292 562.807 386.517 565.135C385.101 566.992 385.336 569.624 386.034 571.848C387.07 575.163 389.025 578.167 391.58 580.515C388.824 579.203 385.702 578.63 382.663 578.954C382.194 579.003 386.897 586.282 387.519 586.869C388.79 588.064 390.095 588.755 391.49 589.383L391.497 589.369Z" fill="#FAF3E0"/>
<path d="M412.812 575.681C411.832 572.055 407.356 572.076 406.03 574.852C404.179 572.925 399.959 575.052 401.81 578.312C402.176 578.961 403.184 578.381 402.811 577.725C401.409 575.253 405.325 574.486 405.677 576.855C405.774 577.511 406.838 577.345 406.817 576.703C406.748 573.616 410.865 572.932 411.693 575.985C411.887 576.703 413.013 576.399 412.812 575.674V575.681Z" fill="#E6E6FA"/>
<path d="M183.896 534.297C183.205 532.543 182.148 531.265 180.145 531.1C176.581 530.81 173.314 533.745 172.693 537.136C171.463 535.706 169.992 534.277 168.328 533.683C166.283 532.951 164.501 533.987 162.892 535.216C159.943 537.454 159.494 542.357 161.953 545.223C162.533 545.9 163.507 544.919 162.926 544.249C162.084 543.262 161.794 541.148 161.801 539.898C161.801 537.827 163.065 536.618 164.695 535.637C168.072 533.614 170.945 537.088 172.914 539.581C173.425 540.23 174.302 539.422 173.977 538.752C173.784 536.003 175.663 533.503 178.315 532.709C180.353 532.094 181.893 532.985 182.666 534.953C183.122 536.114 184.366 538.676 183.599 539.857C183.115 540.603 184.31 541.3 184.794 540.555C185.996 538.697 184.607 536.121 183.896 534.304V534.297Z" fill="#A7BED3"/>
<path d="M217.843 530.492C216.027 530.216 214.114 530.658 212.774 531.735C212.484 527.702 211.296 522.425 207.234 522.736C203.767 523.005 198.836 528.088 201.357 531.542C201.875 532.253 203.076 531.562 202.551 530.844C200.314 527.785 207.145 521.728 209.645 525.416C211.075 527.536 211.441 530.685 211.475 533.358C211.233 533.869 211.082 534.442 211.033 535.078C210.985 535.817 211.931 535.927 212.283 535.43C212.573 535.375 212.836 535.168 212.85 534.788C212.857 534.456 212.864 534.069 212.857 533.648C213.575 532.46 215.039 531.873 216.497 531.797C217.899 531.728 221.366 532.971 219.418 534.822C218.769 535.437 219.75 536.411 220.392 535.796C222.651 533.655 220.288 530.851 217.85 530.485L217.843 530.492Z" fill="#A7BED3"/>
<path d="M242.246 529.995C238.716 530.002 236.002 532.964 235.373 536.266C235.207 537.136 236.54 537.509 236.706 536.632C237.176 534.18 238.834 531.963 241.403 531.48C244.235 530.948 246.97 533.137 247.143 535.996C247.198 536.88 248.579 536.887 248.524 535.996C248.331 532.716 245.609 529.988 242.252 529.995H242.246Z" fill="#A7BED3"/>
<path d="M58.0309 552.033C57.5128 550.762 55.9035 550.058 54.6879 549.657C52.602 548.967 50.4401 549.499 48.8654 550.845C48.7479 547.675 43.4918 544.719 40.874 544.678C36.2809 544.602 33.4767 548.463 32.6065 552.558C30.7554 550.762 27.5851 550.735 25.6512 553.09C23.1578 556.122 23.6067 560.563 26.107 563.415C26.6941 564.085 27.668 563.104 27.0809 562.441C25.4992 560.639 24.9259 558.125 25.6926 555.832C26.2244 554.257 27.447 552.689 29.2359 552.565C30.6656 552.461 31.7776 553.373 32.3233 554.575C32.3233 554.665 32.3095 554.754 32.3025 554.844C32.2956 555.12 32.4269 555.3 32.6065 555.404C32.6134 555.438 32.6272 555.466 32.6341 555.5C32.7998 556.37 34.1329 556.004 33.9671 555.134C33.9119 554.83 33.8221 554.554 33.7185 554.285C33.9671 551.17 35.3761 547.793 38.4428 546.549C40.2524 545.817 42.2623 545.949 43.9822 546.916C45.1494 547.572 48.4233 550.3 47.187 551.902C46.89 552.289 47.0557 552.765 47.3597 552.993C47.4564 553.539 48.2714 553.863 48.6305 553.249C49.6389 551.522 51.5245 550.445 53.5483 550.811C54.7501 551.032 55.9173 551.508 56.4906 552.593C57.1606 553.856 56.6909 555.245 56.2074 556.529C55.8897 557.358 57.2227 557.717 57.5405 556.895C58.0792 555.486 58.6318 553.518 58.0309 552.033Z" fill="#A7BED3"/>
<path d="M342.721 548.317C341.291 547.592 339.626 547.855 338.224 548.566C337.485 545.672 334.646 543.593 331.455 544.291C327.677 545.12 325.322 548.587 324.68 552.22C323.146 550.527 321.136 549.858 318.995 551.778C316.474 554.036 316.578 557.752 318.83 560.141C319.437 560.79 320.418 559.81 319.803 559.167C318.187 557.455 317.966 554.865 319.624 553.083C320.377 552.275 321.551 551.577 322.649 552.137C323.485 552.558 324.024 553.511 324.493 554.285C324.493 554.319 324.493 554.347 324.493 554.381C324.507 555.272 325.888 555.272 325.875 554.381C325.833 551.315 327.111 548.02 329.881 546.411C332.954 544.629 336.58 546.128 336.974 549.478C336.428 550.182 336.325 551.17 337.34 551.633C337.976 551.923 338.535 551.239 338.342 550.755C338.342 550.728 338.362 550.707 338.369 550.679C338.383 550.514 338.39 550.355 338.39 550.189C338.949 549.871 339.979 549.374 340.041 549.36C341.305 549.043 342.348 549.547 343.232 550.424C344.509 551.695 346.167 554.526 343.978 555.783C343.211 556.225 343.902 557.42 344.675 556.978C348.301 554.885 345.559 549.761 342.714 548.311L342.721 548.317Z" fill="#A7BED3"/>
<path d="M349.379 572.131C348.813 570.943 348.813 569.81 347.611 568.919C346.174 567.849 344.22 567.711 342.493 567.704C338.881 567.697 337.879 570.687 336.815 573.699C336.518 574.541 337.851 574.9 338.148 574.065C339.067 571.461 339.903 568.919 343.26 569.113C345.021 569.216 346.872 569.382 347.721 571.274C347.97 571.834 348.005 572.379 348.253 572.925C348.081 573.111 347.935 573.326 347.811 573.567C347.417 574.362 348.605 575.059 349.006 574.265C349.918 572.435 354.829 573.056 353.765 575.363C353.399 576.164 354.587 576.869 354.96 576.061C356.466 572.78 352.073 570.97 349.386 572.131H349.379Z" fill="#A7BED3"/>
<path d="M60.0616 569.292C57.9826 566.972 54.6603 568.125 53.8453 570.598C52.2913 568.975 50.1846 567.614 47.9952 568.975C45.2945 570.653 45.6537 574.071 46.7519 576.592C47.1042 577.407 48.2991 576.703 47.9468 575.895C47.1249 574.002 46.6759 570.639 49.3006 569.886C51.1723 569.347 52.7402 571.323 53.7555 572.593C53.9766 573.381 55.2267 573.015 55.0609 572.172C54.5913 569.755 57.506 568.519 59.0808 570.273C59.6748 570.936 60.6486 569.955 60.0546 569.299L60.0616 569.292Z" fill="#A7BED3"/>
<path d="M118.777 516.12C117.03 513.813 113.791 514.276 112.623 516.5C111.615 514.794 109.66 513.129 107.664 513.709C106.607 514.013 105.792 515.139 105.24 516.03C104.59 517.066 104.349 518.123 104.901 519.248C105.164 519.787 105.972 519.317 105.703 518.779C105.212 517.784 105.751 516.893 106.324 516.099C107.029 515.125 107.699 514.338 109.045 514.683C110.51 515.056 111.636 516.292 112.167 517.653C112.181 517.694 112.209 517.722 112.23 517.75C112.209 517.881 112.188 518.012 112.181 518.143C112.154 518.744 113.086 518.744 113.114 518.143C113.224 515.581 116.394 514.511 117.969 516.589C118.328 517.059 119.136 516.596 118.77 516.12H118.777Z" fill="#D3D3D3"/>
<path d="M139.063 513.35C138.331 512.611 137.557 512.763 136.922 513.254C136.611 510.892 135.734 507.825 133.234 507.715C130.664 507.604 128.654 509.793 128.433 512.224C128.378 512.818 129.31 512.818 129.366 512.224C129.538 510.339 131.445 508.122 133.531 508.737C135.402 509.289 135.934 512.3 136.086 514.172C136.059 514.214 136.031 514.262 136.003 514.303C135.789 514.662 136.114 514.994 136.438 514.987C136.715 515.084 137.074 514.946 137.053 514.566C137.053 514.517 137.046 514.462 137.039 514.414C137.385 513.93 137.875 513.468 138.407 513.993C138.614 514.2 139.436 515.533 139.035 515.774C138.524 516.085 138.994 516.893 139.505 516.576C140.624 515.892 139.761 514.034 139.063 513.33V513.35Z" fill="#D3D3D3"/>
<path d="M90.4106 524.898C89.9478 524.974 89.568 525.236 89.3055 525.588C88.8911 524.691 88.1935 523.834 87.6616 523.24C86.6118 522.066 85.2028 522.011 83.8076 522.619C81.549 523.606 80.3265 527.046 83.1997 528.137C83.7592 528.351 84.001 527.453 83.4484 527.239C82.3019 526.804 82.219 525.409 82.8199 524.525C83.2619 523.869 84.0286 523.454 84.7814 523.254C85.9349 522.943 86.7844 523.579 87.413 524.47C87.8827 525.14 88.9463 526.507 88.6839 527.357C88.5112 527.93 89.4091 528.178 89.5818 527.605C89.5887 527.584 89.5887 527.557 89.5956 527.536C89.789 527.46 89.9409 527.267 89.865 527.004C89.7268 526.514 89.9962 525.92 90.528 525.816C91.046 525.713 91.5502 526.176 91.5779 526.673C91.6193 527.267 92.5517 527.274 92.5103 526.673C92.4412 525.623 91.495 524.711 90.4037 524.891L90.4106 524.898Z" fill="#D3D3D3"/>
<path d="M396.249 516.12C394.502 513.813 391.263 514.276 390.095 516.5C389.087 514.794 387.132 513.129 385.136 513.709C384.079 514.013 383.264 515.139 382.712 516.03C382.063 517.066 381.821 518.123 382.373 519.248C382.636 519.787 383.444 519.317 383.175 518.779C382.684 517.784 383.223 516.893 383.796 516.099C384.501 515.125 385.171 514.338 386.518 514.683C387.982 515.056 389.108 516.292 389.64 517.653C389.653 517.694 389.681 517.722 389.702 517.75C389.681 517.881 389.66 518.012 389.653 518.143C389.626 518.744 390.558 518.744 390.586 518.143C390.696 515.581 393.867 514.511 395.441 516.589C395.801 517.059 396.609 516.596 396.243 516.12H396.249Z" fill="#D3D3D3"/>
<path d="M367.883 524.898C367.42 524.974 367.04 525.236 366.778 525.588C366.363 524.691 365.666 523.834 365.134 523.24C364.084 522.066 362.675 522.011 361.28 522.619C359.021 523.606 357.799 527.046 360.672 528.137C361.231 528.351 361.473 527.453 360.921 527.239C359.774 526.804 359.691 525.409 360.292 524.525C360.734 523.869 361.501 523.454 362.254 523.254C363.407 522.943 364.257 523.579 364.885 524.47C365.355 525.14 366.418 526.507 366.156 527.357C365.983 527.93 366.881 528.178 367.054 527.605C367.061 527.584 367.061 527.557 367.068 527.536C367.261 527.46 367.413 527.267 367.337 527.004C367.199 526.514 367.468 525.92 368 525.816C368.518 525.713 369.022 526.176 369.05 526.673C369.091 527.267 370.024 527.274 369.982 526.673C369.913 525.623 368.967 524.711 367.876 524.891L367.883 524.898Z" fill="#D3D3D3"/>
<path d="M303.013 521.376C299.829 519.428 296.14 521.051 293.82 523.593C293.488 518.565 290.249 513.855 284.779 513.488C279.571 513.136 275.399 517.805 276.587 522.93C276.746 523.606 277.789 523.323 277.63 522.639C276.456 517.584 281.284 513.53 286.132 514.794C290.781 516.002 292.929 520.498 292.749 524.974C292.666 525.098 292.59 525.222 292.514 525.354C292.197 525.906 292.936 526.397 293.336 526.024C293.564 525.982 293.778 525.816 293.799 525.526C293.799 525.457 293.806 525.395 293.813 525.326C295.539 522.798 298.737 520.733 301.832 522.004C304.083 522.93 305.437 525.754 304.567 527.992C304.401 527.391 303.434 527.681 303.545 528.337C303.614 528.772 303.69 529.201 303.759 529.636C303.821 530.029 304.408 530.161 304.664 529.877C306.95 527.253 305.886 523.137 303.013 521.376Z" fill="#D3D3D3"/>
<path d="M314.312 507.576C312.496 506.23 309.94 506.036 308.324 507.791C306.687 509.566 306.715 512.314 307.033 514.538C307.129 515.222 308.172 514.932 308.075 514.248C307.689 511.568 308.172 506.692 312.157 507.694C315.784 508.606 315.811 512.57 316.688 515.422C316.481 514.759 315.438 515.042 315.645 515.712C316.108 517.218 317.724 516.285 317.731 515.028C317.738 512.521 316.35 509.082 314.306 507.576H314.312Z" fill="#D3D3D3"/>
<path d="M0.737944 507.576C-1.07858 506.23 -3.63414 506.036 -5.25036 507.791C-6.88731 509.566 -6.85968 512.314 -6.54196 514.538C-6.44527 515.222 -5.40232 514.932 -5.49901 514.248C-5.8858 511.568 -5.40232 506.692 -1.41703 507.694C2.20911 508.606 2.23675 512.57 3.11393 515.422C2.90672 514.759 1.86377 515.042 2.07098 515.712C2.53374 517.218 4.14997 516.285 4.15687 515.028C4.16378 512.521 2.77548 509.082 0.731034 507.576H0.737944Z" fill="#D3D3D3"/>
<path d="M296.596 574.306C301.01 574.348 305.913 575.639 310.196 575.259C308.289 574.203 307.136 571.882 307.896 569.748C308.649 567.648 311.177 566.371 313.318 567.02C315.452 567.669 316.854 570.135 316.308 572.303C316.522 570.301 316.778 568.242 317.786 566.495C318.795 564.755 320.736 563.394 322.725 563.677C324.714 563.967 326.268 566.405 325.232 568.132C326.496 565.597 330.357 564.872 332.457 566.778C334.591 568.712 334.142 572.338 331.953 574.023C335.475 572.573 340.876 575.114 344.682 575.225C384.784 576.399 424.948 575.342 464.877 571.233C465.015 576.254 458.26 615.689 469 616.249C444.991 614.999 420.969 614.018 396.94 613.314C339.723 611.629 282.464 611.477 225.241 612.865C170.185 614.198 115.096 620.973 60.1167 615.213C40.2593 613.134 22.0664 608.963 2.0087 608.023C-19.6584 607.001 -41.3254 605.986 -62.9925 604.964C-68.373 604.708 -74.0436 604.37 -78.5607 601.435C-87.1115 595.875 -87.9403 583.892 -87.8643 573.698C-46.7266 574.52 -5.7478 575.929 35.2448 578.043C40.2662 578.298 45.4049 578.851 50.3986 578.954C56.2971 579.079 51.2413 575.197 55.8275 573.74C57.6302 573.167 59.7713 574.672 59.8404 576.565C60.3446 574.244 60.9041 571.82 62.465 570.031C64.026 568.242 66.92 567.379 68.8125 568.816C70.3044 569.948 70.6567 572.006 70.9053 573.857C71.1401 572.386 72.0104 570.977 73.3365 570.301C74.6696 569.631 76.4516 569.831 77.4462 570.943C78.4477 572.048 78.3786 574.016 77.1906 574.907C78.2543 573.816 79.6564 572.973 81.1759 572.925C82.6954 572.877 84.2978 573.788 84.7192 575.245C85.1405 576.703 84.0078 578.505 82.4882 578.471C94.4165 578.761 106.269 578.94 118.218 578.747C124.758 578.643 131.299 578.512 137.84 578.353C141.245 578.271 144.657 578.181 148.062 578.084C149.72 578.036 156.226 576.841 157.421 577.794C155.149 575.984 155.211 571.979 157.546 570.245C159.88 568.512 163.734 569.61 164.812 572.31C164.287 569.444 165.199 566.295 167.36 564.347C169.522 562.4 172.927 561.854 175.476 563.256C178.025 564.658 179.378 568.035 178.273 570.729C179.959 568.284 181.741 565.742 184.358 564.333C186.976 562.924 190.678 563.049 192.46 565.425C194.367 567.952 193.31 571.53 192.191 574.493C193.234 572.669 196.142 570.874 198.145 572.172C199.726 573.194 199.954 575.46 198.939 576.944C201.743 575.536 205.293 575.805 208.332 575.708C212.532 575.57 216.731 575.439 220.931 575.315C229.329 575.066 237.735 574.845 246.134 574.672C262.952 574.32 279.771 574.147 296.596 574.299V574.306Z" fill="#A7BED3"/>
<path d="M83.9935 321.055C66.8217 325.272 51.0185 322.6 33.7229 323.466C20.8131 324.112 7.9098 324.822 -5 325.5C1.15186 323.675 7.3037 321.85 13.4556 320.025C8.77 318.63 6.5217 312.139 9.3435 308.144C12.1653 304.148 19.034 304.103 21.9144 308.052C20.7153 300.596 19.5553 292.755 22.136 285.658C24.7231 278.56 32.4456 272.733 39.6531 274.995C44.4691 276.507 47.747 281.193 48.9787 286.088C50.2104 290.983 49.7477 296.125 49.285 301.15C48.8744 295.669 53.4036 290.292 58.8712 289.764C64.3388 289.236 69.8129 293.655 70.4581 299.11C71.1032 304.565 66.8022 310.131 61.3606 310.887C63.9869 309.61 66.9716 308.776 69.8259 309.388C72.6803 310.001 75.2935 312.367 75.45 315.28C75.6064 318.194 72.55 321.035 69.7868 320.09C74.5246 320.41 79.2623 320.729 84 321.055H83.9935Z" fill="#A7BED3"/>
<path d="M394.354 153.379C368.623 159.708 344.942 155.697 319.025 156.999C299.68 157.967 280.345 159.033 261 160.051C270.218 157.312 279.437 154.572 288.655 151.833C281.634 149.74 278.265 139.996 282.493 133.999C286.722 128.002 297.014 127.933 301.331 133.862C299.534 122.67 297.795 110.901 301.663 100.248C305.539 89.594 317.111 80.848 327.912 84.2427C335.128 86.5123 340.04 93.5463 341.886 100.893C343.731 108.24 343.038 115.959 342.345 123.502C341.729 115.274 348.516 107.203 356.709 106.411C364.902 105.618 373.105 112.251 374.072 120.44C375.039 128.628 368.594 136.983 360.44 138.117C364.375 136.2 368.848 134.948 373.125 135.867C377.402 136.787 381.318 140.338 381.552 144.711C381.786 149.084 377.207 153.349 373.066 151.931C380.165 152.41 387.265 152.89 394.364 153.379H394.354Z" fill="#A7BED3"/>
<path d="M408.939 277.427C384.29 276.321 359.674 275.399 335 274.88C340.08 274.159 345.169 273.438 350.25 272.717C338.273 275.324 347.797 259.476 350.919 263.859C347.178 258.613 347.789 250.836 351.999 245.967C356.209 241.089 363.491 239.313 369.609 241.299C375.728 243.285 380.49 248.732 382.072 254.984C381.277 250.878 382.499 245.984 386.19 244.014C389.881 242.053 395.572 245.213 394.685 249.302C395.372 243.738 402.293 240.335 407.508 242.372C412.731 244.4 415.618 250.543 414.923 256.107C414.229 261.672 410.538 266.524 405.968 269.768C408.336 268.552 410.839 267.312 413.501 267.404C416.162 267.496 418.958 269.441 419 272.106C419.033 274.251 417.275 276.095 415.275 276.857C413.275 277.62 411.065 277.536 408.922 277.436L408.939 277.427Z" fill="#A7BED3"/>
</g>
</g>
</g>
<defs>
<filter id="filter0_d_224_94" x="-365" y="-10.5" width="970" height="621" filterUnits="userSpaceOnUse" color-interpolation-filters="sRGB">
<feFlood flood-opacity="0" result="BackgroundImageFix"/>
<feColorMatrix in="SourceAlpha" type="matrix" values="0 0 0 0 0 0 0 0 0 0 0 0 0 0 0 0 0 0 127 0" result="hardAlpha"/>
<feOffset/>
<feGaussianBlur stdDeviation="2"/>
<feComposite in2="hardAlpha" operator="out"/>
<feColorMatrix type="matrix" values="0 0 0 0 0.827451 0 0 0 0 0.827451 0 0 0 0 0.827451 0 0 0 1 0"/>
<feBlend mode="normal" in2="BackgroundImageFix" result="effect1_dropShadow_224_94"/>
<feBlend mode="normal" in="SourceGraphic" in2="effect1_dropShadow_224_94" result="shape"/>
</filter>
</defs>
</svg>
