<svg width="142" height="103" viewBox="0 0 142 103" fill="none" xmlns="http://www.w3.org/2000/svg">
<path d="M140.603 37.6887C138.073 30.12 131.438 24.3587 123.869 22.1079C117.333 20.1623 110.5 20.7204 103.847 22.0636C104.235 11.9181 96.4526 1.93947 85.7724 0.306801C72.3407 -1.74577 61.7753 6.74881 57.4485 18.3705C55.7115 8.24586 42.4337 2.25505 33.3053 7.06178C25.7157 11.0574 23.2719 19.8076 25.0089 27.6345C20.0431 27.4232 15.1294 27.9657 10.487 30.2817C3.75552 33.6409 -0.826906 40.5733 0.125051 48.2176C1.00137 55.2621 6.00895 61.6493 12.344 64.7399C16.2979 66.6673 20.4813 67.5723 24.7481 67.9375C20.5908 75.1384 19.6414 84.152 23.1154 91.9894C26.5607 99.7563 34.5129 101.167 41.5391 97.1012C44.9427 95.1321 48.0515 92.4979 51.1838 90.1298C52.3418 89.2535 53.492 88.3667 54.6422 87.4826C56.5826 94.8035 60.5391 101.556 68.6607 102.808C78.1386 104.271 84.4449 97.1508 88.4093 89.3135C92.4779 92.0806 97.0577 94.0915 101.888 95.08C108.424 96.4179 117.049 96.8352 122.202 91.7677C127.51 86.5463 126.396 77.9239 123.887 71.6149C122.828 68.9546 121.475 66.4821 119.853 64.2209C124.748 63.3915 129.427 61.7641 133.493 58.5718C139.75 53.6581 143.216 45.5052 140.605 37.6887H140.603ZM106.483 85.2787C106.549 85.2422 106.609 85.2031 106.669 85.164C106.734 85.2187 106.804 85.2709 106.875 85.3231C106.744 85.31 106.614 85.2944 106.483 85.2787Z" fill="#8EA2B5"/>
<path d="M34.5911 60.7391C35.7986 60.6426 36.6098 61.9466 35.9603 62.969C33.0393 67.5645 28.0969 77.0866 33.6887 81.8177C39.1474 86.4367 47.6447 77.3709 51.9167 72.0217C52.96 70.7177 55.0386 71.1532 55.482 72.7624C57.1564 78.8575 61.4806 89.0943 71.3679 87.0339C79.7164 85.2943 81.8029 78.5472 82.1368 73.4275C82.2541 71.6331 84.5128 70.9106 85.6812 72.2773C91.6407 79.2435 103.268 90.2497 111.945 82.3967C121.008 74.1968 112.719 62.463 107.894 57.0016C106.935 55.9167 107.733 54.2084 109.18 54.2449C117.284 54.4379 134.873 53.3555 141.354 41.0531C141.218 39.9316 140.973 38.8075 140.6 37.6913C138.07 30.1226 131.435 24.3613 123.866 22.1105C117.33 20.1648 110.497 20.723 103.844 22.0661C104.233 11.9206 96.45 1.94204 85.7698 0.309364C72.3381 -1.74321 61.7727 6.75137 57.4459 18.3731C55.7089 8.24842 42.431 2.25761 33.3027 7.06434C25.7131 11.06 23.2693 19.8101 25.0063 27.637C20.0405 27.4258 15.1268 27.9683 10.4844 30.2843C6.68703 32.1804 3.57557 35.211 1.75251 38.8675C4.53535 46.1598 13.1916 62.4422 34.5885 60.7417L34.5911 60.7391Z" fill="#A7BED3"/>
<path d="M45.7903 43.2413C45.7903 39.4152 48.8913 36.3142 52.7174 36.3142C56.5435 36.3142 59.6445 39.4152 59.6445 43.2413C59.6445 47.0674 56.5435 50.1684 52.7174 50.1684C48.8913 50.1684 45.7903 47.0674 45.7903 43.2413Z" fill="white"/>
<path d="M50.0885 44.7671C50.0885 42.4719 51.9506 40.6097 54.2458 40.6097C56.5409 40.6097 58.4031 42.4719 58.4031 44.7671C58.4031 47.0622 56.5435 48.9244 54.2458 48.9244C51.948 48.9244 50.0885 47.0622 50.0885 44.7671Z" fill="#14242B"/>
<path d="M48.0098 44.767C48.0098 43.6194 48.9409 42.6884 50.0885 42.6884C51.236 42.6884 52.1671 43.6194 52.1671 44.767C52.1671 45.9146 51.236 46.8457 50.0885 46.8457C48.9409 46.8457 48.0098 45.9146 48.0098 44.767Z" fill="white"/>
<path d="M81.1197 43.2413C81.1197 39.4152 84.2207 36.3142 88.0468 36.3142C91.8729 36.3142 94.9739 39.4152 94.9739 43.2413C94.9739 47.0674 91.8729 50.1684 88.0468 50.1684C84.2207 50.1684 81.1197 47.0674 81.1197 43.2413Z" fill="white"/>
<path d="M85.4178 44.7671C85.4178 42.4719 87.28 40.6097 89.5751 40.6097C91.8702 40.6097 93.7324 42.4719 93.7324 44.7671C93.7324 47.0622 91.8728 48.9244 89.5751 48.9244C87.2773 48.9244 85.4178 47.0622 85.4178 44.7671Z" fill="#14242B"/>
<path d="M83.3391 44.767C83.3391 43.6194 84.2702 42.6884 85.4178 42.6884C86.5654 42.6884 87.4964 43.6194 87.4964 44.767C87.4964 45.9146 86.5654 46.8457 85.4178 46.8457C84.2702 46.8457 83.3391 45.9146 83.3391 44.767Z" fill="white"/>
<path d="M61.9658 55.9428C63.5985 63.6236 74.5655 63.402 75.7704 55.6011C75.94 54.5057 74.263 54.0337 74.0935 55.1395C73.1545 61.232 64.9338 61.5476 63.6428 55.4812C63.4107 54.3884 61.7337 54.85 61.9658 55.9428Z" fill="#14242B"/>
<path d="M55.0986 27.1624C52.527 25.8897 49.2826 27.2485 48.4662 30.0261C48.3515 30.42 48.5027 30.7303 48.7557 30.9155C48.9226 31.218 49.2512 31.4032 49.679 31.2337C51.5438 30.4982 53.3512 29.648 55.0986 28.6647C55.6411 28.3596 55.688 27.4546 55.0986 27.1624Z" fill="#14242B"/>
<path d="M92.5979 30.0261C91.7816 27.2485 88.537 25.8897 85.9655 27.1624C85.376 27.4546 85.423 28.3596 85.9655 28.6647C87.7129 29.648 89.5203 30.4982 91.3851 31.2337C91.8128 31.4032 92.1388 31.218 92.3058 30.9155C92.5614 30.7329 92.7127 30.42 92.5979 30.0261Z" fill="#14242B"/>
<path d="M32.5281 48.4862C32.5281 45.9251 34.6042 43.849 37.1653 43.849C39.7265 43.849 41.8025 45.9251 41.8025 48.4862C41.8025 51.0474 39.7265 53.1234 37.1653 53.1234C34.6042 53.1234 32.5281 51.0474 32.5281 48.4862Z" fill="#F8C1C1"/>
<path d="M98.0331 48.4862C98.0331 45.9251 100.109 43.849 102.67 43.849C105.231 43.849 107.308 45.9251 107.308 48.4862C107.308 51.0474 105.231 53.1234 102.67 53.1234C100.109 53.1234 98.0331 51.0474 98.0331 48.4862Z" fill="#F8C1C1"/>
</svg>
