<svg width="128" height="113" viewBox="0 0 128 113" fill="none" xmlns="http://www.w3.org/2000/svg">
<path d="M30.3762 87.0087C30.3719 86.9915 30.3655 86.9765 30.359 86.9614C30.3891 86.54 29.7033 86.3917 29.5464 86.8518C28.8692 88.8447 27.2374 90.5001 26.9107 92.6005C26.6849 94.0473 27.2675 95.7478 28.895 96.0123C30.488 96.2724 31.2297 94.7675 31.4447 93.4389C31.793 91.302 30.8879 89.0554 30.3762 87.0108V87.0087ZM29.5442 94.1118C29.5442 94.1118 29.5507 94.1118 29.555 94.1118C29.555 94.1118 29.5528 94.1161 29.5507 94.1183C29.5507 94.1183 29.5485 94.1204 29.5464 94.1226C29.5464 94.1204 29.5464 94.1182 29.5464 94.1139L29.5442 94.1118ZM30.086 89.2445C30.0881 89.2295 30.0924 89.2144 30.0946 89.1994C30.0989 89.2166 30.1032 89.2338 30.1075 89.2531C30.101 89.2531 30.0924 89.2467 30.086 89.2445Z" fill="#7FB0DE"/>
<path d="M36.5678 97.3924C36.4174 97.1409 36.0712 97.2784 36.0433 97.5042C36.0175 97.5343 35.9981 97.573 35.9874 97.6224C35.5123 99.9357 33.3194 101.447 32.9711 103.805C32.7605 105.222 33.5301 106.985 35.1425 107.09C36.9871 107.211 37.8857 105.293 38.0469 103.749C38.2791 101.529 37.703 99.2972 36.5678 97.3924ZM37.4256 103.651C37.4514 103.575 37.4729 103.498 37.4944 103.421C37.4837 103.509 37.4708 103.601 37.4557 103.694C37.445 103.679 37.4364 103.664 37.4256 103.651ZM34.4416 106.276C34.5534 106.331 34.6631 106.377 34.7727 106.409C34.8114 106.437 34.8523 106.465 34.8953 106.488C34.7964 106.454 34.6975 106.413 34.5921 106.359C34.5405 106.331 34.4889 106.304 34.4416 106.276Z" fill="#C4DFFA"/>
<path d="M56.6646 91.704C56.0519 90.2098 55.5274 88.8103 55.2844 87.2022C55.2737 87.1269 55.2457 87.0689 55.2092 87.0237C55.2565 86.6604 54.8115 86.31 54.5384 86.6561C53.0873 88.4942 51.9285 90.5774 51.5888 92.9229C51.3352 94.6858 51.5717 97.3731 53.7817 97.7386C55.665 98.0503 56.914 95.9607 57.1032 94.359C57.215 93.4152 57.0172 92.5703 56.6625 91.704H56.6646ZM54.4782 91.7813C54.4782 91.7813 54.4782 91.7878 54.4782 91.7899C54.4782 91.7899 54.4782 91.7899 54.4761 91.7899C54.4761 91.7878 54.4761 91.7856 54.4761 91.7813H54.4782ZM54.8652 96.6809C54.8523 96.6852 54.8416 96.6873 54.8308 96.6938C55.2264 96.496 55.5596 96.1778 55.8455 95.8123C55.8563 95.8037 55.8692 95.7973 55.8799 95.7887C55.6564 96.1692 55.3296 96.4831 54.8674 96.6809H54.8652Z" fill="#7FB0DE"/>
<path d="M45.4596 94.4944C45.4145 94.3396 45.2855 94.217 45.1329 94.1526C44.9673 94.0537 44.7631 94.0472 44.589 94.2042C44.5739 94.2171 44.5567 94.2321 44.5438 94.2471C44.5395 94.2514 44.5352 94.2557 44.5309 94.26C43.0217 96.0337 39.9947 102.552 44.1439 103.236C48.8865 104.016 46.0208 96.3906 45.4596 94.4965V94.4944ZM44.8039 100.366C44.8039 100.366 44.8082 100.383 44.8104 100.391C44.8082 100.387 44.8039 100.385 44.8018 100.381C44.8018 100.374 44.8018 100.37 44.8039 100.363V100.366Z" fill="#C4DFFA"/>
<path d="M39.9775 82.9196C39.999 82.8379 40.0377 82.7755 40.0807 82.7197C40.1796 82.3305 40.8009 82.1134 41.0976 82.5584C42.3811 84.4804 43.7398 90.2398 39.8829 90.3473C38.5887 90.3839 37.7352 89.2186 37.7008 87.9997C37.6471 86.0326 39.5089 84.719 39.9775 82.9196Z" fill="#95C1EB"/>
<path d="M20.2613 78.0201C20.2161 77.8653 20.0871 77.7428 19.9345 77.6783C19.769 77.5794 19.5647 77.573 19.3906 77.7299C19.3755 77.7428 19.3583 77.7578 19.3454 77.7729C19.3411 77.7772 19.3368 77.7815 19.3325 77.7858C17.8234 79.5594 14.7964 86.0778 18.9456 86.7614C23.6903 87.5418 20.8224 79.9163 20.2613 78.0223V78.0201ZM19.6056 83.8914C19.6056 83.8914 19.6099 83.9086 19.612 83.9172C19.6099 83.9129 19.6056 83.9107 19.6034 83.9086C19.6034 83.9021 19.6034 83.8978 19.6056 83.8914Z" fill="#95C1EB"/>
<path d="M51.8877 105.725C51.8877 105.641 51.8684 105.57 51.8404 105.506C51.849 105.104 51.3072 104.73 50.9031 105.08C49.1552 106.592 46.3174 111.786 50.0087 112.912C51.247 113.291 52.38 112.394 52.7347 111.227C53.3088 109.346 51.8598 107.583 51.8877 105.725Z" fill="#7FB0DE"/>
<path d="M62.4026 102.361C62.3962 102.326 62.3811 102.298 62.3661 102.268C62.4693 101.737 61.676 101.342 61.3643 101.892C60.3581 103.666 57.0366 110.016 61.0676 110.702C65.0319 111.377 62.6886 103.909 62.4026 102.359V102.361Z" fill="#95C1EB"/>
<path d="M94.6267 87.6364C94.8417 88.965 95.5834 90.4699 97.1764 90.2098C98.8039 89.9454 99.3865 88.2448 99.1607 86.798C98.8339 84.6997 97.2022 83.0443 96.525 81.0493C96.3681 80.5892 95.6801 80.7375 95.7124 81.1589C95.7059 81.174 95.6995 81.189 95.6952 81.2062C95.1835 83.2529 94.2784 85.4995 94.6267 87.6343V87.6364ZM96.5272 88.3179C96.5272 88.3179 96.525 88.3158 96.5229 88.3136C96.5229 88.3136 96.5207 88.3093 96.5186 88.3072C96.5229 88.3072 96.525 88.3072 96.5293 88.3072C96.5293 88.3093 96.5293 88.3115 96.5293 88.3158L96.5272 88.3179ZM95.966 83.4507C95.9703 83.4335 95.9746 83.4163 95.9789 83.3969C95.9811 83.412 95.9854 83.427 95.9876 83.4421C95.979 83.4421 95.9725 83.4485 95.966 83.4507Z" fill="#B2D2F9"/>
<path d="M94.2376 103.294C94.4053 104.906 95.3448 106.912 97.2732 106.785C98.9587 106.675 99.7627 104.833 99.5435 103.352C99.178 100.888 96.8884 99.308 96.3896 96.8894C96.3789 96.8378 96.3574 96.7969 96.3316 96.7647C96.3015 96.5282 95.9382 96.3842 95.7834 96.6464C94.5967 98.6372 93.9947 100.972 94.2355 103.292L94.2376 103.294ZM94.8568 103.236C94.8417 103.139 94.8288 103.042 94.8181 102.95C94.8396 103.031 94.8632 103.111 94.889 103.191C94.8761 103.206 94.8675 103.221 94.8568 103.236ZM97.8494 106.022C97.7397 106.078 97.6344 106.121 97.5334 106.155C97.5785 106.129 97.6215 106.104 97.6623 106.074C97.7763 106.037 97.8924 105.992 98.0085 105.934C97.959 105.964 97.9053 105.994 97.8515 106.022H97.8494Z" fill="#B2D2F9"/>
<path d="M74.2397 91.1943C74.4289 92.796 75.6779 94.8856 77.5612 94.5739C79.7713 94.2084 80.0099 91.5233 79.7541 89.7582C79.4165 87.4106 78.2556 85.3295 76.8045 83.4914C76.5314 83.1453 76.0864 83.4957 76.1337 83.8591C76.0972 83.9042 76.0714 83.9622 76.0585 84.0375C75.8155 85.6456 75.291 87.0451 74.6783 88.5393C74.3235 89.4057 74.1257 90.2506 74.2375 91.1943H74.2397ZM76.869 88.6231C76.869 88.6231 76.869 88.6231 76.8668 88.6231C76.8668 88.621 76.8668 88.6188 76.8668 88.6145C76.8668 88.6167 76.8668 88.6188 76.8668 88.6231H76.869ZM75.4673 92.6218C75.4673 92.6218 75.4909 92.6369 75.5017 92.6455C75.7876 93.0088 76.1208 93.3291 76.5164 93.5269C76.5056 93.5226 76.4927 93.5205 76.482 93.514C76.0176 93.3162 75.6908 93.0024 75.4694 92.6218H75.4673Z" fill="#95C1EB"/>
<path d="M87.2011 100.071C91.3503 99.3896 88.3233 92.8691 86.8141 91.0955C86.8098 91.0912 86.8055 91.0869 86.8012 91.0826C86.7862 91.0654 86.7711 91.0525 86.7561 91.0396C86.5819 90.8848 86.3777 90.8913 86.2122 90.988C86.0595 91.0546 85.9327 91.175 85.8854 91.3298C85.3243 93.2238 82.4585 100.849 87.2011 100.069V100.071ZM86.5411 97.2183C86.5411 97.2183 86.5346 97.2247 86.5325 97.2269C86.5325 97.2183 86.5368 97.2097 86.5389 97.2011C86.5389 97.2075 86.539 97.2118 86.5411 97.2183Z" fill="#C8E7F9"/>
<path d="M65.5307 86.611C65.5092 86.5293 65.4705 86.467 65.4275 86.4111C65.3286 86.0219 64.7073 85.8048 64.4106 86.2498C63.1272 88.1718 61.7684 93.9312 65.6253 94.0387C66.9173 94.0753 67.773 92.9101 67.8074 91.6911C67.8611 89.724 65.9972 88.4104 65.5307 86.611Z" fill="#95C1EB"/>
<path d="M109.764 90.4506C113.913 89.7691 110.886 83.2486 109.377 81.475C109.373 81.4707 109.368 81.4664 109.364 81.4621C109.349 81.4449 109.334 81.432 109.319 81.4169C109.145 81.2621 108.94 81.2686 108.775 81.3653C108.624 81.432 108.495 81.5524 108.448 81.7071C107.887 83.6012 105.021 91.2267 109.764 90.4463V90.4506ZM109.104 87.5977C109.104 87.5977 109.097 87.6042 109.095 87.6063C109.095 87.5977 109.1 87.5891 109.102 87.5805C109.102 87.587 109.102 87.5913 109.104 87.5977Z" fill="#C8E7F9"/>
<path d="M81.4137 104.526C81.4352 104.444 81.4739 104.382 81.5169 104.326C81.6158 103.936 82.2371 103.719 82.5338 104.164C83.8172 106.086 85.1759 111.846 81.3191 111.953C80.027 111.99 79.1714 110.825 79.137 109.606C79.0833 107.639 80.9472 106.325 81.4137 104.526Z" fill="#C8E7F9"/>
<path d="M69.4713 99.7251C69.4777 99.6907 69.4928 99.6627 69.5078 99.6326C69.4046 99.1016 70.1979 98.706 70.5096 99.2564C71.5158 101.03 74.8373 107.381 70.8063 108.066C66.8442 108.742 69.1853 101.273 69.4713 99.7251Z" fill="#95C1EB"/>
<path d="M123.491 44.8909C121.988 43.659 120.399 42.9045 118.772 42.5153C118.95 42.0553 119.118 41.5909 119.26 41.1093C120.881 35.5907 119.516 29.4227 114.852 25.8368C110.923 22.8163 105.548 22.124 100.808 23.3408C99.7046 23.6246 98.6448 24.0094 97.6214 24.4673C98.0149 21.0899 97.9762 17.6889 97.228 14.3544C95.4501 6.44085 88.9511 0.947979 80.9795 0.111687C73.2851 -0.696657 65.3608 2.95809 60.2807 8.63584C56.9936 12.3078 54.6309 16.5473 52.7003 21.0061C52.2811 21.0491 51.8662 21.1415 51.4684 21.2856C49.7507 19.2712 47.8266 17.4481 45.5714 15.9711C40.3645 12.5636 33.3194 11.5553 27.6739 14.4619C22.5057 17.1235 19.8227 22.6873 19.2207 28.2511C19.01 30.1967 19.1132 32.1101 19.4228 33.9933C16.5054 33.1764 13.3516 33.2 10.3977 34.2599C2.52926 37.087 -1.15988 44.9146 0.325666 52.9077C2.48627 64.5191 13.0291 69.855 23.9633 72.5982C32.7519 75.9498 42.5917 77.0054 51.7415 78.0309C64.1934 79.4261 76.7851 79.6432 89.1768 77.5751C94.9943 76.6034 100.702 75.0555 106.156 72.8003C111.795 70.4698 117.781 67.617 122.194 63.3022C127.242 58.3705 129.751 50.0226 123.491 44.8909Z" fill="#95C1EB"/>
<path d="M54.5336 39.9585C55.2101 37.1256 53.462 34.2807 50.6291 33.6043C47.7962 32.9278 44.9513 34.6759 44.2749 37.5088C43.5984 40.3417 45.3465 43.1866 48.1794 43.863C51.0123 44.5395 53.8572 42.7913 54.5336 39.9585Z" fill="white"/>
<path d="M46.2357 38.7251C46.2357 36.9773 47.6525 35.5605 49.4003 35.5605C51.1481 35.5605 52.5649 36.9773 52.5649 38.7251C52.5649 40.473 51.1481 41.8897 49.4003 41.8897C47.6525 41.8897 46.2357 40.473 46.2357 38.7251Z" fill="#14242B"/>
<path d="M71.0192 38.7251C71.0192 35.8121 73.3797 33.4515 76.2927 33.4515C79.2058 33.4515 81.5663 35.8121 81.5663 38.7251C81.5663 41.6382 79.2058 43.9987 76.2927 43.9987C73.3797 43.9987 71.0192 41.6382 71.0192 38.7251Z" fill="white"/>
<path d="M73.1282 38.7251C73.1282 36.9773 74.5449 35.5605 76.2927 35.5605C78.0406 35.5605 79.4573 36.9773 79.4573 38.7251C79.4573 40.473 78.0406 41.8897 76.2927 41.8897C74.5449 41.8897 73.1282 40.473 73.1282 38.7251Z" fill="#14242B"/>
<path d="M111.899 54.1073C109.818 53.0109 107.304 54.1976 106.705 56.4722C106.055 58.9402 104.372 61.7028 100.55 64.0375C94.7148 67.6041 88.6802 64.1944 84.8965 61.0385C83.0046 59.4605 80.1561 59.9076 78.8898 62.0231C76.7894 65.5317 72.9132 69.7626 66.2723 70.3667C59.4358 70.988 55.1619 66.297 52.8057 62.3413C51.6598 60.4172 48.9639 60.1119 47.4912 61.8017C44.9738 64.6911 40.7773 67.6127 34.633 66.1487C29.1595 64.8458 26.5194 61.3523 25.251 58.1512C24.2707 55.681 21.4781 54.518 18.9799 55.4295C16.5592 56.3131 13.3129 56.627 9.32065 55.0748C1.48874 52.0284 2.98934 42.1692 3.75469 38.8112C0.590108 42.5433 -0.648207 47.69 0.323526 52.9099C2.48412 64.5212 13.027 69.8571 23.9611 72.6003C32.7497 75.952 42.5896 77.0075 51.7393 78.033C64.5052 79.4627 77.415 79.6562 90.1099 77.416C96.4218 76.3024 102.56 74.3998 108.433 71.8372C113.367 69.683 118.37 67.043 122.192 63.3066C126.268 59.3229 128.687 53.1098 126.167 48.163C121.96 57.0182 116.14 56.3475 111.896 54.1116L111.899 54.1073Z" fill="#7FB0DE"/>
<path d="M46.2357 36.0894C46.2357 35.2165 46.943 34.5071 47.818 34.5071C48.693 34.5071 49.4003 35.2144 49.4003 36.0894C49.4003 36.9644 48.693 37.6717 47.818 37.6717C46.943 37.6717 46.2357 36.9644 46.2357 36.0894Z" fill="white"/>
<path d="M74.1837 37.6717C75.0576 37.6717 75.766 36.9632 75.766 36.0894C75.766 35.2155 75.0576 34.5071 74.1837 34.5071C73.3099 34.5071 72.6014 35.2155 72.6014 36.0894C72.6014 36.9632 73.3099 37.6717 74.1837 37.6717Z" fill="white"/>
<path d="M58.3996 48.3543C58.2448 51.4006 60.6763 54.4039 63.858 54.3932C67.0398 54.3824 69.4778 51.4307 69.3251 48.3629C69.2757 47.3503 67.6934 47.3438 67.7428 48.3629C67.8503 50.5493 66.2014 52.813 63.8559 52.8109C61.5147 52.8087 59.8679 50.5407 59.9797 48.3543C60.0313 47.3374 58.449 47.3395 58.3974 48.3543H58.3996Z" fill="#14242B"/>
<path d="M30.6794 47.9545C30.6794 45.624 32.5692 43.7365 34.8974 43.7365C37.2257 43.7365 39.1155 45.6262 39.1155 47.9545C39.1155 50.2827 37.2257 52.1725 34.8974 52.1725C32.5692 52.1725 30.6794 50.2827 30.6794 47.9545Z" fill="#F8C1C1"/>
<path d="M95.2266 48.8977C95.5999 46.5983 94.0384 44.4316 91.7389 44.0584C89.4395 43.6851 87.2728 45.2466 86.8996 47.5461C86.5263 49.8455 88.0878 52.0122 90.3873 52.3854C92.6867 52.7587 94.8534 51.1972 95.2266 48.8977Z" fill="#F8C1C1"/>
<path opacity="0.49" d="M65.7607 12.1121C64.9029 11.9745 64.8041 11.0845 65.1631 10.2933C67.328 5.5056 78.8877 -1.58675 85.3803 3.92976C91.6707 9.27429 74.7407 13.546 65.7629 12.1121H65.7607Z" fill="white"/>
<path opacity="0.49" d="M23.0324 29.2336C20.9234 28.178 23.5591 19.742 29.3594 16.5774C35.1597 13.4129 43.5978 15.5219 43.5978 19.742C43.5978 22.3777 37.2708 17.1063 30.9417 21.3243C26.599 24.2201 25.1414 30.2892 23.0324 29.2336Z" fill="white"/>
<path opacity="0.49" d="M97.9138 30.2891C95.8607 27.8254 105.823 22.3798 111.623 27.1245C117.424 31.8714 116.897 38.1984 114.788 39.254C112.679 40.3095 112.262 32.7184 108.461 30.8158C103.187 28.1801 100.552 33.4515 97.9138 30.2891Z" fill="white"/>
<path opacity="0.49" d="M20.9234 38.1984C21.4501 35.5627 13.5408 34.5071 9.32282 37.1428C5.10481 39.7786 3.0818 43.8396 5.10481 45.0521C7.74053 46.6344 7.74053 40.8341 13.0141 39.2518C16.0862 38.3296 20.3666 40.9825 20.9234 38.1963V38.1984Z" fill="white"/>
</svg>
