<svg width="128" height="133" viewBox="0 0 128 133" fill="none" xmlns="http://www.w3.org/2000/svg">
<path d="M117.329 35.2765C115.814 34.8399 114.249 34.6314 112.671 34.5877C115.299 28.4449 115.547 21.7759 109.513 16.9378C105.395 13.6348 99.8418 12.9824 94.8267 14.2653C93.197 14.6824 91.6716 15.3372 90.2238 16.1496C89.9498 13.6105 89.3047 11.1224 88.0897 8.76273C85.0462 2.85274 78.593 -0.316878 72.0646 0.0250622C62.3642 0.534335 56.1292 6.68199 52.3824 14.4908C51.5603 13.385 50.6412 12.3495 49.5862 11.4182C44.6196 7.01908 37.4971 5.10809 31.3615 8.19283C26.3416 10.7174 23.2835 16.1326 22.3983 21.5503C21.843 24.9382 22.0855 28.2727 22.4832 31.6048C20.3467 30.7585 18.0622 30.3317 15.6032 30.5766C9.66891 31.1683 4.08389 34.9297 1.52297 40.3619C-2.70399 49.3324 2.4033 58.2641 10.2631 61.7732C8.94867 64.7197 9.15965 68.2386 11.0415 70.9983C14.3009 75.7758 19.2311 76.7119 23.9116 75.4605C33.03 85.7867 45.8419 92.3247 60.1718 93.1105C72.4017 93.7798 87.3258 89.4971 96.4733 80.4563C97.7611 80.8249 99.0997 81.0577 100.475 81.128C105.514 81.3875 110.733 79.0473 112.53 74.0637C113.403 71.6434 113.277 69.3177 112.578 67.1206C115.198 66.444 117.7 65.406 119.946 63.8346C124.881 60.3836 128.145 54.5415 127.976 48.4545C127.796 42.1056 123.31 36.991 117.334 35.2692L117.329 35.2765ZM93.7572 65.748C93.796 65.6655 93.8324 65.5806 93.8712 65.4982C93.8445 65.5952 93.813 65.6922 93.7839 65.7892C93.7766 65.7746 93.7669 65.7625 93.7596 65.748H93.7572Z" fill="#E3F4FE"/>
<path d="M93.8421 65.6267C93.8033 65.7092 93.7669 65.794 93.7281 65.8765C93.7354 65.891 93.7451 65.9056 93.7524 65.9177C93.7815 65.8207 93.813 65.7237 93.8421 65.6267Z" fill="#7A94A1"/>
<path d="M10.2412 61.6545C8.91712 64.5986 9.116 68.115 10.993 70.882C14.2378 75.6692 19.1656 76.6223 23.8509 75.383C32.9378 85.7358 45.7303 92.3127 60.0579 93.1421C72.2853 93.8478 87.2215 89.6112 96.3981 80.597C97.6859 80.9681 99.0221 81.2057 100.397 81.2809C105.437 81.555 110.66 79.2317 112.474 74.2529C113.355 71.8351 113.236 69.5094 112.542 67.3099C115.164 66.643 117.669 65.6099 119.919 64.0457C124.864 60.6093 128.148 54.7769 127.995 48.6899C127.946 46.7498 127.49 44.9261 126.717 43.277C117.858 53.9936 98.6753 70.3461 73.8689 73.1811C16.4883 79.7386 1.6418 40.3232 1.6418 40.3232L1.51326 40.3402C-2.63368 49.2549 2.43237 58.1357 10.2437 61.6545H10.2412ZM93.8421 65.6268C93.813 65.7238 93.7839 65.8208 93.7523 65.9178C93.7451 65.9033 93.7354 65.8888 93.7281 65.8766C93.7693 65.7942 93.8033 65.7093 93.8421 65.6268Z" fill="#C8E7F9"/>
<path d="M42.8299 43.1289C42.7159 39.8865 45.2501 37.1655 48.4925 37.0516C51.7349 36.9376 54.4559 39.4718 54.5698 42.7142C54.6838 45.9566 52.1496 48.6775 48.9072 48.7915C45.6648 48.9055 42.9439 46.3712 42.8299 43.1289Z" fill="white"/>
<path d="M45.1774 43.0465C45.1071 41.1016 46.63 39.4695 48.575 39.3992C50.5199 39.3313 52.152 40.8518 52.2223 42.7967C52.2902 44.7417 50.7697 46.3738 48.8248 46.4441C46.8798 46.512 45.2477 44.9915 45.1774 43.0465Z" fill="#14242B"/>
<path d="M49.3704 45.2484C49.3365 44.2759 50.0955 43.4586 51.068 43.4247C52.0405 43.3907 52.8577 44.1498 52.8917 45.1223C52.9256 46.0947 52.1665 46.912 51.1941 46.9459C50.2216 46.9799 49.4044 46.2208 49.3704 45.2484Z" fill="white"/>
<path d="M72.7679 42.0717C72.6539 38.8294 75.1881 36.1084 78.4305 35.9944C81.6729 35.8804 84.3938 38.4147 84.5078 41.6571C84.6218 44.8994 82.0876 47.6204 78.8452 47.7344C75.6028 47.8484 72.8819 45.3141 72.7679 42.0717Z" fill="white"/>
<path d="M75.1154 41.9867C75.0475 40.0418 76.568 38.4097 78.513 38.3393C80.4579 38.2714 82.09 39.792 82.1603 41.7369C82.2307 43.6819 80.7077 45.314 78.7628 45.3843C76.8178 45.4522 75.1857 43.9317 75.1154 41.9867Z" fill="#14242B"/>
<path d="M79.3084 44.191C79.2744 43.2185 80.0335 42.4013 81.006 42.3673C81.9784 42.3334 82.7957 43.0924 82.8297 44.0649C82.8636 45.0374 82.1046 45.8546 81.1321 45.8886C80.1596 45.9225 79.3423 45.1635 79.3084 44.191Z" fill="white"/>
<path d="M68.8902 57.129C69.0114 59.5735 67.3575 61.9186 64.7311 61.9574C62.1192 61.9938 60.2956 59.9615 60.2422 57.4346C60.2252 56.5833 58.9035 56.6294 58.9205 57.4806C58.9884 60.7036 61.4523 63.3955 64.7771 63.2766C68.102 63.1602 70.3695 60.301 70.2094 57.0805C70.1682 56.2317 68.8465 56.2753 68.8877 57.1266L68.8902 57.129Z" fill="#14242B"/>
<path d="M33.549 54.9198C33.4689 52.6499 35.2441 50.7462 37.5116 50.6662C39.7815 50.5861 41.6852 52.3613 41.7653 54.6288C41.8453 56.8987 40.0701 58.8024 37.8026 58.8825C35.5327 58.9625 33.629 57.1873 33.549 54.9174V54.9198Z" fill="#FFD1DC"/>
<path d="M87.27 53.3119C87.19 51.042 88.9652 49.1383 91.2351 49.0583C93.505 48.9782 95.4087 50.7534 95.4887 53.0209C95.5688 55.2908 93.7936 57.1945 91.5237 57.2745C89.2538 57.3546 87.3501 55.5794 87.27 53.3119Z" fill="#FFD1DC"/>
<path opacity="0.57" d="M44.0352 10.761C40.3636 8.20493 28.124 9.56056 25.6237 21.9917C23.1259 34.4228 53.675 17.4737 44.0352 10.761Z" fill="white"/>
<path opacity="0.57" d="M75.5058 3.18267C67.2265 1.71305 59.1533 6.1122 59.3401 11.3941C59.5268 16.676 83.6785 18.1747 84.6655 12.8492C85.6525 7.52361 80.8386 4.12846 75.5083 3.18024L75.5058 3.18267Z" fill="white"/>
<path opacity="0.57" d="M94.914 20.1294C95.9422 15.9801 103.552 15.1216 108.456 20.8254C113.359 26.5293 111.929 31.2825 107.656 31.4329C103.547 31.5784 93.5001 25.8309 94.914 20.1294Z" fill="white"/>
<path opacity="0.57" d="M19.5828 33.9596C15.9766 31.7358 5.53653 35.6329 7.48389 40.8518C9.43125 46.073 25.4127 37.5536 19.5828 33.9596Z" fill="white"/>
<path d="M64.1418 106.422C65.1458 106.737 66.1522 107.053 67.1562 107.368C66.2759 107.824 65.4028 108.299 64.5516 108.816C64.0666 109.109 64.5492 109.846 65.0342 109.553C65.8757 109.041 66.7366 108.573 67.6073 108.124C67.2823 109.039 66.9064 109.941 66.4796 110.826C66.2346 111.338 67.0155 111.743 67.2604 111.233C67.743 110.227 68.1626 109.204 68.5215 108.158C69.1036 109.143 69.6831 110.125 70.2652 111.11C70.5538 111.6 71.291 111.115 71.0024 110.627C70.5053 109.788 70.0105 108.947 69.5134 108.107C70.2433 108.335 70.9733 108.566 71.7033 108.794C72.2465 108.964 72.4308 108.103 71.8948 107.933C71.1042 107.685 70.3161 107.438 69.5255 107.191C70.3986 106.795 71.2789 106.417 72.181 106.08C72.7097 105.881 72.4381 105.045 71.9045 105.243C70.9345 105.607 69.9887 106.012 69.0502 106.441C69.3121 105.493 69.5231 104.528 69.6856 103.546C69.7777 102.986 68.9168 102.794 68.8247 103.354C68.6767 104.249 68.4851 105.125 68.2572 105.99C67.7139 105.071 67.1707 104.152 66.6275 103.233C66.3389 102.743 65.6017 103.228 65.8903 103.716C66.4553 104.671 67.0204 105.629 67.5854 106.584C66.499 106.243 65.4125 105.903 64.3261 105.561C63.7828 105.391 63.5985 106.252 64.1345 106.422H64.1418Z" fill="#ADCDDC"/>
<path d="M51.3202 97.3568C52.0356 97.8491 52.7534 98.3414 53.4688 98.8337C52.7219 98.8846 51.975 98.9331 51.228 98.9841C50.663 99.0229 50.8037 99.8935 51.3663 99.8547C52.3921 99.7868 53.4204 99.7164 54.4462 99.6485C53.692 100.577 52.9402 101.506 52.186 102.433C51.8271 102.874 52.5352 103.398 52.8917 102.959C53.6289 102.049 54.3661 101.142 55.1034 100.233C55.3653 101.133 55.6587 102.023 56.0128 102.901C56.2262 103.427 57.0313 103.07 56.8179 102.544C56.5682 101.926 56.3475 101.302 56.1462 100.674C56.847 101.157 57.5479 101.637 58.2488 102.12C58.7168 102.442 59.243 101.734 58.775 101.414C57.8656 100.791 56.9586 100.165 56.0492 99.5418C57.2714 99.4594 58.4937 99.3769 59.7159 99.2945C60.281 99.2557 60.1403 98.3875 59.5777 98.4239C58.5179 98.4942 57.4582 98.5669 56.3984 98.6372C56.8931 98.0261 57.3903 97.415 57.8874 96.8039C58.2463 96.3625 57.5358 95.8387 57.1817 96.2776C56.6264 96.9615 56.0734 97.643 55.5181 98.3268C55.2974 97.3422 55.1155 96.3455 55.004 95.3294C54.9409 94.7644 54.0703 94.905 54.1333 95.4676C54.2522 96.5274 54.4437 97.5678 54.6765 98.5985C53.7332 97.9509 52.7898 97.301 51.8465 96.6535C51.3784 96.331 50.8522 97.0391 51.3202 97.3592V97.3568Z" fill="#C8E7F9"/>
<path d="M93.2334 122.682C94.1816 122.454 95.1323 122.226 96.0805 121.998C95.7385 122.689 95.3966 123.378 95.0522 124.069C94.8364 124.506 95.5057 124.853 95.7215 124.416C96.0465 123.764 96.369 123.109 96.694 122.457C97.0578 123.267 97.4215 124.074 97.7853 124.884C97.9817 125.323 98.6996 125.09 98.5007 124.649C98.2 123.98 97.8993 123.31 97.5986 122.643C98.0666 122.903 98.5347 123.162 99.0003 123.422C99.4271 123.657 99.7715 122.988 99.3495 122.753C98.7044 122.396 98.0618 122.037 97.4167 121.681C98.1733 121.499 98.93 121.317 99.6866 121.135C100.157 121.021 99.9194 120.306 99.4513 120.42C98.7917 120.577 98.1321 120.737 97.4725 120.895C97.7659 120.301 98.0618 119.709 98.3552 119.115C98.5711 118.678 97.9017 118.332 97.6859 118.768C97.3658 119.413 97.0456 120.058 96.7255 120.703C96.3812 119.939 96.0368 119.176 95.6949 118.412C95.4984 117.973 94.7806 118.205 94.9795 118.647C95.3166 119.394 95.6512 120.141 95.9883 120.888C95.3335 120.524 94.6787 120.163 94.024 119.799C93.5971 119.564 93.2528 120.233 93.6772 120.468C94.2374 120.779 94.8 121.091 95.3602 121.402C94.572 121.591 93.7863 121.78 92.9981 121.969C92.5252 122.083 92.7653 122.799 93.2334 122.685V122.682Z" fill="#B5D6E7"/>
<path d="M36.1899 109.865C35.3072 109.514 34.4269 109.162 33.5441 108.81C33.0955 108.631 32.8845 109.351 33.3283 109.528C34.0583 109.819 34.7882 110.11 35.5182 110.401C34.7203 110.658 33.9176 110.903 33.1052 111.124C32.6396 111.25 32.8069 111.98 33.2725 111.854C34.1747 111.611 35.0671 111.335 35.9523 111.044C35.5351 111.755 35.0962 112.453 34.6136 113.13C34.3323 113.522 34.9725 113.91 35.2538 113.52C35.7898 112.773 36.2748 111.997 36.7259 111.204C37.0969 112.162 37.4486 113.127 37.7735 114.104C37.9239 114.56 38.6563 114.393 38.5035 113.937C38.1979 113.016 37.8657 112.109 37.5213 111.204C38.21 111.478 38.8988 111.752 39.5851 112.029C40.0337 112.208 40.2447 111.488 39.8009 111.311C39.0855 111.025 38.3701 110.741 37.6571 110.455C38.4574 110.159 39.2553 109.853 40.0434 109.519C40.4872 109.329 40.1283 108.672 39.6869 108.859C38.9691 109.164 38.244 109.443 37.5141 109.713C37.8681 108.987 38.2028 108.253 38.4938 107.494C38.666 107.043 37.9481 106.832 37.776 107.278C37.4922 108.017 37.1648 108.733 36.8156 109.439C36.4737 108.614 36.1196 107.794 35.7413 106.984C35.5376 106.545 34.8779 106.904 35.0817 107.341C35.4697 108.175 35.8334 109.019 36.1851 109.868L36.1899 109.865Z" fill="#B5D6E7"/>
<path d="M45.0659 128.968C46.0553 128.963 47.0472 128.958 48.0366 128.951C47.3843 129.492 46.7319 130.033 46.0795 130.574C45.7133 130.877 46.1184 131.505 46.487 131.199C47.0787 130.707 47.6728 130.217 48.2646 129.725C48.2718 130.375 48.2791 131.025 48.2888 131.675C48.2937 132.155 49.0406 132.116 49.0333 131.638C49.0236 130.899 49.0164 130.159 49.0067 129.419C49.6736 129.953 50.338 130.489 50.988 131.044C51.3517 131.357 51.8537 130.804 51.49 130.491C50.8716 129.962 50.2362 129.456 49.6032 128.944C50.4156 128.939 51.2281 128.934 52.0381 128.932C52.5182 128.929 52.4794 128.185 52.0017 128.187C51.3711 128.19 50.7406 128.195 50.1125 128.197C50.6315 127.765 51.1505 127.336 51.6694 126.904C52.0356 126.601 51.6306 125.973 51.262 126.279C50.5054 126.907 49.7487 127.533 48.9945 128.161C48.9848 127.275 48.9727 126.39 48.963 125.503C48.9581 125.023 48.2112 125.061 48.2185 125.539C48.2282 126.315 48.2379 127.091 48.2452 127.867C47.5152 127.305 46.7828 126.744 46.0335 126.206C45.6479 125.927 45.1434 126.478 45.5339 126.759C46.1887 127.229 46.824 127.719 47.4643 128.209C46.6543 128.214 45.8443 128.219 45.0319 128.221C44.5517 128.224 44.5905 128.968 45.0683 128.966L45.0659 128.968Z" fill="#B5D6E7"/>
<path d="M44.2874 96.7895C43.3246 96.6294 42.3618 96.4694 41.3991 96.3093C41.7895 96.9738 42.18 97.6383 42.5704 98.3028C42.8178 98.7223 42.1727 99.1152 41.9277 98.6981C41.5591 98.0699 41.1881 97.4419 40.8195 96.8113C40.5139 97.6431 40.2084 98.4774 39.9004 99.3092C39.7355 99.7603 39.0006 99.5808 39.1704 99.1249C39.4226 98.4361 39.6772 97.7474 39.9295 97.0587C39.4808 97.3497 39.0322 97.6407 38.5859 97.9342C38.1785 98.2009 37.7857 97.5558 38.1931 97.2915C38.8091 96.8889 39.4275 96.4888 40.0459 96.0862C39.2795 95.9577 38.5108 95.8316 37.742 95.703C37.2643 95.623 37.451 94.8931 37.9263 94.9731C38.5956 95.0846 39.265 95.1962 39.9343 95.3078C39.5997 94.7354 39.2626 94.1655 38.9279 93.5932C38.6805 93.1737 39.3256 92.7808 39.5705 93.1979C39.9343 93.8187 40.3005 94.4396 40.6643 95.0604C40.9529 94.2747 41.2414 93.4889 41.5325 92.7008C41.6974 92.2497 42.4297 92.4292 42.2624 92.8851C41.9787 93.6538 41.6974 94.4226 41.4136 95.1914C42.0417 94.7839 42.6674 94.3741 43.2955 93.9667C43.7029 93.6999 44.0958 94.345 43.6908 94.6093C43.1524 94.9585 42.6141 95.3102 42.0757 95.6594C42.8735 95.7928 43.6738 95.9262 44.4717 96.0571C44.9494 96.1371 44.7627 96.8671 44.2874 96.7871V96.7895Z" fill="#ADCDDC"/>
<path d="M86.1011 108.539C86.9572 108.127 87.8108 107.712 88.6669 107.3C89.101 107.089 89.3629 107.792 88.9312 108.001C88.2231 108.342 87.515 108.684 86.8093 109.026C87.6241 109.228 88.4414 109.414 89.2659 109.577C89.7388 109.669 89.6248 110.411 89.1495 110.316C88.2304 110.137 87.3234 109.926 86.4188 109.698C86.8844 110.377 87.3719 111.044 87.903 111.682C88.211 112.053 87.5999 112.485 87.2919 112.116C86.7026 111.408 86.1666 110.668 85.6598 109.909C85.3566 110.891 85.0729 111.878 84.8182 112.875C84.6994 113.341 83.9574 113.227 84.0786 112.759C84.3187 111.818 84.5855 110.889 84.8643 109.962C84.1974 110.285 83.5305 110.607 82.8636 110.93C82.4295 111.141 82.1676 110.438 82.5993 110.229C83.2928 109.895 83.984 109.56 84.6776 109.225C83.8579 108.988 83.0407 108.738 82.2307 108.459C81.7748 108.301 82.0876 107.62 82.5386 107.775C83.2759 108.027 84.0204 108.255 84.7649 108.473C84.3599 107.775 83.9743 107.067 83.6299 106.33C83.4262 105.891 84.1271 105.629 84.3308 106.065C84.6655 106.783 85.0438 107.474 85.4415 108.153C85.7253 107.307 86.0211 106.465 86.3412 105.629C86.5134 105.178 87.1948 105.488 87.0251 105.937C86.6953 106.795 86.3922 107.663 86.1011 108.534V108.539Z" fill="#ADCDDC"/>
<path d="M57.8219 112.276C56.8349 112.342 55.8455 112.405 54.8584 112.47C55.5472 112.965 56.2359 113.457 56.9271 113.952C57.3127 114.229 56.9562 114.883 56.5633 114.604C55.9376 114.156 55.3119 113.707 54.6863 113.258C54.7251 113.908 54.7639 114.556 54.8002 115.206C54.8293 115.686 54.0824 115.701 54.0533 115.223C54.0097 114.483 53.966 113.746 53.9224 113.006C53.2967 113.586 52.6686 114.165 52.0599 114.767C51.7179 115.104 51.1796 114.587 51.5215 114.25C52.1011 113.678 52.6977 113.128 53.2943 112.575C52.4843 112.628 51.6743 112.681 50.8643 112.735C50.3841 112.766 50.3696 112.019 50.8498 111.988C51.4779 111.946 52.1084 111.905 52.7365 111.864C52.1884 111.471 51.6403 111.078 51.0898 110.685C50.7042 110.409 51.0632 109.754 51.4536 110.033C52.2515 110.605 53.0518 111.178 53.8496 111.75C53.7987 110.865 53.7453 109.982 53.6944 109.097C53.6653 108.617 54.4122 108.602 54.4413 109.082C54.4874 109.856 54.5335 110.632 54.5771 111.408C55.2659 110.795 55.957 110.186 56.6652 109.594C57.0314 109.291 57.5722 109.803 57.2035 110.111C56.5851 110.625 55.9837 111.161 55.3823 111.694C56.1898 111.641 56.9998 111.588 57.8074 111.537C58.2876 111.505 58.3021 112.252 57.8244 112.284L57.8219 112.276Z" fill="#ADCDDC"/>
<path d="M94.8097 94.5122C93.8203 94.5777 92.8333 94.6407 91.8462 94.7062C92.535 95.2009 93.2237 95.6932 93.9149 96.188C94.3005 96.4644 93.9415 97.1192 93.5511 96.8403C92.9254 96.3917 92.2997 95.943 91.6741 95.4944C91.7129 96.1443 91.7492 96.7918 91.788 97.4417C91.8171 97.9219 91.0702 97.9365 91.0411 97.4587C90.9975 96.7191 90.9538 95.9818 90.9101 95.2422C90.2845 95.8218 89.6564 96.4014 89.0477 97.0028C88.7057 97.3399 88.1673 96.8233 88.5093 96.4863C89.0889 95.9139 89.6879 95.3634 90.282 94.8105C89.4721 94.8639 88.6621 94.9172 87.8521 94.9706C87.3719 95.0021 87.3574 94.2551 87.8351 94.2236C88.4632 94.1824 89.0937 94.1412 89.7218 94.0999C89.1738 93.7071 88.6257 93.3142 88.0752 92.9213C87.6896 92.6449 88.0485 91.9901 88.439 92.269C89.2368 92.8413 90.0371 93.4136 90.835 93.986C90.7841 93.1008 90.7307 92.2181 90.6798 91.3329C90.6507 90.8527 91.3976 90.8382 91.4267 91.3159C91.4728 92.092 91.5189 92.8656 91.5625 93.6416C92.2512 93.028 92.9424 92.4193 93.6505 91.8276C94.0167 91.5245 94.5575 92.0362 94.1889 92.3442C93.5705 92.8583 92.9691 93.3942 92.3652 93.9278C93.1728 93.8744 93.9828 93.8211 94.7903 93.7701C95.2705 93.7386 95.2851 94.4855 94.8073 94.5171L94.8097 94.5122Z" fill="#ADCDDC"/>
<path d="M73.4736 96.6682C74.6037 96.9714 75.7314 97.2745 76.8615 97.5752C75.9496 97.9875 75.0378 98.4022 74.1259 98.8144C73.6142 99.0448 73.8786 99.8863 74.3951 99.6535C75.2245 99.2776 76.0515 98.9042 76.8809 98.5283C76.6869 99.2704 76.4928 100.015 76.2988 100.757C76.1558 101.307 77.0167 101.494 77.1598 100.946C77.3804 100.1 77.6011 99.2558 77.8218 98.4094C78.4135 99.2267 79.0053 100.042 79.5727 100.876C79.8904 101.346 80.6349 100.873 80.3148 100.403C79.7765 99.6075 79.209 98.8314 78.6488 98.053C79.5752 98.3003 80.5016 98.5501 81.4279 98.7975C81.976 98.9454 82.1652 98.0845 81.6195 97.9366C80.9017 97.745 80.1814 97.551 79.4636 97.3594C80.1887 97.032 80.9163 96.7022 81.6414 96.3748C82.1531 96.1444 81.8887 95.3029 81.3722 95.5357C80.3148 96.0134 79.2575 96.4936 78.2025 96.9714C78.4669 95.9601 78.7312 94.9464 78.9956 93.9351C79.1386 93.3846 78.2777 93.1979 78.1347 93.7435C77.9018 94.6311 77.6715 95.5163 77.4411 96.4039C76.7863 95.5357 76.1267 94.6699 75.4404 93.8211C75.0863 93.3846 74.3418 93.8551 74.6983 94.294C75.2973 95.0337 75.8696 95.7903 76.4443 96.547C75.5204 96.2996 74.5964 96.0522 73.67 95.8049C73.1219 95.657 72.9328 96.5179 73.4809 96.6658L73.4736 96.6682Z" fill="#ADCDDC"/>
<path d="M66.0649 119.852C67.195 120.155 68.3251 120.459 69.4527 120.759C68.5409 121.172 67.6291 121.586 66.7172 121.999C66.2055 122.229 66.4699 123.07 66.9864 122.838C67.8158 122.462 68.6428 122.088 69.4721 121.712C69.2781 122.454 69.0841 123.199 68.8901 123.941C68.7471 124.492 69.608 124.678 69.751 124.133C69.9717 123.286 70.1924 122.442 70.4131 121.596C71.0048 122.413 71.5966 123.228 72.164 124.062C72.4817 124.533 73.2262 124.06 72.9061 123.589C72.3677 122.794 71.8003 122.018 71.2376 121.239C72.164 121.487 73.0904 121.737 74.0168 121.984C74.5649 122.132 74.754 121.271 74.2084 121.123C73.4906 120.931 72.7703 120.737 72.0525 120.546C72.7776 120.216 73.5051 119.889 74.2302 119.559C74.7419 119.328 74.4776 118.487 73.961 118.72C72.9037 119.198 71.8463 119.678 70.7914 120.155C71.0558 119.144 71.3201 118.13 71.5844 117.119C71.7275 116.569 70.8666 116.382 70.7235 116.928C70.4907 117.815 70.2603 118.7 70.0299 119.588C69.3727 118.72 68.7155 117.854 68.0292 117.005C67.6751 116.569 66.9306 117.039 67.2871 117.478C67.8861 118.218 68.4585 118.974 69.0332 119.731C68.1092 119.484 67.1853 119.236 66.2589 118.989C65.7108 118.841 65.5217 119.702 66.0673 119.85L66.0649 119.852Z" fill="#ADCDDC"/>
</svg>
