<svg width="55" height="66" viewBox="0 0 55 66" fill="none" xmlns="http://www.w3.org/2000/svg">
<path d="M54.8871 35.489C54.2492 31.6037 53.6113 27.7149 52.97 23.8296C52.796 22.7721 51.9739 21.7146 50.8209 22.0591C47.7372 22.9836 44.6467 23.891 41.5561 24.8018C40.8193 25.0201 40.0859 25.235 39.3491 25.4533C39.1478 25.5113 38.7999 25.5693 38.544 25.6375C38.527 25.1429 38.4553 24.6107 38.4485 24.198C38.4349 23.3554 38.4246 22.5094 38.4178 21.6669C38.3701 15.2265 38.5099 8.77934 38.8374 2.34582C38.9056 1.02227 37.7629 -0.710614 36.3847 0.305923C29.8694 5.12936 24.4694 11.3173 20.9354 18.6514C20.0451 20.4968 19.3049 22.3832 18.5749 24.2935C17.8995 26.0571 17.0432 27.5444 15.498 28.6803C14.0891 29.7173 12.4381 30.3927 10.9167 31.2421C10.446 31.5048 10.0025 31.7947 9.57952 32.1085C9.23499 32.2996 8.89388 32.5008 8.56299 32.7157C6.43782 34.0905 3.20059 36.0485 4.58213 39.0196C5.20638 40.3568 6.45829 40.4523 7.76478 40.5308C9.24525 40.6195 10.7223 40.6843 12.2027 40.7457C13.0794 40.7798 13.9561 40.8173 14.8362 40.8515C16.245 41.329 17.4628 42.0795 18.5919 43.0551C20.9764 45.1189 22.6956 47.7762 24.5172 50.3209C28.9142 56.4645 34.4028 61.5301 40.9012 65.3814C41.5527 65.7669 42.3271 65.1324 42.6511 64.6275C43.1696 63.8157 43.1799 62.8435 43.0502 61.9258C41.9894 54.3359 41.041 46.7324 40.2087 39.1152C44.5478 38.5932 48.9141 38.5318 53.2736 38.9344C54.8666 39.081 55.044 36.4271 54.8905 35.4925L54.8871 35.489Z" fill="#FFD1DC"/>
<path d="M10.4391 37.1435C11.9503 37.1435 11.9537 34.7932 10.4391 34.7932C8.92455 34.7932 8.92455 37.1435 10.4391 37.1435Z" fill="#14242B"/>
<path d="M0.880946 40.5036C2.30683 39.7019 3.76342 38.9719 5.26094 38.317C4.96757 38.1464 4.67079 37.9793 4.37743 37.8087C4.38766 38.2044 4.39791 38.5967 4.41155 38.9924C4.55482 38.8048 4.69809 38.6138 4.84137 38.4262C3.51782 38.74 2.19427 39.0538 0.870723 39.3676C0.133904 39.5416 0.447729 40.6741 1.18455 40.5002C2.50809 40.1863 3.83164 39.8725 5.15519 39.5587C5.4008 39.5007 5.59183 39.2414 5.585 38.9924C5.57477 38.5967 5.56452 38.2044 5.55088 37.8087C5.53724 37.3278 5.06991 37.1231 4.66739 37.3005C3.16987 37.9588 1.71328 38.6854 0.2874 39.487C-0.370961 39.8589 0.219173 40.872 0.880946 40.5002V40.5036Z" fill="#FFD521"/>
<path d="M22.9002 26.1936C23.6098 23.5397 24.6434 20.9915 26.0385 18.6207C27.4746 16.1851 29.3576 14.2851 31.1724 12.1565C31.3907 11.9007 31.2816 11.041 30.8449 11.3617C28.6174 13.0025 26.8163 15.7212 25.4689 18.0954C24.0771 20.5446 23.0742 23.1747 22.4568 25.9207C22.3885 26.2175 22.7911 26.6098 22.9002 26.1902V26.1936Z" fill="#A7BED3"/>
<path d="M26.0966 26.2038C27.5259 22.7551 29.7363 20.1558 32.322 17.5292C32.5574 17.2904 32.4107 16.4853 32.015 16.7821C29.0711 18.9584 26.963 22.4788 25.6667 25.8423C25.5439 26.1629 25.9089 26.6575 26.0966 26.2072V26.2038Z" fill="#A7BED3"/>
<path d="M29.5726 26.173C30.4697 24.1706 32.015 22.9767 33.7342 21.7316C33.9799 21.5542 33.8741 20.7969 33.492 20.9368C31.4078 21.7111 29.9546 23.867 29.1973 25.8558C29.0916 26.1355 29.3986 26.5653 29.5726 26.173Z" fill="#A7BED3"/>
<path d="M38.9363 29.997C40.6453 29.7685 42.3338 29.4546 43.9951 28.9873C45.7075 28.5063 47.6655 28.0015 49.1801 27.0498C49.4564 26.8758 49.4326 26.1594 49.0164 26.2584C47.3858 26.637 45.8133 27.425 44.2066 27.923C42.4669 28.462 40.6965 28.9361 38.9192 29.325C38.6327 29.3864 38.6395 30.038 38.9363 29.997Z" fill="#A7BED3"/>
<path d="M38.9158 32.7804C42.1565 32.6918 46.0384 32.0061 48.9209 30.4574C49.2279 30.2937 49.1699 29.5193 48.7503 29.6353C47.1743 30.0617 45.6666 30.6996 44.0736 31.0885C42.3646 31.5047 40.6385 31.74 38.8954 31.9686C38.5406 32.0163 38.5508 32.7907 38.9158 32.7804Z" fill="#A7BED3"/>
<path d="M39.2672 35.1786C41.0888 35.2298 42.9138 35.1274 44.7319 35.066C46.5399 35.008 48.399 35.0456 50.1933 34.7931C50.5685 34.7385 50.5583 33.9574 50.1728 33.9335C48.3649 33.8209 46.5194 34.012 44.7081 34.0972C42.8899 34.1825 41.0581 34.2269 39.2501 34.4213C38.9158 34.4588 38.9295 35.1649 39.2672 35.1752V35.1786Z" fill="#A7BED3"/>
<path d="M24.698 41.6769C26.3626 46.2683 29.2587 50.8462 33.127 53.8958C33.5125 54.1994 33.6319 53.3705 33.3965 53.1385C29.8591 49.6318 27.021 45.9409 25.0937 41.3085C24.9129 40.8684 24.5888 41.3767 24.698 41.6769Z" fill="#A7BED3"/>
<path d="M29.1803 43.4848C30.3094 46.6641 32.3425 49.7273 35.3136 51.4534C35.6479 51.6478 35.7161 50.853 35.5081 50.6825C32.9326 48.5846 30.7904 46.2445 29.6067 43.0857C29.4293 42.6116 29.0643 43.1574 29.1803 43.4848Z" fill="#A7BED3"/>
<path d="M32.3527 42.7856C32.8541 44.3104 33.9014 45.941 35.2386 46.862C35.682 47.169 35.7537 46.3026 35.5251 46.0569C34.4404 44.8869 33.55 43.7851 32.803 42.366C32.5471 41.8782 32.2435 42.4513 32.3561 42.7856H32.3527Z" fill="#A7BED3"/>
</svg>
