<svg width="115" height="113" viewBox="0 0 115 113" fill="none" xmlns="http://www.w3.org/2000/svg">
<path d="M65.3537 16.3136C64.6415 11.5345 65.9244 6.82732 68.8978 3.03137C68.2432 2.79637 67.5886 2.56137 66.9339 2.32637C66.9291 6.93523 65.8237 11.3882 63.5696 15.4192C64.2242 15.6542 64.8789 15.8892 65.5336 16.1242C65.6822 12.1891 66.6126 8.44114 68.3008 4.88738C68.8978 3.63085 66.8572 2.90667 66.2649 4.156C64.4976 7.87522 63.5313 11.8486 63.3754 15.9611C63.337 16.9371 64.783 17.6612 65.3393 16.6661C67.7828 12.2946 69.0873 7.50594 69.0921 2.48943C69.0921 1.42234 67.8092 0.916373 67.1282 1.78443C63.8022 6.03359 62.4306 11.381 63.2243 16.7093C63.4305 18.0881 65.5575 17.6924 65.3513 16.3136H65.3537Z" fill="#FFF9C4"/>
<path d="M78.1347 20.0592C79.6191 14.014 83.1608 8.85359 88.2733 5.30223C87.7026 4.90417 87.1319 4.5037 86.5612 4.10564C84.4677 9.525 81.2569 14.3665 77.0605 18.3878C77.6312 18.7859 78.2019 19.1863 78.7726 19.5844C80.0987 15.5175 82.3839 11.9733 85.5684 9.11256C86.6043 8.18215 85.2183 6.52038 84.18 7.45318C80.7198 10.5609 78.1803 14.4288 76.7368 18.853C76.4226 19.8146 77.636 20.8265 78.4489 20.0496C82.9234 15.7597 86.3621 10.6233 88.597 4.84181C89.0119 3.76753 87.7121 3.07213 86.8848 3.64524C81.5038 7.38364 77.6623 12.9661 76.0989 19.3302C75.7704 20.6683 77.8014 21.4164 78.1347 20.0616V20.0592Z" fill="#FFE5B4"/>
<path d="M52.9468 16.3304C51.5536 11.3378 51.3593 6.22062 52.364 1.13697C51.6495 1.17534 50.9349 1.2137 50.2203 1.25207C51.1579 6.32133 51.4312 11.4338 51.0452 16.5726C50.9397 17.9586 53.0978 18.1312 53.2033 16.738C53.6038 11.4218 53.3185 6.10072 52.3473 0.858804C52.1099 -0.428894 50.4289 -0.167523 50.2035 0.973901C49.1676 6.21821 49.381 11.58 50.8174 16.7284C51.1891 18.0593 53.3209 17.678 52.9444 16.3328L52.9468 16.3304Z" fill="#FFE5B4"/>
<path d="M41.3167 18.5653C39.3983 16.6205 38.1418 14.2681 37.6382 11.58C37.0076 11.8774 36.3769 12.1747 35.7439 12.4721C37.866 14.4384 39.2472 16.9059 39.746 19.7594C39.9858 21.1311 42.1152 20.7402 41.873 19.3638C41.3143 16.1817 39.7748 13.2826 37.4032 11.0837C36.6623 10.3979 35.2907 10.8103 35.5089 11.9757C36.0748 15.0019 37.4919 17.7596 39.6549 19.9561C40.6285 20.944 42.2927 19.5604 41.3143 18.5677L41.3167 18.5653Z" fill="#FFF9C4"/>
<path d="M89.2517 29.2913C91.9038 25.2531 95.9947 22.5506 100.752 21.7162C100.393 21.1526 100.03 20.5915 99.6708 20.028C96.5918 23.4667 92.7047 25.9629 88.3429 27.4497C88.7289 28.0515 89.1126 28.6558 89.4987 29.2577C92.2348 26.4233 95.424 24.234 99.0617 22.7161C100.349 22.179 99.4238 20.2222 98.1409 20.7594C94.3498 22.3396 90.9638 24.6417 88.1103 27.5983C87.2422 28.4976 88.0815 29.8116 89.2661 29.4064C94.0044 27.7902 98.1073 24.9966 101.44 21.2749C102.1 20.5364 101.21 19.4381 100.359 19.5868C95.0715 20.5148 90.4315 23.553 87.4844 28.0419C86.7194 29.2049 88.4892 30.4543 89.2541 29.2889L89.2517 29.2913Z" fill="#FFF9C4"/>
<path d="M95.1026 41.5448C99.5292 38.8567 104.416 37.2861 109.581 36.888C109.361 36.207 109.143 35.526 108.922 34.8449C104.294 37.1134 99.4405 38.7584 94.388 39.7679C93.0236 40.0413 93.4145 42.1683 94.7837 41.8949C100.011 40.8518 105.059 39.1469 109.845 36.8017C111.008 36.231 110.368 34.6675 109.186 34.7586C103.86 35.1687 98.7475 36.8161 94.1818 39.5857C93.0021 40.3027 93.9132 42.2666 95.1026 41.5424V41.5448Z" fill="#FFE5B4"/>
<path d="M97.5414 53.1628C100.083 52.1245 102.718 51.9279 105.404 52.4674C105.277 51.7816 105.152 51.0958 105.025 50.41C102.385 51.6281 99.5964 51.8967 96.762 51.2924C95.4072 51.0023 95.2513 53.1628 96.5965 53.4506C99.7762 54.1292 103.001 53.7287 105.949 52.3667C107.018 51.8727 106.558 50.5083 105.57 50.3093C102.529 49.6978 99.4861 50.0359 96.6205 51.2061C95.328 51.7337 96.2561 53.688 97.5414 53.1628Z" fill="#FFF9C4"/>
<path d="M17.5291 15.9683C23.3321 17.8051 28.2718 21.6227 31.418 26.8502C31.8664 26.3562 32.3148 25.8646 32.7632 25.3707C27.4949 22.9248 22.8933 19.371 19.1596 14.9228C18.7616 15.4935 18.3611 16.0642 17.9631 16.6349C21.9365 18.2272 25.3008 20.769 27.9433 24.1333C28.8066 25.2316 30.4636 23.8384 29.6027 22.7449C26.7276 19.0856 23.0132 16.328 18.6945 14.5991C17.6849 14.1938 16.8241 15.5079 17.4979 16.3112C21.4857 21.0615 26.4063 24.7952 32.0294 27.4065C32.8471 27.7854 33.8471 26.7135 33.3747 25.927C29.9336 20.2079 24.6366 15.9491 18.2604 13.9301C16.9367 13.5104 16.1982 15.5439 17.5291 15.9659V15.9683Z" fill="#FFE5B4"/>
<path d="M73.4828 92.0911C76.6169 95.7696 78.0413 100.46 77.5089 105.261C78.1948 105.134 78.8805 105.009 79.5663 104.882C77.1348 100.971 75.7033 96.5777 75.497 91.9641C74.8112 92.0912 74.1254 92.2158 73.4396 92.3429C75.394 95.7648 76.5929 99.4432 77.0293 103.359C77.1828 104.743 79.3098 104.345 79.1563 102.963C78.7031 98.8821 77.4346 94.9879 75.3963 91.4197C74.9239 90.5924 73.2861 90.6116 73.3389 91.7986C73.5619 96.7911 74.9647 101.551 77.6072 105.803C78.1588 106.687 79.5376 106.575 79.6647 105.424C80.257 100.086 78.6216 94.7864 75.1397 90.7003C74.2357 89.6381 72.5763 91.0288 73.4804 92.0887L73.4828 92.0911Z" fill="#FFF9C4"/>
<path d="M60.5435 93.9591C62.4306 99.7598 62.0566 105.999 59.6442 111.582C60.3372 111.637 61.0326 111.694 61.7256 111.75C60.6466 106.045 60.8072 100.232 62.2484 94.6042C61.5554 94.549 60.86 94.4915 60.167 94.4363C61.1861 98.5848 61.1309 102.815 59.932 106.918C59.5435 108.249 61.577 108.989 61.9678 107.649C63.2723 103.184 63.4066 98.5584 62.294 94.0383C62.0614 93.0887 60.4979 92.7506 60.2125 93.8704C58.673 99.8773 58.4453 106.047 59.5987 112.143C59.8073 113.241 61.2676 113.27 61.6801 112.311C64.3346 106.167 64.5672 99.3809 62.5002 93.0335C62.0685 91.7123 60.1166 92.6475 60.5435 93.9543V93.9591Z" fill="#FFE5B4"/>
<path d="M83.4607 85.0796C87.7194 87.83 91.2468 91.4653 93.8102 95.8464C94.3449 95.3979 94.8773 94.9495 95.412 94.5011C91.3523 91.3286 87.765 87.6694 84.65 83.5665C83.806 82.4538 82.1513 83.8494 82.9906 84.9549C86.2159 89.204 89.9639 92.9856 94.1651 96.2684C94.99 96.9134 96.316 95.8608 95.7669 94.9232C93.014 90.2184 89.2901 86.2713 84.7076 83.3099C83.5398 82.5545 82.2905 84.3218 83.4607 85.0796Z" fill="#FFE5B4"/>
<path d="M91.6208 75.5957C94.2802 76.2599 96.5582 77.5524 98.4262 79.5666C98.7308 78.9743 99.0353 78.3844 99.3375 77.7922C96.611 77.2406 94.2418 75.8522 92.3786 73.7972C91.4434 72.7661 89.7816 74.1521 90.7192 75.1856C93.0044 77.7058 95.8436 79.2765 99.172 79.9479C100.09 80.1325 100.68 78.8161 100.083 78.1758C97.9658 75.8954 95.376 74.3127 92.3498 73.5574C91.0118 73.2241 90.266 75.2551 91.6184 75.5933L91.6208 75.5957Z" fill="#FFF9C4"/>
<path d="M45.2685 91.7578C45.1366 96.5777 43.1224 101.024 39.5254 104.249C40.1153 104.553 40.7076 104.858 41.2999 105.16C42.108 100.613 44.0695 96.4674 46.9854 92.8969C46.3524 92.566 45.7169 92.2375 45.0839 91.9065C44.2518 95.7529 42.7075 99.2922 40.4247 102.501C39.6142 103.637 41.3862 104.882 42.1943 103.748C44.5827 100.393 46.2517 96.6641 47.1221 92.6379C47.3739 91.4725 46.0358 90.6476 45.2205 91.6475C42.048 95.5298 40.0218 100.064 39.1442 104.995C38.9787 105.92 40.2616 106.496 40.9186 105.906C44.9304 102.306 47.2828 97.3139 47.4291 91.9185C47.4675 90.5325 45.3093 90.3551 45.2709 91.7531L45.2685 91.7578Z" fill="#FFF9C4"/>
<path d="M113.677 64.9248C107.644 66.4595 101.424 65.7377 95.8868 62.9009C95.8316 63.5939 95.7741 64.2893 95.7189 64.9823C101.486 64.2797 107.267 64.8576 112.788 66.6681C112.843 65.9751 112.9 65.2797 112.955 64.5867C108.74 65.33 104.541 64.9608 100.52 63.4956C99.2104 63.0184 98.4766 65.0543 99.7883 65.5315C104.16 67.1237 108.771 67.5218 113.351 66.7137C114.392 66.529 114.548 64.968 113.519 64.6322C107.627 62.7019 101.476 62.1072 95.3233 62.8554C94.1339 62.9992 94.3041 64.5028 95.1554 64.9368C100.99 67.927 107.723 68.668 114.073 67.0518C115.416 66.7113 115.032 64.5795 113.677 64.9248Z" fill="#FFE5B4"/>
<path d="M18.5314 66.8072C14.1575 69.5816 9.30647 71.253 4.15088 71.7542C4.3715 72.4352 4.58971 73.1162 4.81032 73.7972C9.3928 71.44 14.2103 69.6919 19.2436 68.5841C20.6008 68.2843 20.2124 66.155 18.8479 66.4571C13.642 67.6033 8.62786 69.4018 3.88952 71.8405C2.76008 72.4208 3.34278 73.9987 4.54895 73.8836C9.8652 73.368 14.9464 71.6271 19.457 68.7663C20.62 68.0302 19.7088 66.0638 18.5362 66.8096L18.5314 66.8072Z" fill="#FFE5B4"/>
<path d="M17.6274 54.5968C15.1023 55.6855 12.4814 55.9469 9.78128 55.4577C9.90837 56.1435 10.0331 56.8293 10.1601 57.5151C12.7763 56.2442 15.5531 55.9085 18.4043 56.46C19.7687 56.7238 19.9246 54.5632 18.5698 54.3019C15.3805 53.6856 12.1576 54.1412 9.23934 55.5584C8.20103 56.062 8.59911 57.4312 9.61824 57.6158C12.6684 58.1674 15.7114 57.7789 18.5506 56.5535C19.8311 56.002 18.9079 54.0453 17.6298 54.5968H17.6274Z" fill="#FFF9C4"/>
<path d="M23.1067 32.0681C20.4402 31.459 18.1237 30.2169 16.2174 28.241C15.9128 28.8333 15.6083 29.4232 15.3062 30.0155C18.0422 30.5118 20.4426 31.8379 22.3489 33.857C23.3033 34.8665 24.9651 33.4829 24.0083 32.4686C21.6751 29.9939 18.8143 28.464 15.4716 27.8573C14.5676 27.6942 13.9393 28.9891 14.5604 29.6294C16.7258 31.8691 19.3323 33.4062 22.3777 34.104C23.7182 34.4109 24.4663 32.3774 23.1091 32.0681H23.1067Z" fill="#FFF9C4"/>
<path d="M1.2254 43.1682C7.22746 41.516 13.4597 42.1011 19.0517 44.8324C19.1069 44.1394 19.1644 43.444 19.2196 42.751C13.4669 43.5663 7.67588 43.1131 2.11983 41.4129C2.06468 42.1059 2.00711 42.8013 1.95196 43.4944C6.15076 42.6671 10.3568 42.9452 14.4069 44.3288C15.7234 44.7797 16.4595 42.7438 15.1383 42.293C10.738 40.7871 6.11961 40.4681 1.55632 41.3674C0.541986 41.5664 0.333347 43.1251 1.38844 43.4488C7.31617 45.264 13.4765 45.7484 19.6153 44.878C20.7783 44.7125 20.6655 43.2258 19.7831 42.7966C13.8937 39.9238 7.14593 39.3027 0.827333 41.0413C-0.503528 41.4081 -0.124647 43.5399 1.223 43.1682H1.2254Z" fill="#FFE5B4"/>
<path d="M23.9388 77.7706C22.3297 79.9911 20.2052 81.5714 17.6393 82.5257C18.0878 83.0605 18.5362 83.5928 18.9846 84.1276C20.5792 81.7033 22.7973 79.9791 25.5262 79.0008C26.8379 78.5308 25.9051 76.5764 24.603 77.044C21.5504 78.1375 18.9966 80.1734 17.2149 82.8807C16.5938 83.8255 17.565 84.8518 18.5602 84.4825C21.4593 83.4058 23.8932 81.5186 25.706 79.0176C26.5237 77.8881 24.7541 76.6436 23.9364 77.7706H23.9388Z" fill="#FFF9C4"/>
<path d="M32.557 85.7893C30.2597 90.3071 26.9386 94.1342 22.8597 97.1292C23.3848 97.6136 23.9124 98.098 24.4375 98.5824C27.1736 94.2181 30.418 90.2519 34.178 86.7269C35.1923 85.7773 33.8063 84.1132 32.7896 85.0676C28.8977 88.7148 25.5022 92.8129 22.6702 97.3354C22.0108 98.3857 23.2529 99.52 24.2481 98.7886C28.6555 95.5514 32.1181 91.3885 34.5928 86.5207C35.2211 85.2834 33.1804 84.5616 32.557 85.7893Z" fill="#FFE5B4"/>
<path d="M71.6508 22.9367C53.9731 15.6781 24.085 23.9343 23.1163 56.2394C22.1787 87.4991 64.301 98.2467 81.4895 80.2836C96.2728 64.8361 99.4837 34.3629 71.6484 22.9343L71.6508 22.9367Z" fill="#F7F795"/>
<path d="M39.9139 51.0526C38.4583 52.6401 39.0266 55.3498 40.9474 56.3137C43.1008 57.3976 45.3884 55.4937 45.5707 53.3043C45.7721 50.8848 43.1463 49.1127 40.9474 50.1127C38.8684 51.0598 38.8252 54.2467 40.8755 55.2706C43.3118 56.4912 45.7457 52.9015 43.7314 51.0934C43.2686 50.6786 42.3286 50.6354 42.0313 51.3116C41.5853 52.3332 41.6836 53.3906 42.5085 54.194C42.9641 54.64 43.5708 54.5584 44.0384 54.194C44.7745 53.6208 45.0575 52.5634 44.7146 51.6953C44.3141 50.6834 42.9665 50.386 42.0409 50.8224C40.1681 51.7049 41.4246 54.7191 43.3214 54.4697C43.9065 54.393 44.3957 54.0285 44.4029 53.3882C44.4077 52.8631 43.8993 52.23 43.3214 52.3068C43.1223 52.3092 43.0864 52.3236 43.2207 52.3499C43.3094 52.3931 43.3214 52.3763 43.2542 52.2996C43.012 52.5634 42.8058 52.6785 43.1248 52.9182C42.9593 52.7024 42.7938 52.4866 42.6284 52.2708C42.7291 52.5298 42.7291 52.4914 42.5085 52.6641H44.0384C43.988 52.6137 43.8561 52.5058 43.8993 52.4027C43.3334 52.4746 42.7675 52.549 42.1992 52.6209C42.3143 52.724 42.3622 52.6305 42.3047 52.8775C42.2783 52.9902 42.1871 53.2324 42.0625 53.2923C41.7891 53.4218 41.6332 53.1988 41.5517 52.923C41.2184 51.8128 42.7866 51.7624 43.2686 52.477C43.7386 53.1724 43.0744 54.5704 42.1728 54.4601C41.4126 54.3666 40.9186 53.1485 41.4414 52.5777C42.3814 51.5538 40.8539 50.0191 39.9115 51.0478L39.9139 51.0526Z" fill="#1F2020"/>
<path d="M74.4444 50.4028C72.8354 48.3909 69.8523 50.175 69.8619 52.4147C69.8739 54.9325 72.6531 56.1699 74.5883 54.6256C76.6049 53.0166 75.9598 49.7338 73.3964 49.1247C71.1088 48.5828 69.3295 51.2853 70.5861 53.2228C72.1759 55.6759 76.1373 52.9375 74.5283 50.6019C74.0415 49.8945 73.1519 49.9256 72.6603 50.6019C71.9074 51.6354 71.7227 52.9662 72.116 54.1772C72.5452 55.4961 74.6362 54.9301 74.2022 53.6017C73.9696 52.8871 74.0895 52.2972 74.5283 51.6953H72.6603C72.797 51.8943 72.761 51.7097 72.6819 51.8224C72.6243 51.9063 72.5188 52.0406 72.4037 52.0478C72.3701 52.0478 72.4277 52.1006 72.3702 51.9999C72.327 51.9231 72.3342 51.808 72.3414 51.7217C72.4253 50.7289 73.6723 51.4507 73.6818 52.1461C73.6914 52.8607 72.5404 53.6616 72.1232 52.8319C71.8498 52.2876 72.3797 51.2637 72.9169 51.9351C73.2837 52.3955 74.0631 52.3116 74.4468 51.9351C74.9024 51.4891 74.8089 50.8584 74.4468 50.4052L74.4444 50.4028Z" fill="#1F2020"/>
<path d="M51.7789 63.8025C52.0379 67.1429 54.8603 70.054 58.3301 69.9221C61.7784 69.7902 64.3826 66.5841 64.3274 63.2606C64.3154 62.5652 63.2339 62.5628 63.2459 63.2606C63.2915 66.0086 61.1957 68.6895 58.3301 68.8406C55.4838 68.9917 53.0738 66.5434 52.8628 63.8025C52.8101 63.1119 51.7262 63.1071 51.7813 63.8025H51.7789Z" fill="#1F2020"/>
<path d="M35.0509 63.0496C33.8807 64.9488 34.7104 67.5722 36.7894 68.4258C38.9811 69.3275 41.7028 68.0517 42.4581 65.8145C43.2854 63.3662 41.3719 61.1433 38.9451 60.8867C36.4896 60.6277 34.0677 62.5317 34.3771 65.1311C34.6504 67.4283 37.1443 68.8023 39.2593 68.0158C41.3863 67.2245 42.7939 64.1431 40.4319 62.7235C38.9236 61.8171 35.0605 62.347 35.8326 64.8673C36.4321 66.8264 39.8084 66.7017 40.4558 64.8553C41.415 62.1312 36.54 61.8003 36.5784 64.697C36.5951 65.9272 37.7174 66.7664 38.8972 66.5866C40.1969 66.3876 40.8371 65.1718 40.8011 63.9512C40.7772 63.1455 39.7676 62.6731 39.1753 63.2774C38.4823 63.9872 38.1442 64.8097 38.1466 65.8025C38.149 67.0278 40.053 67.0302 40.0506 65.8025C40.0506 65.2941 40.1657 64.9896 40.523 64.6251C39.9811 64.3997 39.4391 64.1767 38.8972 63.9512C39.0267 64.4165 38.8372 64.5531 38.3337 64.3589C37.9284 64.4692 37.8085 64.4476 37.974 64.2918C38.0843 63.9537 39.0219 64.1455 39.2401 64.2702C40.5565 65.0303 38.9355 66.3444 38.0123 66.3564C35.5304 66.39 35.9549 62.9345 38.2593 62.7715C39.2329 62.7019 40.4966 63.2007 40.7364 64.2678C40.9522 65.2318 40.1897 66.2125 39.3504 66.5842C37.679 67.3228 35.5832 65.8025 36.6934 64.004C37.3385 62.9585 35.6911 62.0017 35.0485 63.0424L35.0509 63.0496Z" fill="#F8C1C1"/>
<path d="M79.8685 60.3063C76.8087 59.5414 74.0775 63.0376 76.226 65.661C78.3842 68.2987 82.408 66.2652 83.0938 63.3805C83.4295 61.9657 82.854 60.4766 81.5087 59.8435C80.3649 59.304 78.3363 59.2297 77.2044 59.8531C74.3988 61.3998 75.4299 66.0231 78.2547 66.8551C81.0627 67.6824 83.8587 64.6898 82.1778 62.0305C80.4369 59.2776 76.3531 61.0545 76.2812 64.004C76.1973 67.4618 81.4919 66.0782 81.3792 63.1887C81.3289 61.8794 80.01 60.9178 78.7439 61.1648C77.4298 61.419 76.756 62.8625 77.1924 64.0855C77.6792 65.4427 79.4897 65.884 80.4633 64.7905C81.2953 63.8553 81.7893 61.6732 80.0436 61.4334C78.6528 61.2439 77.3339 63.1431 77.9622 64.4044C78.2571 64.9991 79.0053 65.2221 79.6 64.9751C80.3745 64.6514 80.5688 63.8961 80.6239 63.1287C80.6839 62.287 79.4369 61.9873 79.0508 62.7019C78.5593 63.6083 78.5593 64.5075 79.0556 65.414C79.576 66.3684 81.0364 65.5171 80.5136 64.5627C80.2906 64.227 80.2882 63.8913 80.5088 63.5556C79.9837 63.4141 79.4609 63.2702 78.9357 63.1287C78.9789 63.2055 79.0221 63.2822 79.0652 63.3589C79.2331 63.4884 79.4009 63.6179 79.5712 63.7474C79.4345 63.5699 79.9165 63.2055 79.5184 63.088C79.5112 63.088 79.2355 63.709 79.106 63.7186C78.8038 63.7426 78.6192 63.2007 78.823 62.98C79.3386 62.4213 79.763 63.2007 79.5784 63.6323C79.3674 64.1215 78.2523 64.7306 77.9622 64.1718C77.6576 63.5819 78.5736 62.6132 79.0412 62.4429C80.4608 61.9297 81.4752 63.5268 80.6598 64.6946C79.8086 65.9151 77.9574 65.2413 77.4562 64.0783C77.1924 63.4644 77.1948 62.7738 77.4346 62.1528C77.7583 61.3111 78.3866 61.1936 79.2019 61.1744C79.8062 61.16 80.6479 61.1216 81.1227 61.5797C81.715 62.1504 81.5231 63.0736 81.137 63.6922C80.4368 64.8145 78.7847 65.8936 77.6241 64.7138C76.334 63.4021 77.8351 61.5437 79.4153 61.9393C80.4704 62.2031 80.9189 60.5749 79.8638 60.3111L79.8685 60.3063Z" fill="#F8C1C1"/>
<path d="M43.5228 39.1732C42.4701 39.3962 41.6164 40.0556 41.1416 41.022C40.9714 41.3673 41.1728 41.8565 41.6092 41.8349C42.8801 41.7726 44.1175 41.4057 45.1678 40.6719C45.832 40.2091 46.8104 39.2571 46.127 38.3987C45.5107 37.6241 44.1607 38.0773 43.4293 38.4154C42.4293 38.8782 41.6308 39.6768 41.144 40.6599C40.9714 41.0076 41.1752 41.4944 41.6116 41.4728C43.1151 41.4057 44.4748 40.8014 45.5131 39.7103C45.8608 39.3435 45.5826 38.8399 45.1294 38.7871C44.2182 38.6816 43.3957 38.9958 42.7483 39.636C42.2519 40.1252 43.0168 40.8901 43.5132 40.401C43.9712 39.9477 44.4988 39.7967 45.1294 39.8686C45.0023 39.5617 44.8753 39.2523 44.7482 38.9454C43.9065 39.8302 42.8346 40.3362 41.6116 40.3914C41.7675 40.6623 41.9234 40.9333 42.0792 41.2043C42.3334 40.6911 42.6619 40.2331 43.1127 39.871C43.4892 39.5665 44.3525 38.9838 44.8752 39.0941C45.5874 39.2451 44.1031 40.07 43.8082 40.2115C43.1151 40.5448 42.3766 40.7103 41.6092 40.7486C41.7651 41.0196 41.921 41.2906 42.0768 41.5616C42.4365 40.8302 43.0168 40.3794 43.813 40.2115C44.494 40.0676 44.2062 39.0245 43.5252 39.1684L43.5228 39.1732Z" fill="#FFF9C4"/>
<path d="M70.104 38.8447C69.4134 38.6361 68.7324 38.5617 68.0106 38.6313C67.7852 38.6528 67.5407 38.7823 67.4879 39.0293C67.1066 40.8781 69.6556 41.6143 71.0225 41.8733C71.6555 41.9932 72.5284 42.1538 72.7945 41.3745C73.0391 40.6599 72.4541 40.0101 71.9481 39.5952C71.2647 39.0317 70.4566 38.6121 69.5981 38.3843C68.9531 38.2116 67.7589 37.9143 67.3728 38.6888C66.5839 40.2786 70.0921 41.0604 70.9721 41.2978C71.646 41.48 71.9313 40.4369 71.2599 40.2547C70.3798 40.0173 69.5765 39.624 68.718 39.3458C68.4375 39.2547 68.3128 39.2571 68.6005 39.2931C68.8427 39.3243 69.073 39.3626 69.3104 39.4274C69.7348 39.5401 70.1424 39.7079 70.5261 39.9238C70.8642 40.1156 71.3606 40.3842 71.5788 40.7127C71.7395 40.9549 71.7227 40.8158 71.5884 40.8781C71.4493 40.9429 71.0345 40.7726 70.8978 40.7391C70.3726 40.612 68.3608 40.1468 68.5334 39.3171C68.3584 39.449 68.1857 39.5808 68.0106 39.7151C68.6365 39.6552 69.212 39.7079 69.8163 39.8902C70.4853 40.0916 70.7707 39.0485 70.104 38.8471V38.8447Z" fill="#FFF9C4"/>
<path d="M41.5253 52.9447C41.144 53.1533 41.0937 53.7288 41.4198 54.0094C41.7771 54.3187 42.2998 54.0501 42.5085 53.7024C42.7267 53.3379 42.6763 52.7217 42.1608 52.6737C41.7172 52.6329 41.3167 53.0646 41.4318 53.501C41.5133 53.8079 41.9905 53.6784 41.909 53.3691C41.8922 53.3067 41.9234 53.2612 41.9713 53.2204C42.0289 53.1725 42.0721 53.1893 42.132 53.1677C42.1512 53.1605 42.1176 53.1221 42.1224 53.1557C42.1272 53.1893 42.1392 53.2108 42.1416 53.2468C42.144 53.3259 42.1128 53.4051 42.0697 53.4698C42.0193 53.5466 41.8586 53.7024 41.7507 53.6425C41.6524 53.5873 41.6932 53.4171 41.7747 53.3739C42.0553 53.2204 41.8035 52.7936 41.5253 52.9471V52.9447Z" fill="white"/>
<path d="M72.0512 52.2061C72.0632 52.4435 72.0776 52.6809 72.0896 52.9183C72.0967 53.0382 72.1975 53.1845 72.3366 53.1653C72.6315 53.1269 72.8953 52.9711 73.0224 52.6905C73.0919 52.537 73.1159 52.3931 73.0152 52.2493C72.9456 52.1486 72.8449 52.079 72.7274 52.0431C72.2742 51.9016 71.761 52.2732 71.8522 52.7576C71.9097 53.0718 72.3893 52.9375 72.3294 52.6258C72.3294 52.6234 72.3414 52.5946 72.3414 52.5946C72.3773 52.549 72.4061 52.5394 72.4564 52.5226C72.5596 52.4891 72.6003 52.5059 72.6291 52.5706C72.6219 52.5059 72.6123 52.4435 72.6052 52.3788C72.5764 52.5106 72.4828 52.6473 72.3366 52.6665C72.4181 52.748 72.502 52.832 72.5835 52.9135C72.5716 52.6761 72.5572 52.4387 72.5452 52.2013C72.5284 51.8848 72.032 51.8824 72.0488 52.2013L72.0512 52.2061Z" fill="white"/>
</svg>
