<svg width="41" height="41" viewBox="0 0 41 41" fill="none" xmlns="http://www.w3.org/2000/svg">
<path d="M23.2964 6.27472C23.0443 4.583 23.4984 2.91674 24.551 1.57304C24.3192 1.48985 24.0875 1.40667 23.8558 1.32348C23.8541 2.95494 23.4628 4.53122 22.6649 5.95811C22.8966 6.04129 23.1283 6.12448 23.3601 6.20766C23.4127 4.81473 23.742 3.488 24.3396 2.23003C24.551 1.78525 23.8286 1.5289 23.619 1.97114C22.9934 3.28768 22.6513 4.69419 22.5961 6.14994C22.5825 6.49541 23.0944 6.75176 23.2913 6.39949C24.1563 4.85207 24.618 3.15696 24.6197 1.3812C24.6197 1.00347 24.1656 0.824367 23.9245 1.13164C22.7472 2.63577 22.2617 4.52867 22.5426 6.41477C22.6156 6.90285 23.3686 6.7628 23.2956 6.27472H23.2964Z" fill="#FFF9C4"/>
<path d="M27.8207 7.60055C28.3462 5.46064 29.5999 3.63396 31.4096 2.37684C31.2076 2.23593 31.0056 2.09418 30.8035 1.95327C30.0625 3.87163 28.9259 5.58542 27.4405 7.00891C27.6425 7.14982 27.8445 7.29158 28.0465 7.43248C28.5159 5.99286 29.3249 4.73829 30.4521 3.72563C30.8188 3.39628 30.3282 2.80804 29.9607 3.13824C28.7358 4.23833 27.8369 5.60749 27.3259 7.17358C27.2147 7.51397 27.6442 7.87218 27.9319 7.59716C29.5159 6.0786 30.7331 4.2604 31.5242 2.21386C31.671 1.83358 31.211 1.58742 30.9181 1.7903C29.0133 3.11362 27.6535 5.08971 27.1001 7.34251C26.9838 7.81615 27.7027 8.08099 27.8207 7.6014V7.60055Z" fill="#FFE5B4"/>
<path d="M18.9046 6.28067C18.4115 4.5134 18.3427 2.70199 18.6983 0.902469C18.4454 0.91605 18.1924 0.92963 17.9395 0.943211C18.2714 2.73764 18.3681 4.54735 18.2315 6.3664C18.1941 6.85702 18.9581 6.91814 18.9954 6.42497C19.1372 4.54311 19.0362 2.65955 18.6924 0.804002C18.6084 0.348179 18.0133 0.4407 17.9335 0.844744C17.5668 2.70114 17.6424 4.59913 18.1508 6.42157C18.2824 6.89267 19.037 6.75771 18.9038 6.28152L18.9046 6.28067Z" fill="#FFE5B4"/>
<path d="M14.7878 7.0718C14.1087 6.3834 13.6639 5.5507 13.4857 4.59916C13.2624 4.70441 13.0392 4.80966 12.8151 4.91492C13.5663 5.61096 14.0552 6.48441 14.2318 7.49452C14.3167 7.98005 15.0704 7.84169 14.9847 7.35446C14.7869 6.22806 14.242 5.20183 13.4025 4.42345C13.1402 4.18068 12.6547 4.32668 12.7319 4.73921C12.9322 5.81044 13.4339 6.7866 14.1995 7.56413C14.5442 7.91384 15.1333 7.42406 14.7869 7.07265L14.7878 7.0718Z" fill="#FFF9C4"/>
<path d="M31.7559 10.8686C32.6947 9.43915 34.1428 8.48252 35.8269 8.18712C35.6995 7.98765 35.5714 7.78902 35.444 7.58955C34.3541 8.80677 32.9782 9.69041 31.4342 10.2167C31.5708 10.4297 31.7066 10.6436 31.8433 10.8567C32.8118 9.85338 33.9408 9.0784 35.2284 8.54109C35.6843 8.35095 35.3566 7.6583 34.9025 7.84844C33.5605 8.40782 32.3619 9.2227 31.3518 10.2693C31.0446 10.5876 31.3417 11.0528 31.761 10.9093C33.4383 10.3372 34.8906 9.34833 36.0705 8.03094C36.3039 7.7695 35.989 7.38073 35.6877 7.43336C33.816 7.76186 32.1735 8.83733 31.1303 10.4263C30.8595 10.838 31.4859 11.2803 31.7567 10.8677L31.7559 10.8686Z" fill="#FFF9C4"/>
<path d="M33.827 15.2061C35.3939 14.2546 37.1239 13.6986 38.9523 13.5577C38.8742 13.3166 38.7969 13.0755 38.7188 12.8345C37.0806 13.6375 35.3625 14.2198 33.5741 14.5771C33.0911 14.6739 33.2294 15.4268 33.7141 15.33C35.5646 14.9608 37.3514 14.3573 39.0456 13.5271C39.4573 13.3251 39.2307 12.7716 38.8122 12.8039C36.9269 12.9491 35.1172 13.5322 33.5011 14.5126C33.0834 14.7664 33.406 15.4616 33.827 15.2053V15.2061Z" fill="#FFE5B4"/>
<path d="M34.6904 19.3187C35.5901 18.9512 36.523 18.8816 37.4737 19.0726C37.4287 18.8298 37.3846 18.587 37.3396 18.3443C36.405 18.7755 35.4178 18.8705 34.4145 18.6566C33.9349 18.5539 33.8797 19.3187 34.3559 19.4206C35.4815 19.6608 36.6231 19.519 37.6663 19.0369C38.0449 18.862 37.882 18.3791 37.5322 18.3086C36.4559 18.0922 35.3788 18.2118 34.3644 18.6261C33.9069 18.8128 34.2354 19.5046 34.6904 19.3187Z" fill="#FFF9C4"/>
<path d="M6.36734 6.15253C8.42151 6.80273 10.1701 8.15407 11.2838 10.0045C11.4425 9.82967 11.6012 9.65566 11.76 9.4808C9.89507 8.61499 8.26617 7.35702 6.94454 5.78244C6.80363 5.98446 6.66188 6.18648 6.52097 6.3885C7.92748 6.95212 9.11839 7.85189 10.0538 9.0428C10.3594 9.43156 10.9459 8.93839 10.6412 8.55133C9.62345 7.25601 8.30861 6.27985 6.77987 5.66784C6.42251 5.52439 6.11778 5.98955 6.3563 6.27391C7.76791 7.95545 9.50971 9.27708 11.5002 10.2015C11.7897 10.3356 12.1436 9.95614 11.9764 9.67772C10.7583 7.65326 8.88327 6.14574 6.62623 5.43102C6.15767 5.28247 5.89624 6.00228 6.36734 6.15168V6.15253Z" fill="#FFE5B4"/>
<path d="M26.174 33.0987C27.2835 34.4008 27.7877 36.0611 27.5992 37.7605C27.842 37.7155 28.0848 37.6713 28.3275 37.6264C27.4668 36.2419 26.9601 34.6869 26.8871 33.0537C26.6443 33.0987 26.4015 33.1428 26.1588 33.1878C26.8506 34.3991 27.275 35.7012 27.4295 37.0873C27.4838 37.5771 28.2367 37.4362 28.1824 36.9473C28.0219 35.5026 27.5729 34.1241 26.8514 32.861C26.6842 32.5682 26.1044 32.575 26.1231 32.9951C26.202 34.7624 26.6986 36.4473 27.634 37.9523C27.8293 38.2655 28.3173 38.2256 28.3623 37.8182C28.572 35.9287 27.9931 34.0528 26.7606 32.6064C26.4406 32.2303 25.8532 32.7226 26.1732 33.0978L26.174 33.0987Z" fill="#FFF9C4"/>
<path d="M21.5937 33.7599C22.2618 35.8132 22.1294 38.0218 21.2754 39.9979C21.5207 40.0174 21.7669 40.0378 22.0122 40.0573C21.6302 38.038 21.6871 35.9804 22.1973 33.9882C21.9519 33.9687 21.7058 33.9483 21.4605 33.9288C21.8212 35.3973 21.8017 36.8946 21.3773 38.347C21.2398 38.8181 21.9596 39.0803 22.0979 38.6058C22.5597 37.0253 22.6073 35.3879 22.2134 33.7879C22.1311 33.4517 21.5776 33.3321 21.4766 33.7285C20.9316 35.8548 20.851 38.0388 21.2593 40.1965C21.3332 40.5853 21.8501 40.5955 21.9961 40.256C22.9357 38.0813 23.0181 35.6791 22.2864 33.4322C22.1336 32.9645 21.4427 33.2955 21.5937 33.7582V33.7599Z" fill="#FFE5B4"/>
<path d="M29.706 30.6167C31.2135 31.5903 32.4621 32.8771 33.3695 34.428C33.5588 34.2692 33.7473 34.1105 33.9366 33.9518C32.4995 32.8288 31.2296 31.5334 30.127 30.0811C29.8282 29.6872 29.2425 30.1812 29.5396 30.5726C30.6813 32.0767 32.008 33.4153 33.4952 34.5773C33.7872 34.8057 34.2566 34.433 34.0622 34.1012C33.0877 32.4357 31.7695 31.0386 30.1474 29.9903C29.734 29.7229 29.2918 30.3485 29.706 30.6167Z" fill="#FFE5B4"/>
<path d="M32.5946 27.2595C33.5359 27.4947 34.3423 27.9522 35.0036 28.6652C35.1114 28.4555 35.2192 28.2467 35.3261 28.0371C34.361 27.8418 33.5224 27.3504 32.8628 26.6229C32.5318 26.2579 31.9435 26.7485 32.2754 27.1144C33.0844 28.0065 34.0894 28.5625 35.2676 28.8001C35.5927 28.8655 35.8015 28.3995 35.5901 28.1729C34.8406 27.3656 33.9239 26.8054 32.8526 26.538C32.379 26.42 32.115 27.139 32.5937 27.2587L32.5946 27.2595Z" fill="#FFF9C4"/>
<path d="M16.1866 32.9806C16.1399 34.6868 15.4269 36.2605 14.1537 37.4022C14.3625 37.51 14.5722 37.6178 14.7818 37.7248C15.0679 36.1154 15.7622 34.6477 16.7944 33.3838C16.5703 33.2667 16.3454 33.1504 16.1213 33.0333C15.8267 34.3948 15.2801 35.6477 14.472 36.7834C14.1851 37.1857 14.8124 37.6263 15.0984 37.2248C15.9439 36.0373 16.5347 34.7173 16.8428 33.2922C16.9319 32.8796 16.4582 32.5876 16.1696 32.9416C15.0466 34.3158 14.3294 35.921 14.0187 37.6662C13.9601 37.9938 14.4143 38.1976 14.6468 37.9887C16.0669 36.7146 16.8997 34.9474 16.9514 33.0375C16.965 32.5469 16.2011 32.4841 16.1875 32.9789L16.1866 32.9806Z" fill="#FFF9C4"/>
<path d="M40.4021 23.4823C38.2664 24.0256 36.0646 23.7701 34.1046 22.7659C34.0851 23.0112 34.0647 23.2574 34.0452 23.5027C36.0866 23.254 38.1332 23.4585 40.0872 24.0994C40.1067 23.8541 40.1271 23.6079 40.1466 23.3626C38.6544 23.6258 37.1681 23.495 35.7446 22.9764C35.2811 22.8075 35.0214 23.5281 35.4857 23.6971C37.0331 24.2607 38.6654 24.4016 40.2867 24.1155C40.6551 24.0502 40.7102 23.4976 40.3461 23.3787C38.2605 22.6954 36.0833 22.4849 33.9052 22.7498C33.4841 22.8007 33.5444 23.3329 33.8457 23.4865C35.9109 24.545 38.2945 24.8073 40.5422 24.2352C41.0175 24.1147 40.8817 23.3601 40.4021 23.4823Z" fill="#FFE5B4"/>
<path d="M6.72217 24.1486C5.1739 25.1307 3.45672 25.7223 1.63173 25.8997C1.70982 26.1408 1.78707 26.3819 1.86516 26.6229C3.48728 25.7885 5.19258 25.1697 6.97427 24.7776C7.45471 24.6715 7.31721 23.9177 6.83422 24.0246C4.99141 24.4304 3.2165 25.067 1.53921 25.9303C1.13941 26.1357 1.34568 26.6942 1.77264 26.6535C3.6545 26.471 5.45317 25.8547 7.04982 24.8421C7.4615 24.5815 7.13895 23.8854 6.72387 24.1494L6.72217 24.1486Z" fill="#FFE5B4"/>
<path d="M6.40215 19.8263C5.50833 20.2117 4.58056 20.3042 3.62477 20.131C3.66976 20.3738 3.71389 20.6166 3.75888 20.8593C4.68496 20.4095 5.66791 20.2906 6.67717 20.4859C7.16015 20.5792 7.21533 19.8144 6.73574 19.7219C5.6068 19.5038 4.46596 19.665 3.43293 20.1667C3.06539 20.345 3.2063 20.8296 3.56706 20.895C4.64677 21.0902 5.72394 20.9527 6.72895 20.519C7.18223 20.3237 6.85542 19.6311 6.403 19.8263H6.40215Z" fill="#FFF9C4"/>
<path d="M8.34176 11.8515C7.39786 11.6359 6.57788 11.1962 5.90306 10.4968C5.79526 10.7065 5.68746 10.9153 5.58051 11.1249C6.54903 11.3007 7.39871 11.7701 8.07353 12.4848C8.41136 12.8421 8.9996 12.3524 8.66091 11.9933C7.835 11.1173 6.82235 10.5758 5.63908 10.361C5.31907 10.3033 5.09668 10.7616 5.31653 10.9883C6.08302 11.7811 7.0057 12.3252 8.08372 12.5722C8.55821 12.6809 8.82304 11.961 8.3426 11.8515H8.34176Z" fill="#FFF9C4"/>
<path d="M0.596154 15.7808C2.72078 15.196 4.92689 15.4031 6.90637 16.3699C6.92589 16.1246 6.94626 15.8784 6.96578 15.6331C4.92943 15.9217 2.87951 15.7613 0.912767 15.1595C0.893244 15.4048 0.872866 15.651 0.853343 15.8963C2.33965 15.6034 3.8285 15.7019 5.26218 16.1917C5.72819 16.3512 5.98877 15.6306 5.52107 15.471C3.96346 14.9379 2.32862 14.825 0.713294 15.1434C0.354238 15.2138 0.280383 15.7655 0.653869 15.8801C2.75218 16.5227 4.93283 16.6942 7.10584 16.386C7.51752 16.3275 7.47762 15.8012 7.16525 15.6493C5.08052 14.6324 2.69192 14.4125 0.455245 15.0279C-0.0158562 15.1578 0.118261 15.9124 0.595305 15.7808H0.596154Z" fill="#FFE5B4"/>
<path d="M8.63628 28.0294C8.06672 28.8154 7.31465 29.3748 6.4064 29.7126C6.56513 29.9019 6.72386 30.0904 6.88259 30.2797C7.44707 29.4215 8.23224 28.8112 9.19821 28.4649C9.66252 28.2985 9.33233 27.6067 8.87141 27.7722C7.79085 28.1593 6.88684 28.8799 6.25616 29.8383C6.03631 30.1727 6.38008 30.536 6.73235 30.4053C7.75859 30.0242 8.62016 29.3561 9.26187 28.4708C9.55132 28.071 8.92489 27.6305 8.63543 28.0294H8.63628Z" fill="#FFF9C4"/>
<path d="M11.687 30.8679C10.8738 32.4671 9.69819 33.8218 8.25433 34.882C8.44022 35.0535 8.62696 35.225 8.81285 35.3964C9.78137 33.8516 10.9298 32.4476 12.2608 31.1998C12.6199 30.8637 12.1292 30.2746 11.7693 30.6124C10.3917 31.9035 9.18974 33.3541 8.18727 34.955C7.95384 35.3268 8.39353 35.7283 8.74579 35.4694C10.3059 34.3235 11.5317 32.8499 12.4077 31.1268C12.63 30.6888 11.9077 30.4333 11.687 30.8679Z" fill="#FFE5B4"/>
<path d="M25.5255 8.61921C19.2679 6.0498 8.68804 8.97233 8.34511 20.4078C8.01322 31.4732 22.9238 35.2776 29.0082 28.919C34.2413 23.4508 35.3779 12.6639 25.5246 8.61836L25.5255 8.61921Z" fill="#F6F695"/>
</svg>
