<svg width="55" height="66" viewBox="0 0 55 66" fill="none" xmlns="http://www.w3.org/2000/svg">
<path d="M54.8871 35.489C54.2492 31.6037 53.6113 27.7149 52.97 23.8296C52.7961 22.7721 51.974 21.7146 50.821 22.0591C47.7372 22.9836 44.6467 23.891 41.5562 24.8018C40.8193 25.0201 40.0859 25.235 39.3491 25.4533C39.1478 25.5113 38.7999 25.5693 38.5441 25.6375C38.527 25.1429 38.4554 24.6107 38.4485 24.198C38.4349 23.3554 38.4247 22.5094 38.4179 21.6669C38.3701 15.2265 38.51 8.77934 38.8374 2.34582C38.9057 1.02227 37.7629 -0.710614 36.3848 0.305923C29.8694 5.12936 24.4695 11.3173 20.9355 18.6514C20.0451 20.4968 19.3049 22.3832 18.5749 24.2935C17.8995 26.0571 17.0433 27.5444 15.498 28.6803C14.0892 29.7173 12.4382 30.3927 10.9168 31.2421C10.446 31.5048 10.0025 31.7947 9.57956 32.1085C9.23502 32.2996 8.89391 32.5008 8.56302 32.7157C6.43785 34.0905 3.20062 36.0485 4.58216 39.0196C5.20641 40.3568 6.45833 40.4523 7.76481 40.5308C9.24528 40.6195 10.7223 40.6843 12.2028 40.7457C13.0794 40.7798 13.9561 40.8173 14.8362 40.8515C16.2451 41.329 17.4629 42.0795 18.592 43.0551C20.9764 45.1189 22.6956 47.7762 24.5172 50.3209C28.9143 56.4645 34.4029 61.5301 40.9012 65.3814C41.5527 65.7669 42.3271 65.1324 42.6511 64.6275C43.1697 63.8157 43.1799 62.8435 43.0503 61.9258C41.9894 54.3359 41.0411 46.7324 40.2087 39.1152C44.5478 38.5932 48.9141 38.5318 53.2736 38.9344C54.8667 39.081 55.044 36.4271 54.8905 35.4925L54.8871 35.489Z" fill="#B0A0BA"/>
<path d="M10.4392 37.1435C11.9503 37.1435 11.9537 34.7932 10.4392 34.7932C8.92458 34.7932 8.92458 37.1435 10.4392 37.1435Z" fill="#14242B"/>
<path d="M0.880946 40.5035C2.30683 39.7019 3.76342 38.9719 5.26094 38.3169C4.96757 38.1464 4.67079 37.9792 4.37743 37.8087C4.38766 38.2044 4.39791 38.5967 4.41155 38.9924C4.55482 38.8047 4.69809 38.6137 4.84137 38.4261C3.51782 38.7399 2.19427 39.0538 0.870723 39.3676C0.133904 39.5416 0.447729 40.6741 1.18455 40.5001C2.50809 40.1863 3.83164 39.8724 5.15519 39.5586C5.4008 39.5006 5.59183 39.2414 5.585 38.9924C5.57477 38.5967 5.56452 38.2044 5.55088 37.8087C5.53724 37.3277 5.06991 37.123 4.66739 37.3004C3.16987 37.9588 1.71328 38.6854 0.2874 39.487C-0.370961 39.8588 0.219173 40.8719 0.880946 40.5001V40.5035Z" fill="#F6F695"/>
<path d="M22.9003 26.1935C23.6098 23.5396 24.6434 20.9915 26.0386 18.6207C27.4747 16.1851 29.3577 14.285 31.1725 12.1564C31.3908 11.9006 31.2816 11.041 30.845 11.3616C28.6175 13.0024 26.8164 15.7211 25.4689 18.0953C24.0772 20.5446 23.0743 23.1746 22.4568 25.9206C22.3886 26.2174 22.7911 26.6097 22.9003 26.1901V26.1935Z" fill="#9F7ECF"/>
<path d="M26.0966 26.2038C27.5259 22.7551 29.7364 20.1557 32.3221 17.5291C32.5574 17.2903 32.4107 16.4853 32.015 16.782C29.0712 18.9584 26.9631 22.4787 25.6668 25.8422C25.544 26.1628 25.909 26.6575 26.0966 26.2072V26.2038Z" fill="#9F7ECF"/>
<path d="M29.5725 26.1731C30.4697 24.1707 32.015 22.9768 33.7342 21.7317C33.9798 21.5543 33.8741 20.797 33.492 20.9369C31.4078 21.7112 29.9546 23.8671 29.1973 25.8558C29.0916 26.1355 29.3986 26.5654 29.5725 26.1731Z" fill="#9F7ECF"/>
<path d="M38.9364 29.997C40.6454 29.7685 42.3339 29.4546 43.9952 28.9873C45.7076 28.5063 47.6656 28.0015 49.1802 27.0498C49.4565 26.8758 49.4326 26.1594 49.0164 26.2584C47.3859 26.637 45.8133 27.425 44.2066 27.923C42.4669 28.462 40.6965 28.9361 38.9193 29.325C38.6327 29.3864 38.6396 30.038 38.9364 29.997Z" fill="#9F7ECF"/>
<path d="M38.9159 32.7806C42.1565 32.6919 46.0385 32.0062 48.9209 30.4575C49.228 30.2938 49.17 29.5195 48.7504 29.6354C47.1744 30.0618 45.6667 30.6997 44.0736 31.0886C42.3646 31.5048 40.6385 31.7402 38.8954 31.9687C38.5407 32.0165 38.5509 32.7908 38.9159 32.7806Z" fill="#9F7ECF"/>
<path d="M39.2673 35.1787C41.0888 35.2298 42.9138 35.1275 44.732 35.0661C46.5399 35.0081 48.399 35.0456 50.1933 34.7932C50.5686 34.7386 50.5583 33.9574 50.1728 33.9336C48.3649 33.821 46.5195 34.012 44.7081 34.0973C42.89 34.1826 41.0581 34.2269 39.2502 34.4214C38.9159 34.4589 38.9295 35.165 39.2673 35.1752V35.1787Z" fill="#9F7ECF"/>
<path d="M24.698 41.677C26.3626 46.2685 29.2588 50.8463 33.1271 53.8959C33.5125 54.1995 33.6319 53.3706 33.3965 53.1386C29.8591 49.6319 27.021 45.941 25.0937 41.3086C24.9129 40.8685 24.5888 41.3768 24.698 41.677Z" fill="#9F7ECF"/>
<path d="M29.1803 43.4849C30.3094 46.6641 32.3425 49.7274 35.3136 51.4535C35.6479 51.6479 35.7161 50.8531 35.5081 50.6825C32.9326 48.5846 30.7904 46.2446 29.6067 43.0858C29.4293 42.6116 29.0643 43.1574 29.1803 43.4849Z" fill="#9F7ECF"/>
<path d="M32.3528 42.7856C32.8542 44.3104 33.9014 45.941 35.2386 46.862C35.6821 47.169 35.7537 46.3026 35.5252 46.0569C34.4404 44.8869 33.5501 43.7851 32.803 42.366C32.5472 41.8782 32.2436 42.4513 32.3562 42.7856H32.3528Z" fill="#9F7ECF"/>
</svg>
