<svg width="21" height="41" viewBox="0 0 21 41" fill="none" xmlns="http://www.w3.org/2000/svg">
<path d="M12.8391 2.16384C12.8131 2.09447 12.7784 2.03379 12.7437 1.96875C12.6874 0.191046 9.74331 -0.125517 9.29238 1.86898C7.34124 10.5104 1.25366 18.1632 0.815739 27.0907C0.512229 33.239 3.70344 40.0984 10.6365 40.4842C17.4178 40.8658 19.8502 34.2406 20.1667 28.5867C20.674 19.4943 15.8872 10.493 12.8435 2.1595L12.8391 2.16384Z" fill="#BEBEF4"/>
<path d="M12.748 1.97309C12.6917 0.195379 9.74761 -0.121183 9.29668 1.87332C7.34554 10.5147 1.25798 18.1675 0.820059 27.0951C0.79838 27.5287 0.798398 27.9666 0.811405 28.4045C2.407 30.1952 4.57925 31.4136 7.37589 31.5697C14.1572 31.9512 16.5896 25.326 16.9061 19.6721C17.1186 15.8695 16.3988 12.0843 15.2715 8.35547C14.426 6.25691 13.5805 4.19302 12.8434 2.16384C12.8174 2.09446 12.7827 2.03378 12.748 1.96875V1.97309Z" fill="#E6E6FA"/>
<g opacity="0.49">
<path d="M7.99592 18.9523C7.23281 20.2661 6.46537 21.7186 6.62146 23.2838C6.64314 23.4789 6.76021 23.9906 7.05939 23.8518C7.49731 23.6481 7.65775 22.924 7.80517 22.5164C8.03497 21.8834 8.28209 21.2633 8.56826 20.6563C8.76337 20.2444 8.75905 19.6547 8.60729 19.2341C8.52491 19.013 8.22141 18.5621 7.99161 18.9566L7.99592 18.9523Z" fill="white"/>
</g>
<g opacity="0.49">
<path d="M11.1524 37.254C13.4938 37.1326 15.51 35.4677 16.5723 33.4645C16.6677 33.2867 16.5289 32.619 16.3511 32.9615C15.2542 35.0558 13.3811 36.1787 11.1524 36.7598C11.005 36.7988 10.9964 37.2671 11.1524 37.2584V37.254Z" fill="white"/>
</g>
</svg>
