<svg width="50" height="41" viewBox="0 0 50 41" fill="none" xmlns="http://www.w3.org/2000/svg">
<path d="M1.69192 31.1808C4.30969 26.9553 7.51176 22.7091 11.7812 20.1329C13.7539 18.9443 15.9667 18.1895 18.275 18.2697C20.3779 18.344 22.3333 19.1582 24.1238 20.2457C27.6295 22.3763 30.5684 25.4637 34.3576 27.101C38.4275 28.8601 42.8213 28.0608 46.0638 24.9585C53.7696 17.5833 49.3758 3.81943 39.6771 0.951952C35.2196 -0.367384 30.5857 1.24616 27.9766 5.21605C25.4977 8.98686 26.03 14.383 30.2705 16.5671C32.4196 17.6725 34.9159 17.4942 36.9465 16.1897C38.7659 15.0219 40.244 12.8557 39.8275 10.5588C39.1477 6.78796 33.2932 5.48938 31.5547 9.1027C31.0456 10.1635 32.5903 11.0966 33.1023 10.0328C34.3953 7.34659 38.8411 9.34041 37.956 12.2198C37.4237 13.9551 35.6564 15.1318 33.9729 15.4141C32.006 15.7469 30.0304 14.6623 28.9861 12.9537C26.8312 9.42063 29.4692 5.01992 32.6279 3.26972C36.556 1.0946 41.3866 2.87746 44.3543 5.91728C47.4609 9.1027 49.0692 13.9878 47.9122 18.4124C46.9056 22.2575 43.5936 25.7965 39.6134 26.1976C36.1018 26.5512 33.0444 24.5009 30.3312 22.4743C27.5196 20.3735 24.7601 18.0083 21.3758 16.9534C12.1225 14.0651 4.53532 23.1578 0.144409 30.2478C-0.477492 31.2521 1.07291 32.1762 1.69192 31.1778V31.1808Z" fill="#BEBEF4"/>
<path d="M6.20711 33.9799C7.47116 31.2313 9.56249 28.7619 12.3538 27.5971C14.8732 26.5452 17.9509 26.78 20.0741 28.6282C22.0671 30.3665 22.4807 33.1211 21.3641 35.5072C20.2418 37.9082 17.6067 39.5633 15.1336 38.0954C13.9274 37.3792 12.9728 36.051 12.9497 34.5801C12.9352 33.7273 13.2592 32.8597 13.8522 32.2565C14.153 31.9504 14.5319 31.677 14.9716 31.677C15.4575 31.677 16.0014 32.0484 15.8857 32.616C15.6514 33.7719 17.3782 34.2681 17.6154 33.1063C18.0493 30.9638 16.0245 29.3176 14.046 29.9921C12.2381 30.6072 11.1331 32.7021 11.1563 34.5801C11.2026 38.4787 15.3823 41.5037 18.9576 40.1873C22.3303 38.9482 24.2857 34.9337 23.6609 31.3858C22.9811 27.5199 19.1687 25.1843 15.5588 25.119C10.7369 25.0298 6.62075 28.7768 4.6567 33.0498C4.16786 34.1166 5.71248 35.0526 6.20422 33.9799H6.20711Z" fill="#BEBEF4"/>
</svg>
