<svg width="1440" height="960" viewBox="0 0 1440 960" fill="none" xmlns="http://www.w3.org/2000/svg">
<g clip-path="url(#clip0_211_2)">
<rect width="1440" height="960" fill="white"/>
<g clip-path="url(#clip1_211_2)">
<rect width="1623" height="1033" transform="translate(-92 -45)" fill="#D1F3F7"/>
<path d="M364.335 919.835C310.235 921.139 259.166 917.247 205.782 923.138C179.805 925.999 37.6716 940.916 37.0611 910.01C10.7479 899.932 -18.5545 905.087 -46.6992 906.581C-74.8438 908.074 -106.714 903.951 -124.018 881.713C-136.901 865.155 -138.374 842.118 -133.975 821.626C-128.418 795.791 -112.63 770.523 -87.9162 761.119C-63.2028 751.715 -30.2166 764.106 -23.8593 789.774C-20.0281 772.354 -10.8079 758.552 3.67488 748.348C21.2732 735.936 48.0495 734.105 62.9744 749.611C61.1851 718.579 86.2563 688.346 117.095 684.328C147.935 680.309 179.91 703.136 186.12 733.6C196.709 684.391 194.267 642.082 244.999 615.847C278.132 598.721 327.264 607.915 340.147 642.903C360.651 592.557 412.435 556.581 466.767 554.919C521.119 553.257 575.009 585.993 598.543 634.971C605.574 604.044 640.687 582.627 671.42 590.537C702.154 598.427 722.573 634.129 713.795 664.593C722.321 647.657 749.518 649.004 761.98 663.31C774.442 677.616 775.347 698.592 772.8 717.38C791.114 683.507 824.163 657.966 861.57 648.793C898.977 639.62 940.11 646.942 972.023 668.486C955.372 637.58 965.371 596.239 991.452 572.717C1017.53 549.196 1056.41 542.779 1090.35 551.889C1124.28 560.999 1153.29 584.099 1174.4 612.165C1178.97 584.962 1215.66 559.421 1241.83 574.359C1263.74 586.855 1279.53 630.069 1282.6 652.917C1300.85 619.276 1346.91 602.824 1380.83 623.884C1413.83 644.354 1422.19 695.457 1397.43 725.374C1408.61 711.825 1431.24 711.952 1444.82 723.06C1458.4 734.189 1463.47 753.314 1461.32 770.734C1459.18 788.154 1450.78 804.185 1441.32 818.954C1468.63 805.511 1502.62 806.668 1528.96 821.963C1547.67 832.84 1563.27 854.341 1557.21 875.107C1550.16 899.238 1520.43 907.001 1495.51 910.41C1432.13 919.078 1368.45 925.389 1304.71 930.775C1245.79 935.74 1188.32 944.198 1130.26 950.909C1084.05 956.253 1037.36 950.636 991.116 945.692C783.031 923.433 573.493 914.786 364.292 919.856L364.335 919.835Z" fill="#E9F4DD"/>
<path d="M1482.77 758.237C1495 759.078 1506.71 765.621 1513.82 775.572C1518.62 782.305 1521.32 790.279 1523.93 798.126C1533.65 827.307 1543.4 856.487 1553.12 885.668C1484.23 884.721 1414.4 880.303 1345.57 882.786C1297.84 884.511 1246.44 888.971 1208.99 850.365C1202.76 843.948 1172.74 786.134 1173.96 785.945C1186.11 783.883 1199.2 789.416 1206.19 799.536C1200.48 789.1 1195.33 777.866 1195.12 765.979C1194.89 753.882 1203.71 733.264 1219.05 735.115C1230.48 736.483 1244.9 758.973 1249.64 768.314C1246.73 757.753 1243.81 747.191 1240.9 736.63C1239.15 730.318 1237.45 723.502 1239.72 717.379C1243.07 708.438 1254.54 704.378 1263.66 707.281C1272.77 710.184 1279.34 718.473 1282.6 727.457C1285.87 736.44 1286.33 746.139 1286.75 755.691C1281.32 744.961 1287.34 730.066 1298.73 726.153C1310.12 722.218 1324.05 730.234 1326.39 742.037C1323.65 728.256 1307.23 696.509 1322.37 685.422C1327.76 681.487 1335.78 682.581 1340.89 686.852C1346.01 691.123 1348.53 697.898 1349.06 704.546C1349.59 711.194 1348.32 717.842 1347.08 724.406C1346.68 710.205 1359.33 696.951 1373.54 696.656C1387.75 696.362 1400.93 709.09 1401.14 723.291C1401.14 708.143 1398.63 692.47 1414.8 685.064C1426.29 679.804 1441.81 684.454 1448.12 695.478C1455.6 708.501 1449.41 727.12 1435.98 733.811C1463.55 720.051 1512.96 729.35 1493.85 770.923C1488.88 781.758 1479.78 790.131 1470.42 797.516C1480.6 795.181 1487.55 810.118 1482.46 819.228C1476.86 829.242 1467.09 833.008 1456.27 835.049C1442.76 837.595 1427.58 837.468 1416.86 843.464C1387.16 860.106 1365.31 882.575 1329.48 886.552C1326.87 886.846 1324.18 887.056 1321.4 887.183" fill="#E7ECEE"/>
<path d="M-68.0026 761.582C-59.1824 765.474 -51.8358 772.143 -43.2261 776.498C-59.4561 765.116 -69.0341 744.919 -67.5816 725.164C-67.1395 719.252 -65.7081 713.256 -62.1926 708.501C-58.6772 703.746 -52.783 700.443 -46.9099 701.201C-39.2265 702.21 -33.9217 709.511 -31.3535 716.811C-28.7854 724.112 -27.9433 732.043 -24.3647 738.902C-21.0177 720.998 -3.96671 706.629 14.2631 706.376C32.4929 706.124 49.9438 719.967 53.7961 737.787C54.596 726.678 51.8594 715.654 50.3859 704.63C48.9123 693.606 48.8702 681.698 54.5118 672.104C60.1533 662.489 73.1205 656.493 82.9301 661.774C88.4243 664.72 91.8766 670.463 93.8764 676.354C99.1601 691.923 95.9183 708.922 92.6344 725.037C90.803 714.581 97.1603 703.262 107.054 699.391C116.948 695.52 129.305 699.496 135.072 708.417C140.84 717.337 139.388 730.234 131.788 737.64C130.82 714.413 146.482 691.481 168.459 683.907C177.658 680.751 189.699 681.025 194.94 689.209C199.003 695.541 197.235 703.915 194.54 710.963C189.32 724.512 181.089 736.903 170.606 746.96C211.023 708.143 258.281 791.52 209.802 815.146C216.791 800.966 239.42 800.461 249.903 812.306C260.387 824.151 259.502 843.022 251.44 856.613C243.378 870.204 229.611 879.419 215.549 886.657C179.594 905.171 144.566 908.137 105.391 908.979C60.6165 909.926 16.326 917.521 -28.8275 916.763C-42.6787 916.532 -56.7616 915.9 -69.855 911.377C-131.112 890.212 -116.966 739.996 -67.9815 761.603L-68.0026 761.582Z" fill="#F6EBC4"/>
<path d="M1171.25 886.615C1120.56 912.703 1060.06 916.679 1005.49 901.405C973.223 892.358 943.142 872.603 921.965 846.641C912.723 835.301 897.083 835.049 884.831 826.191C872.475 817.25 862.77 804.48 858.139 789.9C855.445 781.379 854.729 771.091 860.728 764.464C867.212 757.311 878.832 757.69 887.652 761.582C896.472 765.474 903.819 772.143 912.429 776.498C896.199 765.116 886.621 744.919 888.073 725.164C888.515 719.252 889.947 713.256 893.462 708.501C896.978 703.746 902.872 700.443 908.745 701.201C916.428 702.21 921.733 709.511 924.301 716.811C926.869 724.112 927.711 732.043 931.29 738.902C934.637 720.998 951.688 706.629 969.918 706.376C988.148 706.124 1005.6 719.967 1009.45 737.787C1010.25 726.678 1007.51 715.654 1006.04 704.63C1004.57 693.606 1004.53 681.698 1010.17 672.104C1015.81 662.489 1028.78 656.493 1038.58 661.774C1044.08 664.72 1047.53 670.463 1049.53 676.354C1054.81 691.923 1051.57 708.922 1048.29 725.037C1046.46 714.581 1052.82 703.262 1062.71 699.391C1072.6 695.52 1084.96 699.496 1090.73 708.417C1096.49 717.337 1095.04 730.234 1087.44 737.64C1086.47 714.413 1102.14 691.481 1124.11 683.907C1133.31 680.751 1145.35 681.025 1150.59 689.209C1154.66 695.541 1152.89 703.915 1150.19 710.963C1144.97 724.512 1136.74 736.903 1126.26 746.96C1166.68 708.143 1213.94 791.52 1165.46 815.146C1172.45 800.966 1195.07 800.461 1205.56 812.306C1216.04 824.151 1215.16 843.022 1207.09 856.613C1199.03 870.204 1185.27 879.419 1171.2 886.657L1171.25 886.615Z" fill="#E7ECEE"/>
<path d="M610.584 835.007C597.07 837.552 581.892 837.426 571.177 843.422C541.475 860.064 519.625 882.533 483.796 886.51C446.621 890.633 390.206 878.073 363.345 850.365C357.114 843.948 327.096 786.134 328.317 785.945C340.463 783.883 353.556 789.416 360.545 799.536C354.841 789.1 349.683 777.866 349.473 765.979C349.241 753.882 358.061 733.264 373.407 735.115C384.838 736.483 399.236 758.973 403.994 768.314C401.089 757.753 398.163 747.191 395.258 736.63C393.511 730.318 391.805 723.502 394.079 717.379C397.426 708.438 408.898 704.378 418.013 707.281C427.107 710.184 433.696 718.473 436.959 727.457C440.222 736.44 440.685 746.139 441.106 755.691C435.675 744.961 441.695 730.066 453.084 726.153C464.472 722.218 478.407 730.234 480.744 742.037C478.008 728.256 461.588 696.509 476.724 685.422C482.112 681.487 490.133 682.581 495.248 686.852C500.363 691.123 502.889 697.898 503.416 704.546C503.942 711.194 502.679 717.842 501.437 724.406C501.037 710.205 513.688 696.951 527.897 696.656C542.107 696.362 555.284 709.09 555.495 723.291C555.495 708.143 552.99 692.47 569.157 685.064C580.65 679.804 596.164 684.454 602.48 695.478C609.953 708.501 603.764 727.12 590.334 733.811C617.91 720.051 667.315 729.35 648.202 770.923C643.234 781.758 634.14 790.131 624.772 797.516C634.961 795.181 641.907 810.118 636.813 819.228C631.214 829.242 621.446 833.008 610.626 835.049L610.584 835.007Z" fill="#E7ECEE"/>
<path d="M478.071 949.52C489.249 955.096 502.342 957.473 512.194 964.858H1061.59C1070.03 950.173 1071.59 931.28 1062.77 916.658C1048.63 893.179 1012.25 888.13 991.41 905.276C1002.67 893.747 1009.79 878.178 1010.92 862.084C994.547 858.886 976.843 863.451 964.045 874.16C980.801 858.886 991.705 836.459 990.147 813.863C988.59 791.267 973.223 769.408 951.456 763.054C929.69 756.701 903.335 768.651 896.262 790.173C897.904 763.202 877.569 736.567 851.087 731.055C824.606 725.521 795.303 741.784 785.999 767.157C782.546 736.398 775.116 700.065 746.487 688.22C721.584 677.911 692.029 693.374 677.441 716.012C664.537 736.02 660.474 760.109 657.695 783.925C655.506 769.198 636.14 756.932 621.952 764.653C606.942 772.816 605.553 795.875 616.499 808.498C598.796 794.97 572.777 792.761 553.369 803.933C533.56 815.357 522.382 839.72 525.856 862.189C521.498 851.964 505.563 847.399 495.648 854.131C484.049 862.021 481.544 878.83 486.133 892.085C490.722 905.339 500.763 915.859 510.51 925.936C503.71 919.162 496.574 912.177 487.501 909.042C478.429 905.928 466.809 907.927 461.841 916.153C454.642 928.061 465.609 943.293 478.071 949.52Z" fill="#F1D2D3"/>
<path d="M47.1863 956.568C53.7751 959.851 61.185 961.765 67.7948 964.858H522.656C527.582 953.686 527.855 940.432 521.519 929.891C510.047 910.851 480.534 906.749 463.63 920.655C472.766 911.293 478.534 898.67 479.46 885.626C466.177 883.038 451.8 886.741 441.422 895.409C455.02 883.017 463.862 864.84 462.599 846.494C461.335 828.148 448.874 810.434 431.212 805.279C413.551 800.125 392.184 809.824 386.438 827.286C387.764 805.405 371.26 783.799 349.788 779.317C328.317 774.836 304.551 788.028 296.994 808.603C294.194 783.651 288.152 754.176 264.955 744.562C244.767 736.209 220.769 748.727 208.939 767.115C198.477 783.357 195.172 802.902 192.92 822.215C191.151 810.265 175.426 800.314 163.912 806.584C151.745 813.211 150.608 831.914 159.491 842.16C145.135 831.199 124.021 829.39 108.275 838.457C92.2135 847.714 83.1407 867.491 85.9615 885.71C82.425 877.421 69.4999 873.718 61.4586 879.188C52.049 885.584 50.0281 899.217 53.7541 909.989C57.48 920.74 65.6266 929.281 73.5416 937.465C68.0264 931.974 62.2375 926.294 54.8698 923.769C47.5021 921.245 38.0714 922.864 34.0507 929.534C28.1987 939.191 37.1031 951.54 47.2073 956.59L47.1863 956.568Z" fill="#F1D2D3"/>
<path d="M999.241 959.408C1003.6 961.596 1008.38 963.111 1012.97 964.857H1430.78C1434.4 955.201 1434.27 944.155 1428.9 935.256C1418.51 918.004 1391.75 914.301 1376.45 926.904C1384.74 918.425 1389.96 906.98 1390.8 895.156C1378.76 892.821 1365.75 896.166 1356.34 904.013C1368.66 892.8 1376.66 876.305 1375.52 859.706C1374.38 843.085 1363.08 827.033 1347.08 822.383C1331.08 817.713 1311.72 826.507 1306.52 842.307C1307.72 822.489 1292.77 802.923 1273.32 798.862C1253.87 794.802 1232.33 806.752 1225.49 825.392C1222.95 802.775 1217.49 776.077 1196.46 767.388C1178.17 759.814 1156.45 771.175 1145.73 787.817C1136.26 802.523 1133.27 820.237 1131.23 837.721C1129.63 826.886 1115.38 817.881 1104.96 823.561C1093.93 829.558 1092.92 846.494 1100.96 855.793C1087.95 845.863 1068.83 844.222 1054.56 852.448C1040.02 860.842 1031.79 878.746 1034.35 895.261C1031.15 887.751 1019.45 884.384 1012.15 889.349C1003.62 895.156 1001.79 907.506 1005.16 917.247C1008.52 926.988 1015.91 934.73 1023.07 942.136C1018.08 937.149 1012.84 932.016 1006.17 929.723C999.494 927.43 990.947 928.902 987.305 934.94C982.001 943.692 990.063 954.885 999.22 959.45L999.241 959.408Z" fill="#F1D2D3"/>
<path d="M772.821 956.631C774.253 959.598 775.831 962.312 777.473 964.857H1106.85C1109.31 963.406 1111.63 961.744 1113.76 959.787C1121.88 952.297 1126.16 939.485 1120.7 929.87C1116.49 922.443 1107.5 918.677 1098.96 918.741C1090.41 918.783 1082.22 922.044 1074.58 925.852C1086.94 916.994 1096.89 903.866 1099.04 888.823C1101.19 873.781 1094.14 857.055 1080.41 850.491C1066.69 843.927 1047.43 850.68 1043.05 865.239C1045.85 853.478 1048.65 841.507 1048.04 829.431C1047.43 817.355 1042.92 804.921 1033.45 797.389C1019.37 786.218 998.336 788.869 982.611 797.579C960.634 809.739 945.015 832.755 941.857 857.665C937.731 845.463 942.362 832.229 942.847 819.354C943.331 806.478 935.816 790.699 922.954 791.541C914.639 792.088 908.576 799.43 904.093 806.457C888.536 830.736 878.642 858.633 875.422 887.288C857.066 869.741 856.602 834.27 832.289 826.991C815.259 821.878 797.387 836.5 792.335 853.542C787.283 870.583 791.43 888.845 795.577 906.117C791.809 896.482 787.809 886.467 780.126 879.524C772.442 872.582 759.959 869.784 751.728 876.053C741.772 883.648 743.35 899.132 748.066 910.725C754.57 926.735 765.264 941.063 772.821 956.631Z" fill="#F9E9CA"/>
<path d="M-113.43 958.273C-112.272 960.65 -111.03 962.817 -109.704 964.858H153.934C155.913 963.701 157.765 962.375 159.47 960.797C165.975 954.801 169.385 944.555 165.027 936.855C161.659 930.901 154.46 927.893 147.619 927.935C140.777 927.977 134.23 930.586 128.105 933.636C137.998 926.546 145.977 916.048 147.682 903.993C149.387 891.938 143.745 878.557 132.757 873.318C121.768 868.059 106.359 873.466 102.844 885.121C105.075 875.696 107.328 866.123 106.844 856.445C106.359 846.768 102.739 836.816 95.1605 830.799C83.8985 821.858 67.058 823.983 54.4698 830.946C36.8715 840.687 24.3885 859.117 21.8414 879.041C18.5364 869.279 22.2413 858.675 22.6413 848.388C23.0202 838.079 16.9997 825.455 6.70599 826.129C0.0540041 826.57 -4.78762 832.44 -8.38727 838.058C-20.8492 857.497 -28.7642 879.819 -31.3324 902.752C-46.0257 888.719 -46.3836 860.316 -65.8554 854.489C-79.4961 850.407 -93.7895 862.105 -97.8312 875.738C-101.873 889.371 -98.568 903.993 -95.2209 917.815C-98.2312 910.094 -101.431 902.099 -107.578 896.545C-113.724 890.991 -123.723 888.74 -130.312 893.768C-138.269 899.848 -137.027 912.24 -133.259 921.518C-128.039 934.331 -119.492 945.818 -113.451 958.252L-113.43 958.273Z" fill="#F9E9CA"/>
<path d="M386.522 964.858H626.204C626.456 964.689 626.751 964.542 627.004 964.374C638.834 956.695 648.665 945.081 651.612 931.28C654.559 917.5 649.486 901.636 637.55 894.126C629.088 888.803 617.489 888.992 609.111 893.999C617.173 880.871 614.942 861.053 601.953 851.985C587.576 841.95 565.304 848.787 557.263 863.83C560.463 855.015 563.22 846.01 563.599 836.69C564.062 825.034 560.189 812.58 550.885 805.532C536.233 794.444 513.751 801.345 501.9 815.378C490.048 829.411 486.07 848.282 482.512 866.312C484.765 853.332 486.996 839.888 483.67 827.138C480.365 814.389 469.882 802.502 456.725 801.976C442.053 801.387 430.412 814.389 424.076 827.622C413.656 849.334 411.361 874.833 417.74 898.06C412.267 888.992 406.457 879.567 397.384 874.118C388.311 868.669 374.965 868.732 368.544 877.147C363.429 883.859 364.271 893.368 366.797 901.426C370.544 913.418 377.617 924.295 386.88 932.795C376.902 928.04 365.618 925.978 354.609 927.156C352.904 927.346 369.934 953.665 372.165 955.79C376.754 960.124 381.491 962.607 386.543 964.879L386.522 964.858Z" fill="#F9E9CA"/>
<path d="M999.409 875.065C996.462 872.813 992.589 872.224 989.095 873.108C991.537 860.401 989.81 844.537 973.454 845.526C962.382 846.199 953.751 853.836 949.835 863.577C946.93 857.771 941.099 853.921 933.669 854.931C922.785 856.382 918.575 866.67 919.207 876.516C919.375 879.209 923.585 879.23 923.417 876.516C923.08 871.32 923.522 863.388 929.374 860.8C938.489 856.761 947.709 862.021 947.646 872.477C947.646 875.233 951.604 875.128 951.856 872.477C952.74 862.925 958.466 854.615 967.623 851.207C985.916 844.369 987.2 863.83 984.211 875.654C983.706 876.095 983.222 876.558 982.78 877.105C981.117 879.209 984.085 882.197 985.748 880.072C985.916 879.861 986.106 879.693 986.295 879.504C986.948 879.398 987.537 878.999 987.811 878.241C990.421 876.579 993.915 876.348 996.61 878.241C1000.44 880.955 1000.82 886.425 998.61 890.255C997.262 892.611 1000.88 894.736 1002.25 892.379C1005.45 886.825 1004.71 879.146 999.409 875.107V875.065Z" fill="#F1D2D3"/>
<path d="M865.949 879.209C856.644 877.063 852.813 885.436 851.508 893.305C847.445 886.341 841.298 878.662 833.594 883.606C824.374 889.518 827.721 903.109 834.183 909.442C836.12 911.335 839.088 908.369 837.152 906.475C834.604 903.972 832.752 901.173 832.415 897.534C831.952 892.737 833.657 882.617 842.961 888.613C846.772 891.075 849.213 897.807 851.213 901.615C852.203 903.488 855.15 902.583 855.129 900.563C855.108 895.198 854.644 886.657 860.707 884.153C870.011 880.303 872.685 895.682 870.138 899.911C868.727 902.246 872.369 904.35 873.78 902.036C877.842 895.304 874.474 881.208 865.97 879.251L865.949 879.209Z" fill="#F1D2D3"/>
<path d="M986.779 920.655C979.348 922.949 970.296 931.953 973.096 940.263C973.959 942.809 978.022 941.715 977.159 939.148C975.243 933.426 982.464 926.736 987.432 924.947C993.431 922.801 999.178 927.051 1000.04 933.131C1000.42 935.803 1004.48 934.667 1004.1 932.016C1002.97 924.001 994.673 918.236 986.779 920.676V920.655Z" fill="#F1D2D3"/>
<path d="M532.76 870.604C529.203 866.228 521.414 865.092 517.73 869.573C516.088 861.557 508.678 853.752 500.869 852.553C493.206 851.375 486.575 858.317 483.944 865.765C480.555 863.156 475.734 862.252 471.398 864.271C463.23 868.079 458.746 880.345 465.567 887.33C467.461 889.265 470.429 886.299 468.535 884.363C464.262 879.987 467.019 872.54 471.293 869.258C474.808 866.565 480.323 867.196 482.849 870.268C482.681 871.635 482.681 872.982 482.849 874.223C482.976 875.043 483.439 875.464 484.028 875.632C484.028 875.716 484.028 875.801 483.986 875.906C483.376 878.536 487.438 879.672 488.049 877.021C488.701 874.202 488.238 871.614 487.059 869.426C488.491 862.02 496.469 854.32 503.584 857.96C509.015 860.737 514.888 867.596 513.815 873.949C513.373 876.6 517.435 877.736 517.877 875.064C517.899 874.896 517.898 874.707 517.92 874.538C518.762 874.854 519.709 874.707 520.172 873.613C521.667 870.141 526.34 870.204 528.845 872.582C530.381 874.033 531.181 876.074 531.623 878.073C531.708 878.409 532.55 884.637 531.855 884.595C529.161 884.405 529.161 888.613 531.855 888.803C539.959 889.392 535.392 873.865 532.739 870.625L532.76 870.604Z" fill="#F1D2D3"/>
<path d="M463.651 915.332C460.094 902.225 443.906 902.288 439.085 912.345C432.37 905.381 417.108 913.06 423.802 924.863C425.129 927.219 428.77 925.094 427.444 922.738C422.371 913.776 436.538 911.019 437.801 919.603C438.159 921.96 441.99 921.37 441.927 919.035C441.674 907.864 456.578 905.381 459.567 916.447C460.283 919.056 464.346 917.941 463.63 915.332H463.651Z" fill="#F1D2D3"/>
<path d="M1343.46 964.858H1545.27C1545.48 964.71 1545.71 964.605 1545.95 964.458C1555.9 957.999 1564.18 948.216 1566.66 936.603C1569.14 924.989 1564.87 911.651 1554.83 905.318C1547.71 900.837 1537.93 901.005 1530.87 905.213C1537.65 894.168 1535.78 877.463 1524.85 869.847C1512.75 861.389 1493.99 867.154 1487.21 879.819C1489.91 872.393 1492.22 864.819 1492.54 856.971C1492.94 847.167 1489.68 836.669 1481.85 830.736C1469.51 821.395 1450.59 827.223 1440.59 839.025C1430.59 850.828 1427.26 866.733 1424.25 881.902C1426.15 870.983 1428.02 859.643 1425.24 848.914C1422.46 838.184 1413.64 828.169 1402.55 827.728C1390.19 827.223 1380.4 838.184 1375.06 849.313C1366.3 867.596 1364.36 889.055 1369.71 908.621C1365.1 900.984 1360.22 893.053 1352.57 888.466C1344.93 883.88 1333.69 883.943 1328.28 891.033C1323.97 896.692 1324.68 904.708 1326.81 911.483C1329.97 921.581 1335.92 930.733 1343.71 937.886C1335.31 933.889 1325.8 932.143 1316.54 933.131C1315.1 933.279 1329.44 955.453 1331.33 957.242C1335.21 960.881 1339.19 962.985 1343.44 964.9L1343.46 964.858Z" fill="#F9E9CA"/>
<path d="M1466.61 885.479C1463.6 881.797 1457.05 880.829 1453.93 884.616C1452.54 877.863 1446.31 871.298 1439.72 870.289C1433.28 869.3 1427.68 875.128 1425.47 881.397C1422.61 879.188 1418.57 878.431 1414.91 880.135C1408.02 883.354 1404.25 893.663 1410 899.553C1411.6 901.194 1414.11 898.691 1412.51 897.05C1408.91 893.368 1411.22 887.078 1414.84 884.321C1417.81 882.049 1422.44 882.575 1424.57 885.184C1424.42 886.341 1424.42 887.456 1424.57 888.508C1424.67 889.202 1425.07 889.56 1425.56 889.707C1425.56 889.792 1425.56 889.855 1425.52 889.939C1424.99 892.148 1428.42 893.095 1428.93 890.886C1429.47 888.508 1429.09 886.32 1428.1 884.49C1429.3 878.241 1436.02 871.761 1442.02 874.833C1446.59 877.168 1451.53 882.954 1450.65 888.298C1450.27 890.528 1453.7 891.496 1454.06 889.245C1454.08 889.097 1454.08 888.95 1454.1 888.803C1454.82 889.076 1455.62 888.929 1456 888.024C1457.26 885.1 1461.2 885.142 1463.3 887.162C1464.59 888.382 1465.26 890.086 1465.64 891.79C1465.7 892.085 1466.42 897.323 1465.83 897.281C1463.55 897.113 1463.55 900.669 1465.83 900.816C1472.65 901.321 1468.8 888.235 1466.56 885.5L1466.61 885.479Z" fill="#F1D2D3"/>
<path d="M1408.42 923.159C1405.43 912.114 1391.79 912.177 1387.75 920.634C1382.11 914.765 1369.25 921.244 1374.89 931.175C1376 933.152 1379.08 931.385 1377.94 929.386C1373.67 921.855 1385.6 919.519 1386.68 926.736C1386.97 928.734 1390.21 928.229 1390.15 926.273C1389.94 916.868 1402.49 914.786 1405.01 924.085C1405.6 926.273 1409.03 925.347 1408.42 923.138V923.159Z" fill="#F1D2D3"/>
<path d="M710.743 797.095C708.638 791.751 705.417 787.859 699.312 787.354C688.45 786.47 678.493 795.412 676.599 805.742C672.852 801.387 668.368 797.032 663.295 795.222C657.064 792.992 651.633 796.148 646.728 799.893C637.739 806.71 636.371 821.647 643.865 830.378C645.633 832.44 648.602 829.452 646.833 827.412C644.265 824.403 643.381 817.965 643.402 814.157C643.402 807.846 647.254 804.164 652.222 801.176C662.516 795.012 671.273 805.595 677.272 813.189C678.83 815.167 681.504 812.706 680.514 810.665C679.925 802.291 685.651 794.675 693.734 792.256C699.944 790.384 704.638 793.098 706.996 799.094C708.385 802.628 712.174 810.433 709.838 814.031C708.364 816.303 712.006 818.428 713.48 816.156C717.142 810.497 712.911 802.649 710.743 797.116V797.095Z" fill="#E7ECEE"/>
<path d="M814.206 785.502C808.67 784.661 802.839 786.007 798.755 789.289C797.871 777.003 794.25 760.929 781.873 761.876C771.305 762.697 756.275 778.181 763.959 788.7C765.537 790.867 769.2 788.764 767.6 786.575C760.78 777.255 781.599 758.804 789.219 770.039C793.577 776.498 794.693 786.092 794.798 794.234C794.061 795.79 793.598 797.537 793.451 799.472C793.303 801.723 796.187 802.06 797.261 800.545C798.145 800.377 798.945 799.746 798.987 798.589C799.008 797.579 799.029 796.401 799.008 795.117C801.197 791.499 805.66 789.71 810.102 789.479C814.375 789.268 824.942 793.055 819.006 798.694C817.027 800.566 820.016 803.533 821.974 801.66C828.858 795.138 821.658 786.596 814.227 785.481L814.206 785.502Z" fill="#E7ECEE"/>
<path d="M888.578 783.988C877.822 784.009 869.549 793.034 867.633 803.091C867.128 805.742 871.191 806.878 871.696 804.206C873.127 796.737 878.179 789.984 886.01 788.511C894.641 786.891 902.977 793.56 903.503 802.27C903.672 804.963 907.882 804.984 907.713 802.27C907.124 792.277 898.83 783.967 888.599 783.988H888.578Z" fill="#E7ECEE"/>
<path d="M327.138 851.123C325.559 847.252 320.655 845.106 316.95 843.885C310.592 841.782 304.003 843.401 299.204 847.504C298.846 837.847 282.827 828.843 274.848 828.716C260.85 828.485 252.303 840.246 249.651 852.722C244.009 847.252 234.347 847.167 228.453 854.342C220.854 863.578 222.222 877.106 229.842 885.794C231.632 887.835 234.6 884.848 232.81 882.828C227.99 877.337 226.243 869.679 228.579 862.694C230.2 857.897 233.926 853.121 239.378 852.743C243.736 852.427 247.125 855.204 248.788 858.865C248.788 859.138 248.746 859.412 248.725 859.685C248.704 860.527 249.104 861.074 249.651 861.39C249.672 861.495 249.714 861.579 249.735 861.684C250.24 864.335 254.303 863.22 253.798 860.569C253.629 859.643 253.356 858.802 253.04 857.981C253.798 848.493 258.092 838.205 267.439 834.418C272.954 832.188 279.08 832.588 284.321 835.533C287.879 837.532 297.857 845.842 294.089 850.723C293.183 851.901 293.689 853.353 294.615 854.047C294.91 855.709 297.394 856.698 298.488 854.826C301.562 849.566 307.308 846.284 313.476 847.399C317.139 848.072 320.697 849.524 322.444 852.827C324.486 856.677 323.054 860.906 321.581 864.819C320.612 867.344 324.675 868.438 325.643 865.934C327.285 861.642 328.969 855.646 327.138 851.123Z" fill="#E7ECEE"/>
<path d="M1194.8 839.803C1190.44 837.594 1185.37 838.394 1181.1 840.561C1178.84 831.746 1170.19 825.413 1160.47 827.538C1148.95 830.063 1141.77 840.624 1139.82 851.69C1135.14 846.536 1129.02 844.495 1122.49 850.344C1114.81 857.223 1115.12 868.542 1121.99 875.822C1123.84 877.799 1126.83 874.812 1124.95 872.855C1120.03 867.638 1119.36 859.748 1124.41 854.32C1126.7 851.859 1130.28 849.734 1133.63 851.438C1136.17 852.721 1137.82 855.625 1139.25 857.981C1139.25 858.086 1139.25 858.17 1139.25 858.275C1139.29 860.989 1143.5 860.989 1143.46 858.275C1143.33 848.934 1147.23 838.899 1155.67 833.997C1165.04 828.569 1176.09 833.134 1177.29 843.338C1175.62 845.484 1175.31 848.492 1178.4 849.902C1180.34 850.786 1182.04 848.703 1181.45 847.23C1181.45 847.146 1181.52 847.083 1181.54 846.999C1181.58 846.494 1181.6 846.01 1181.6 845.505C1183.31 844.537 1186.44 843.022 1186.63 842.98C1190.49 842.012 1193.66 843.548 1196.36 846.22C1200.25 850.091 1205.3 858.717 1198.63 862.546C1196.3 863.893 1198.4 867.532 1200.76 866.186C1211.81 859.811 1203.45 844.2 1194.78 839.782L1194.8 839.803Z" fill="#E7ECEE"/>
<path d="M1215.09 912.345C1213.37 908.726 1213.37 905.276 1209.7 902.562C1205.33 899.301 1199.37 898.88 1194.11 898.859C1183.1 898.838 1180.04 907.948 1176.8 917.121C1175.9 919.687 1179.96 920.781 1180.87 918.236C1183.67 910.304 1186.21 902.562 1196.44 903.151C1201.81 903.467 1207.45 903.972 1210.04 909.736C1210.8 911.44 1210.9 913.102 1211.66 914.764C1211.14 915.332 1210.69 915.985 1210.32 916.721C1209.12 919.14 1212.74 921.265 1213.96 918.846C1216.74 913.271 1231.7 915.164 1228.46 922.191C1227.35 924.632 1230.97 926.778 1232.1 924.316C1236.69 914.323 1223.3 908.81 1215.11 912.345H1215.09Z" fill="#E7ECEE"/>
<path d="M333.327 903.698C326.991 896.629 316.865 900.143 314.381 907.674C309.645 902.73 303.225 898.586 296.552 902.73C288.321 907.843 289.415 918.257 292.763 925.936C293.836 928.419 297.478 926.273 296.404 923.811C293.899 918.046 292.531 907.801 300.53 905.507C306.235 903.866 311.013 909.883 314.108 913.755C314.781 916.153 318.592 915.038 318.086 912.471C316.655 905.108 325.538 901.342 330.338 906.686C332.148 908.705 335.116 905.718 333.306 903.719L333.327 903.698Z" fill="#E7ECEE"/>
<path d="M512.278 741.721C506.952 734.694 497.079 736.104 493.522 742.878C490.449 737.682 484.491 732.611 478.408 734.379C475.187 735.304 472.703 738.734 471.019 741.448C469.04 744.603 468.303 747.822 469.987 751.252C470.787 752.893 473.25 751.462 472.429 749.821C470.935 746.791 472.577 744.077 474.324 741.658C476.471 738.691 478.513 736.293 482.618 737.345C487.08 738.481 490.512 742.247 492.133 746.392C492.175 746.518 492.259 746.602 492.322 746.686C492.259 747.086 492.196 747.486 492.175 747.885C492.091 749.716 494.932 749.716 495.017 747.885C495.353 740.08 505.016 736.819 509.815 743.152C510.91 744.582 513.373 743.173 512.257 741.721H512.278Z" fill="#CFD1F2"/>
<path d="M574.103 733.285C571.872 731.033 569.514 731.496 567.578 732.99C566.631 725.795 563.957 716.454 556.337 716.117C548.506 715.78 542.38 722.45 541.707 729.855C541.538 731.665 544.38 731.665 544.549 729.855C545.075 724.112 550.885 717.358 557.242 719.231C562.947 720.914 564.568 730.087 565.031 735.788C564.946 735.914 564.862 736.062 564.778 736.188C564.126 737.282 565.115 738.292 566.104 738.271C566.946 738.565 568.041 738.144 567.978 736.987C567.978 736.84 567.957 736.672 567.936 736.525C568.988 735.052 570.483 733.642 572.104 735.241C572.735 735.872 575.24 739.933 574.019 740.669C572.462 741.616 573.893 744.077 575.451 743.11C578.861 741.027 576.23 735.367 574.103 733.221V733.285Z" fill="#CFD1F2"/>
<path d="M425.823 768.461C424.413 768.693 423.255 769.492 422.455 770.565C421.192 767.83 419.066 765.221 417.445 763.412C414.246 759.836 409.951 759.667 405.699 761.519C398.815 764.527 395.09 775.004 403.847 778.329C405.552 778.981 406.288 776.246 404.604 775.594C401.11 774.268 400.857 770.018 402.689 767.325C404.036 765.327 406.373 764.064 408.667 763.454C412.183 762.507 414.772 764.443 416.687 767.157C418.119 769.198 421.361 773.363 420.561 775.951C420.034 777.697 422.771 778.455 423.297 776.709C423.318 776.645 423.318 776.561 423.339 776.498C423.929 776.267 424.392 775.678 424.16 774.878C423.739 773.384 424.56 771.575 426.181 771.26C427.76 770.944 429.297 772.354 429.381 773.868C429.507 775.678 432.349 775.699 432.223 773.868C432.012 770.67 429.128 767.893 425.802 768.44L425.823 768.461Z" fill="#CFD1F2"/>
<path d="M1357.94 741.721C1352.62 734.694 1342.74 736.104 1339.19 742.878C1336.11 737.682 1330.16 732.611 1324.07 734.379C1320.85 735.304 1318.37 738.734 1316.68 741.448C1314.71 744.603 1313.97 747.822 1315.65 751.252C1316.45 752.893 1318.92 751.462 1318.09 749.821C1316.6 746.791 1318.24 744.077 1319.99 741.658C1322.14 738.691 1324.18 736.293 1328.28 737.345C1332.75 738.481 1336.18 742.247 1337.8 746.392C1337.84 746.518 1337.92 746.602 1337.99 746.686C1337.92 747.086 1337.86 747.486 1337.84 747.885C1337.76 749.716 1340.6 749.716 1340.68 747.885C1341.02 740.08 1350.68 736.819 1355.48 743.152C1356.57 744.582 1359.04 743.173 1357.92 741.721H1357.94Z" fill="#CFD1F2"/>
<path d="M1419.77 733.285C1417.54 731.033 1415.18 731.496 1413.24 732.99C1412.3 725.795 1409.62 716.454 1402 716.117C1394.17 715.78 1388.05 722.45 1387.37 729.855C1387.2 731.665 1390.05 731.665 1390.21 729.855C1390.74 724.112 1396.55 717.358 1402.91 719.231C1408.61 720.914 1410.23 730.087 1410.7 735.788C1410.61 735.914 1410.53 736.062 1410.44 736.188C1409.79 737.282 1410.78 738.292 1411.77 738.271C1412.61 738.565 1413.71 738.144 1413.64 736.987C1413.64 736.84 1413.62 736.672 1413.6 736.525C1414.65 735.052 1416.15 733.642 1417.77 735.241C1418.4 735.872 1420.91 739.933 1419.68 740.669C1418.13 741.616 1419.56 744.077 1421.12 743.11C1424.53 741.027 1421.89 735.367 1419.77 733.221V733.285Z" fill="#CFD1F2"/>
<path d="M1271.49 768.461C1270.08 768.693 1268.92 769.492 1268.12 770.565C1266.86 767.83 1264.73 765.221 1263.11 763.412C1259.91 759.836 1255.62 759.667 1251.36 761.519C1244.48 764.527 1240.75 775.004 1249.51 778.329C1251.22 778.981 1251.95 776.246 1250.27 775.594C1246.78 774.268 1246.52 770.018 1248.35 767.325C1249.7 765.327 1252.04 764.064 1254.33 763.454C1257.85 762.507 1260.44 764.443 1262.35 767.157C1263.78 769.198 1267.03 773.363 1266.23 775.951C1265.7 777.697 1268.44 778.455 1268.96 776.709C1268.98 776.645 1268.98 776.561 1269 776.498C1269.59 776.267 1270.06 775.678 1269.83 774.878C1269.4 773.384 1270.23 771.575 1271.85 771.26C1273.43 770.944 1274.96 772.354 1275.05 773.868C1275.17 775.678 1278.01 775.699 1277.89 773.868C1277.68 770.67 1274.79 767.893 1271.47 768.44L1271.49 768.461Z" fill="#CFD1F2"/>
<path d="M1073.78 757.732C1064.08 751.799 1052.84 756.743 1045.76 764.485C1044.75 749.169 1034.88 734.821 1018.21 733.706C1002.34 732.633 989.621 746.855 993.242 762.465C993.726 764.527 996.905 763.665 996.42 761.582C992.842 746.182 1007.56 733.832 1022.33 737.682C1036.5 741.364 1043.05 755.06 1042.5 768.693C1042.25 769.072 1042.02 769.45 1041.78 769.85C1040.82 771.533 1043.07 773.027 1044.29 771.891C1044.98 771.765 1045.64 771.26 1045.7 770.376C1045.7 770.166 1045.72 769.976 1045.74 769.766C1051 762.066 1060.75 755.775 1070.18 759.646C1077.04 762.465 1081.17 771.07 1078.52 777.887C1078.01 776.057 1075.07 776.94 1075.4 778.939C1075.61 780.264 1075.84 781.569 1076.05 782.894C1076.24 784.093 1078.03 784.493 1078.81 783.63C1085.78 775.636 1082.54 763.097 1073.78 757.732Z" fill="#CFD1F2"/>
<path d="M1108.22 715.696C1102.68 711.594 1094.89 711.005 1089.97 716.349C1084.98 721.755 1085.06 730.129 1086.03 736.903C1086.33 738.986 1089.51 738.103 1089.21 736.02C1088.03 727.857 1089.51 713.003 1101.65 716.054C1112.7 718.831 1112.79 730.907 1115.46 739.596C1114.83 737.577 1111.65 738.439 1112.28 740.48C1113.69 745.066 1118.62 742.226 1118.64 738.397C1118.66 730.76 1114.43 720.283 1108.2 715.696H1108.22Z" fill="#CFD1F2"/>
<path d="M118.085 757.732C108.38 751.799 97.1394 756.743 90.0664 764.485C89.056 749.169 79.1833 734.821 62.5112 733.706C46.6391 732.633 33.9245 746.855 37.5452 762.465C38.0294 764.527 41.208 763.665 40.7239 761.582C37.1453 746.182 51.8596 733.832 66.6371 737.682C80.8042 741.364 87.3509 755.06 86.8036 768.693C86.551 769.072 86.3194 769.45 86.0879 769.85C85.1195 771.533 87.372 773.027 88.5929 771.891C89.2876 771.765 89.9401 771.26 90.0033 770.376C90.0033 770.166 90.0243 769.976 90.0454 769.766C95.308 762.066 105.054 755.775 114.485 759.646C121.348 762.465 125.474 771.07 122.821 777.887C122.316 776.057 119.369 776.94 119.706 778.939C119.916 780.264 120.148 781.569 120.358 782.894C120.548 784.093 122.337 784.493 123.116 783.63C130.084 775.636 126.842 763.097 118.085 757.732Z" fill="#CFD1F2"/>
<path d="M152.523 715.696C146.987 711.594 139.198 711.005 134.273 716.349C129.284 721.755 129.368 730.129 130.336 736.903C130.631 738.986 133.809 738.103 133.515 736.02C132.336 727.857 133.809 713.003 145.956 716.054C157.007 718.831 157.091 730.907 159.765 739.596C159.133 737.577 155.955 738.439 156.586 740.48C157.997 745.066 162.922 742.226 162.943 738.397C162.965 730.76 158.733 720.283 152.502 715.696H152.523Z" fill="#CFD1F2"/>
<path d="M1054.23 918.972C1067.68 919.098 1082.62 923.033 1095.67 921.876C1089.86 918.657 1086.35 911.588 1088.66 905.087C1090.96 898.691 1098.66 894.799 1105.19 896.776C1111.69 898.754 1115.97 906.265 1114.3 912.871C1114.96 906.77 1115.73 900.5 1118.81 895.177C1121.88 889.876 1127.8 885.731 1133.86 886.594C1139.92 887.477 1144.66 894.904 1141.5 900.164C1145.35 892.442 1157.12 890.233 1163.52 896.04C1170.02 901.931 1168.66 912.976 1161.98 918.11C1172.72 913.691 1189.18 921.434 1200.78 921.77C1323 925.347 1445.41 922.128 1567.1 909.61C1567.52 924.905 1546.94 1045.04 1579.67 1046.74C1506.5 1042.93 1433.28 1039.94 1360.05 1037.8C1185.66 1032.67 1011.16 1032.2 836.752 1036.43C668.957 1040.49 501.058 1061.13 333.495 1043.58C272.975 1037.25 217.528 1024.54 156.397 1021.68C90.361 1018.57 24.3253 1015.48 -41.7104 1012.36C-58.1088 1011.58 -75.3913 1010.55 -89.1584 1001.61C-115.219 984.676 -117.745 948.174 -117.514 917.121C7.86375 919.624 132.757 923.916 257.692 930.354C272.996 931.133 288.657 932.816 303.877 933.131C321.854 933.51 306.445 921.686 320.423 917.247C325.917 915.501 332.443 920.087 332.653 925.852C334.19 918.783 335.895 911.398 340.652 905.949C345.41 900.5 354.23 897.87 359.998 902.246C364.545 905.697 365.618 911.966 366.376 917.605C367.092 913.123 369.744 908.832 373.786 906.77C377.849 904.729 383.28 905.339 386.311 908.726C389.363 912.093 389.153 918.089 385.532 920.803C388.774 917.478 393.047 914.912 397.678 914.764C402.31 914.617 407.193 917.394 408.477 921.833C409.762 926.273 406.309 931.764 401.678 931.658C438.032 932.542 474.155 933.089 510.573 932.5C530.508 932.184 550.443 931.785 570.377 931.301C580.755 931.048 591.154 930.775 601.532 930.48C606.584 930.333 626.414 926.693 630.056 929.597C623.13 924.085 623.32 911.882 630.435 906.601C637.55 901.321 649.296 904.666 652.58 912.892C650.98 904.161 653.759 894.567 660.348 888.634C666.937 882.701 677.314 881.039 685.082 885.31C692.85 889.581 696.976 899.869 693.608 908.074C698.744 900.626 704.175 892.884 712.153 888.592C720.131 884.3 731.414 884.679 736.845 891.916C742.655 899.617 739.435 910.515 736.025 919.54C739.203 913.986 748.065 908.516 754.17 912.471C758.991 915.585 759.685 922.486 756.591 927.009C765.137 922.717 775.957 923.538 785.22 923.243C798.019 922.822 810.817 922.422 823.616 922.044C849.214 921.286 874.832 920.613 900.43 920.087C951.688 919.014 1002.95 918.488 1054.23 918.951V918.972Z" fill="#E7ECEE"/>
<rect width="1440" height="959" transform="translate(0 1)" fill="#070707" fill-opacity="0.05"/>
</g>
</g>
<defs>
<clipPath id="clip0_211_2">
<rect width="1440" height="960" fill="white"/>
</clipPath>
<clipPath id="clip1_211_2">
<rect width="1623" height="1033" fill="white" transform="translate(-92 -45)"/>
</clipPath>
</defs>
</svg>
