<svg width="3167" height="2111" viewBox="0 0 3167 2111" fill="none" xmlns="http://www.w3.org/2000/svg">
<g clip-path="url(#clip0_213_1595)">
<rect width="3167" height="2111" fill="white"/>
<g clip-path="url(#clip1_213_1595)">
<rect width="3387" height="2156" transform="translate(-92 -45)" fill="#D1F3F7"/>
<path d="M860.314 1968.73C747.414 1971.45 640.84 1963.33 529.434 1975.62C475.224 1981.6 178.609 2012.73 177.335 1948.22C122.422 1927.19 61.2719 1937.95 2.53751 1941.07C-56.1969 1944.18 -122.707 1935.58 -158.817 1889.17C-185.702 1854.61 -188.777 1806.53 -179.596 1763.76C-167.999 1709.84 -135.051 1657.1 -83.4774 1637.47C-31.9036 1617.84 36.9347 1643.71 50.2015 1697.28C58.1968 1660.92 77.4381 1632.11 107.662 1610.82C144.387 1584.91 200.266 1581.09 231.413 1613.45C227.679 1548.68 279.999 1485.58 344.357 1477.2C408.714 1468.81 475.444 1516.45 488.403 1580.04C510.5 1477.33 505.404 1389.03 611.275 1334.27C680.421 1298.53 782.953 1317.72 809.838 1390.74C852.626 1285.66 960.694 1210.57 1074.08 1207.11C1187.5 1203.64 1299.97 1271.96 1349.08 1374.18C1363.75 1309.64 1437.03 1264.94 1501.16 1281.45C1565.3 1297.91 1607.91 1372.43 1589.6 1436.01C1607.39 1400.66 1664.14 1403.47 1690.15 1433.33C1716.16 1463.19 1718.05 1506.97 1712.73 1546.18C1750.95 1475.49 1819.92 1422.18 1897.98 1403.03C1976.05 1383.89 2061.89 1399.17 2128.48 1444.13C2093.74 1379.63 2114.6 1293.35 2169.03 1244.25C2223.46 1195.16 2304.6 1181.77 2375.41 1200.78C2446.23 1219.8 2506.76 1268.01 2550.83 1326.59C2560.36 1269.81 2636.93 1216.5 2691.53 1247.68C2737.27 1273.76 2770.21 1363.95 2776.63 1411.64C2814.71 1341.43 2910.83 1307.09 2981.6 1351.04C3050.49 1393.77 3067.93 1500.43 3016.26 1562.87C3039.59 1534.59 3086.82 1534.85 3115.15 1558.04C3143.49 1581.27 3154.07 1621.18 3149.59 1657.54C3145.11 1693.9 3127.58 1727.36 3107.86 1758.18C3164.84 1730.12 3235.78 1732.54 3290.74 1764.46C3329.79 1787.16 3362.34 1832.04 3349.69 1875.38C3334.98 1925.74 3272.95 1941.95 3220.93 1949.06C3088.66 1967.15 2955.77 1980.32 2822.75 1991.56C2699.79 2001.93 2579.86 2019.58 2458.71 2033.59C2362.28 2044.74 2264.84 2033.02 2168.33 2022.7C1734.08 1976.24 1296.8 1958.19 860.226 1968.77L860.314 1968.73Z" fill="#E9F4DD"/>
<path d="M3194.36 1631.45C3219.88 1633.21 3244.3 1646.87 3259.15 1667.64C3269.17 1681.69 3274.79 1698.33 3280.24 1714.71C3300.53 1775.61 3320.87 1836.52 3341.17 1897.42C3197.39 1895.44 3051.67 1886.22 2908.02 1891.4C2808.43 1895 2701.15 1904.31 2623 1823.74C2610 1810.35 2547.36 1689.68 2549.9 1689.28C2575.25 1684.98 2602.58 1696.53 2617.16 1717.65C2605.26 1695.87 2594.49 1672.42 2594.05 1647.61C2593.57 1622.37 2611.98 1579.33 2644 1583.2C2667.86 1586.05 2697.95 1632.99 2707.83 1652.49C2701.77 1630.44 2695.66 1608.4 2689.6 1586.36C2685.95 1573.19 2682.4 1558.96 2687.14 1546.18C2694.13 1527.52 2718.07 1519.04 2737.09 1525.1C2756.11 1531.16 2769.82 1548.46 2776.63 1567.21C2783.44 1585.96 2784.4 1606.21 2785.28 1626.14C2773.95 1603.75 2786.51 1572.66 2810.28 1564.49C2834.04 1556.28 2863.12 1573.01 2868 1597.64C2862.29 1568.88 2828.02 1502.62 2859.61 1479.48C2870.86 1471.27 2887.59 1473.55 2898.27 1482.47C2908.94 1491.38 2914.21 1505.52 2915.31 1519.4C2916.41 1533.27 2913.78 1547.15 2911.18 1560.85C2910.35 1531.21 2936.75 1503.54 2966.4 1502.93C2996.06 1502.31 3023.56 1528.88 3024 1558.52C3024 1526.9 3018.77 1494.19 3052.51 1478.73C3076.49 1467.76 3108.87 1477.46 3122.05 1500.47C3137.64 1527.65 3124.73 1566.51 3096.7 1580.47C3154.25 1551.76 3257.35 1571.17 3217.46 1657.93C3207.1 1680.55 3188.12 1698.02 3168.57 1713.44C3189.83 1708.56 3204.33 1739.74 3193.7 1758.75C3182.01 1779.65 3161.63 1787.51 3139.05 1791.77C3110.85 1797.08 3079.17 1796.82 3056.81 1809.34C2994.83 1844.07 2949.23 1890.97 2874.46 1899.26C2869.01 1899.88 2863.39 1900.32 2857.59 1900.58" fill="#E7ECEE"/>
<path d="M-41.9203 1638.44C-23.5136 1646.56 -8.1821 1660.48 9.78525 1669.57C-24.0847 1645.81 -44.0729 1603.66 -41.0417 1562.43C-40.1192 1550.09 -37.1319 1537.57 -29.7956 1527.65C-22.4593 1517.73 -10.1589 1510.83 2.09751 1512.41C18.1319 1514.52 29.2023 1529.76 34.5618 1545C39.9212 1560.23 41.6784 1576.79 49.1465 1591.1C56.1314 1553.73 91.7147 1523.74 129.758 1523.22C167.801 1522.69 204.219 1551.58 212.258 1588.77C213.928 1565.59 208.217 1542.58 205.142 1519.57C202.067 1496.56 201.979 1471.71 213.752 1451.69C225.525 1431.62 252.586 1419.1 273.058 1430.13C284.523 1436.27 291.728 1448.26 295.901 1460.56C306.928 1493.05 300.162 1528.53 293.309 1562.16C289.487 1540.34 302.754 1516.72 323.401 1508.64C344.048 1500.56 369.835 1508.86 381.872 1527.48C393.909 1546.09 390.878 1573.01 375.019 1588.47C372.998 1539.99 405.682 1492.13 451.545 1476.32C470.742 1469.73 495.87 1470.3 506.809 1487.39C515.287 1500.6 511.597 1518.08 505.974 1532.79C495.08 1561.07 477.903 1586.93 456.026 1607.92C540.371 1526.9 638.994 1700.92 537.823 1750.23C552.408 1720.64 599.633 1719.58 621.51 1744.3C643.387 1769.03 641.542 1808.41 624.717 1836.78C607.892 1865.15 579.162 1884.38 549.816 1899.48C474.784 1938.13 401.684 1944.32 319.931 1946.07C226.492 1948.05 134.063 1963.9 39.8334 1962.32C10.9274 1961.84 -18.4617 1960.52 -45.7861 1951.08C-173.622 1906.9 -144.101 1593.38 -41.8764 1638.48L-41.9203 1638.44Z" fill="#F6EBC4"/>
<path d="M2544.24 1899.4C2438.45 1953.85 2312.2 1962.14 2198.33 1930.27C2130.99 1911.38 2068.21 1870.15 2024.02 1815.97C2004.73 1792.3 1972.09 1791.77 1946.53 1773.29C1920.74 1754.62 1900.49 1727.97 1890.82 1697.54C1885.2 1679.76 1883.71 1658.28 1896.23 1644.45C1909.76 1629.52 1934.01 1630.31 1952.41 1638.44C1970.82 1646.56 1986.15 1660.48 2004.12 1669.57C1970.25 1645.81 1950.26 1603.66 1953.29 1562.43C1954.21 1550.09 1957.2 1537.57 1964.54 1527.65C1971.87 1517.73 1984.17 1510.83 1996.43 1512.41C2012.47 1514.52 2023.54 1529.76 2028.9 1545C2034.25 1560.23 2036.01 1576.79 2043.48 1591.1C2050.46 1553.73 2086.05 1523.74 2124.09 1523.22C2162.13 1522.69 2198.55 1551.58 2206.59 1588.77C2208.26 1565.59 2202.55 1542.58 2199.48 1519.57C2196.4 1496.56 2196.31 1471.71 2208.09 1451.69C2219.86 1431.62 2246.92 1419.1 2267.39 1430.13C2278.86 1436.27 2286.06 1448.26 2290.23 1460.56C2301.26 1493.05 2294.5 1528.53 2287.64 1562.16C2283.82 1540.34 2297.09 1516.72 2317.73 1508.64C2338.38 1500.56 2364.17 1508.86 2376.21 1527.48C2388.24 1546.09 2385.21 1573.01 2369.35 1588.47C2367.33 1539.99 2400.02 1492.13 2445.88 1476.32C2465.08 1469.73 2490.2 1470.3 2501.14 1487.39C2509.62 1500.6 2505.93 1518.08 2500.31 1532.79C2489.41 1561.07 2472.24 1586.93 2450.36 1607.92C2534.7 1526.9 2633.33 1700.92 2532.16 1750.23C2546.74 1720.64 2593.97 1719.58 2615.84 1744.3C2637.72 1769.03 2635.88 1808.41 2619.05 1836.78C2602.22 1865.15 2573.49 1884.38 2544.15 1899.48L2544.24 1899.4Z" fill="#E7ECEE"/>
<path d="M1374.21 1791.68C1346 1797 1314.33 1796.73 1291.97 1809.25C1229.98 1843.98 1184.39 1890.88 1109.62 1899.18C1032.04 1907.78 914.304 1881.57 858.249 1823.74C845.246 1810.35 782.602 1689.68 785.15 1689.28C810.497 1684.98 837.822 1696.53 852.407 1717.65C840.502 1695.87 829.739 1672.42 829.299 1647.61C828.816 1622.37 847.223 1579.33 879.248 1583.2C903.102 1586.05 933.15 1632.99 943.078 1652.49C937.016 1630.44 930.909 1608.4 924.847 1586.36C921.201 1573.19 917.643 1558.96 922.387 1546.18C929.372 1527.52 953.314 1519.04 972.335 1525.1C991.313 1531.16 1005.06 1548.46 1011.87 1567.21C1018.68 1585.96 1019.65 1606.21 1020.53 1626.14C1009.19 1603.75 1021.76 1572.66 1045.52 1564.49C1069.29 1556.28 1098.37 1573.01 1103.25 1597.64C1097.54 1568.88 1063.27 1502.62 1094.86 1479.48C1106.1 1471.27 1122.84 1473.55 1133.51 1482.47C1144.19 1491.38 1149.46 1505.52 1150.56 1519.4C1151.66 1533.27 1149.02 1547.15 1146.43 1560.85C1145.6 1531.21 1172 1503.54 1201.65 1502.93C1231.3 1502.31 1258.8 1528.88 1259.24 1558.52C1259.24 1526.9 1254.01 1494.19 1287.75 1478.73C1311.74 1467.76 1344.11 1477.46 1357.29 1500.47C1372.89 1527.65 1359.97 1566.51 1331.95 1580.47C1389.49 1551.76 1492.6 1571.17 1452.71 1657.93C1442.34 1680.55 1423.36 1698.02 1403.82 1713.44C1425.08 1708.56 1439.57 1739.74 1428.94 1758.75C1417.26 1779.65 1396.87 1787.51 1374.29 1791.77L1374.21 1791.68Z" fill="#E7ECEE"/>
<path d="M1097.67 2030.69C1120.99 2042.32 1148.32 2047.29 1168.88 2062.7H2315.41C2333.02 2032.05 2336.27 1992.62 2317.87 1962.1C2288.35 1913.1 2212.43 1902.56 2168.94 1938.35C2192.45 1914.28 2207.29 1881.79 2209.67 1848.2C2175.49 1841.52 2138.54 1851.05 2111.83 1873.4C2146.8 1841.52 2169.56 1794.71 2166.31 1747.55C2163.06 1700.39 2130.99 1654.77 2085.56 1641.51C2040.14 1628.25 1985.14 1653.19 1970.38 1698.11C1973.81 1641.82 1931.37 1586.23 1876.11 1574.72C1820.84 1563.17 1759.69 1597.12 1740.28 1650.07C1733.07 1585.88 1717.56 1510.04 1657.82 1485.32C1605.85 1463.81 1544.17 1496.08 1513.73 1543.33C1486.8 1585.09 1478.32 1635.36 1472.52 1685.07C1467.95 1654.33 1427.54 1628.73 1397.93 1644.85C1366.61 1661.89 1363.71 1710.01 1386.55 1736.36C1349.61 1708.12 1295.31 1703.51 1254.81 1726.83C1213.47 1750.67 1190.14 1801.52 1197.39 1848.42C1188.3 1827.08 1155.04 1817.55 1134.35 1831.6C1110.14 1848.07 1104.92 1883.15 1114.49 1910.81C1124.07 1938.48 1145.02 1960.43 1165.36 1981.47C1151.17 1967.33 1136.28 1952.75 1117.35 1946.21C1098.41 1939.71 1074.17 1943.88 1063.8 1961.05C1048.77 1985.9 1071.66 2017.69 1097.67 2030.69Z" fill="#F1D2D3"/>
<path d="M198.465 2045.4C212.215 2052.25 227.678 2056.24 241.472 2062.7H1190.71C1200.99 2039.38 1201.56 2011.72 1188.34 1989.72C1164.4 1949.98 1102.81 1941.42 1067.53 1970.44C1086.6 1950.9 1098.63 1924.56 1100.57 1897.33C1072.85 1891.93 1042.84 1899.66 1021.18 1917.75C1049.56 1891.89 1068.01 1853.95 1065.38 1815.66C1062.74 1777.37 1036.74 1740.4 999.879 1729.64C963.022 1718.88 918.433 1739.12 906.44 1775.57C909.207 1729.9 874.766 1684.81 829.958 1675.45C785.149 1666.1 735.552 1693.63 719.781 1736.58C713.939 1684.5 701.331 1622.98 652.92 1602.91C610.791 1585.48 560.711 1611.61 536.022 1649.99C514.189 1683.88 507.292 1724.68 502.592 1764.99C498.902 1740.05 466.086 1719.28 442.056 1732.36C416.665 1746.19 414.292 1785.23 432.831 1806.61C402.871 1783.74 358.809 1779.96 325.949 1798.89C292.431 1818.21 273.497 1859.48 279.384 1897.51C272.003 1880.21 245.03 1872.48 228.249 1883.9C208.612 1897.25 204.395 1925.7 212.171 1948.18C219.946 1970.62 236.947 1988.45 253.465 2005.53C241.955 1994.07 229.874 1982.21 214.499 1976.94C199.123 1971.67 179.443 1975.05 171.052 1988.97C158.84 2009.13 177.422 2034.9 198.508 2045.44L198.465 2045.4Z" fill="#F1D2D3"/>
<path d="M2185.28 2051.33C2194.38 2055.89 2204.35 2059.05 2213.93 2062.7H3085.85C3093.41 2042.54 3093.14 2019.49 3081.94 2000.92C3060.24 1964.91 3004.4 1957.18 2972.47 1983.48C2989.77 1965.79 3000.67 1941.9 3002.43 1917.22C2977.3 1912.35 2950.15 1919.33 2930.51 1935.71C2956.21 1912.31 2972.91 1877.88 2970.53 1843.23C2968.16 1808.55 2944.57 1775.04 2911.18 1765.34C2877.8 1755.59 2837.38 1773.94 2826.53 1806.92C2829.03 1765.56 2797.84 1724.72 2757.25 1716.25C2716.66 1707.77 2671.72 1732.71 2657.44 1771.62C2652.13 1724.41 2640.75 1668.69 2596.86 1650.56C2558.69 1634.75 2513.35 1658.46 2490.99 1693.19C2471.22 1723.89 2464.99 1760.86 2460.73 1797.35C2457.39 1774.73 2427.65 1755.94 2405.9 1767.8C2382.88 1780.31 2380.77 1815.66 2397.55 1835.07C2370.41 1814.34 2330.52 1810.92 2300.73 1828.09C2270.38 1845.61 2253.2 1882.97 2258.56 1917.44C2251.88 1901.77 2227.46 1894.74 2212.21 1905.1C2194.42 1917.22 2190.6 1943 2197.63 1963.33C2204.66 1983.66 2220.08 1999.82 2235.01 2015.28C2224.6 2004.87 2213.66 1994.15 2199.74 1989.37C2185.81 1984.58 2167.98 1987.66 2160.38 2000.26C2149.31 2018.52 2166.13 2041.88 2185.24 2051.41L2185.28 2051.33Z" fill="#F1D2D3"/>
<path d="M1712.78 2045.53C1715.76 2051.72 1719.06 2057.39 1722.48 2062.7H2409.86C2415 2059.67 2419.83 2056.2 2424.26 2052.12C2441.22 2036.48 2450.14 2009.74 2438.76 1989.68C2429.98 1974.17 2411.22 1966.31 2393.38 1966.45C2375.55 1966.53 2358.46 1973.34 2342.51 1981.29C2368.3 1962.8 2389.08 1935.4 2393.56 1904.01C2398.04 1872.61 2383.32 1837.7 2354.68 1824C2326.04 1810.3 2285.84 1824.4 2276.7 1854.78C2282.55 1830.24 2288.39 1805.25 2287.12 1780.05C2285.84 1754.84 2276.44 1728.89 2256.67 1713.17C2227.28 1689.86 2183.4 1695.39 2150.58 1713.57C2104.72 1738.95 2072.12 1786.98 2065.53 1838.97C2056.92 1813.51 2066.59 1785.89 2067.6 1759.01C2068.61 1732.14 2052.92 1699.21 2026.08 1700.96C2008.73 1702.11 1996.08 1717.43 1986.72 1732.1C1954.26 1782.77 1933.61 1840.99 1926.89 1900.8C1888.58 1864.18 1887.62 1790.15 1836.88 1774.95C1801.34 1764.28 1764.04 1794.8 1753.5 1830.37C1742.96 1865.94 1751.61 1904.05 1760.26 1940.1C1752.4 1919.99 1744.05 1899.09 1728.02 1884.6C1711.98 1870.11 1685.93 1864.27 1668.76 1877.35C1647.98 1893.2 1651.27 1925.52 1661.11 1949.72C1674.69 1983.13 1697 2013.04 1712.78 2045.53Z" fill="#F9E9CA"/>
<path d="M-136.721 2048.96C-134.305 2053.92 -131.713 2058.44 -128.945 2062.7H421.233C425.363 2060.28 429.229 2057.52 432.787 2054.22C446.361 2041.71 453.478 2020.33 444.385 2004.25C437.356 1991.83 422.332 1985.55 408.055 1985.64C393.777 1985.72 380.115 1991.17 367.331 1997.54C387.978 1982.74 404.628 1960.83 408.186 1935.67C411.745 1910.51 399.971 1882.58 377.04 1871.65C354.108 1860.67 321.952 1871.95 314.615 1896.28C319.272 1876.61 323.973 1856.63 322.962 1836.43C321.952 1816.23 314.396 1795.46 298.581 1782.9C275.078 1764.24 239.935 1768.68 213.664 1783.21C176.939 1803.54 150.888 1842.01 145.573 1883.59C138.676 1863.21 146.408 1841.08 147.242 1819.61C148.033 1798.1 135.469 1771.75 113.987 1773.15C100.105 1774.08 90.0016 1786.33 82.4896 1798.05C56.483 1838.62 39.9654 1885.21 34.6059 1933.08C3.94279 1903.79 3.19598 1844.51 -37.4392 1832.35C-65.9058 1823.83 -95.7343 1848.24 -104.169 1876.7C-112.603 1905.15 -105.706 1935.67 -98.7215 1964.52C-105.004 1948.4 -111.681 1931.71 -124.508 1920.12C-137.336 1908.53 -158.203 1903.83 -171.953 1914.33C-188.558 1927.02 -185.966 1952.88 -178.103 1972.24C-167.208 1998.99 -149.373 2022.96 -136.765 2048.91L-136.721 2048.96Z" fill="#F9E9CA"/>
<path d="M906.616 2062.7H1406.8C1407.33 2062.35 1407.94 2062.04 1408.47 2061.69C1433.16 2045.66 1453.68 2021.42 1459.83 1992.62C1465.98 1963.86 1455.39 1930.75 1430.48 1915.07C1412.82 1903.96 1388.62 1904.36 1371.13 1914.81C1387.96 1887.41 1383.3 1846.05 1356.2 1827.12C1326.19 1806.17 1279.71 1820.45 1262.93 1851.84C1269.61 1833.44 1275.36 1814.65 1276.15 1795.2C1277.12 1770.87 1269.04 1744.88 1249.62 1730.17C1219.05 1707.02 1172.13 1721.43 1147.4 1750.72C1122.66 1780 1114.36 1819.39 1106.94 1857.02C1111.64 1829.93 1116.29 1801.87 1109.35 1775.26C1102.46 1748.65 1080.58 1723.84 1053.12 1722.74C1022.5 1721.52 998.21 1748.65 984.987 1776.27C963.242 1821.59 958.453 1874.81 971.764 1923.28C960.342 1904.36 948.217 1884.69 929.284 1873.31C910.35 1861.94 882.498 1862.07 869.1 1879.64C858.425 1893.64 860.182 1913.49 865.453 1930.31C873.273 1955.34 888.033 1978.04 907.363 1995.78C886.54 1985.86 862.993 1981.55 840.018 1984.01C836.46 1984.41 871.999 2039.34 876.656 2043.77C886.232 2052.82 896.117 2058 906.66 2062.74L906.616 2062.7Z" fill="#F9E9CA"/>
<path d="M2185.64 1875.29C2179.49 1870.59 2171.4 1869.36 2164.11 1871.21C2169.21 1844.68 2165.6 1811.58 2131.47 1813.64C2108.36 1815.04 2090.35 1830.98 2082.18 1851.31C2076.12 1839.2 2063.95 1831.16 2048.44 1833.27C2025.73 1836.3 2016.95 1857.77 2018.26 1878.32C2018.62 1883.94 2027.4 1883.98 2027.05 1878.32C2026.35 1867.47 2027.27 1850.92 2039.48 1845.52C2058.5 1837.09 2077.74 1848.07 2077.61 1869.89C2077.61 1875.64 2085.87 1875.42 2086.4 1869.89C2088.24 1849.95 2100.19 1832.61 2119.3 1825.5C2157.48 1811.22 2160.16 1851.84 2153.92 1876.52C2152.87 1877.44 2151.85 1878.41 2150.93 1879.55C2147.46 1883.94 2153.66 1890.18 2157.13 1885.74C2157.48 1885.3 2157.87 1884.95 2158.27 1884.55C2159.63 1884.33 2160.86 1883.5 2161.43 1881.92C2166.88 1878.45 2174.17 1877.97 2179.79 1881.92C2187.79 1887.58 2188.58 1899 2183.97 1906.99C2181.16 1911.91 2188.71 1916.35 2191.57 1911.43C2198.24 1899.84 2196.71 1883.81 2185.64 1875.38V1875.29Z" fill="#F1D2D3"/>
<path d="M1907.12 1883.94C1887.7 1879.46 1879.71 1896.94 1876.98 1913.36C1868.51 1898.83 1855.68 1882.8 1839.6 1893.12C1820.36 1905.46 1827.34 1933.82 1840.83 1947.04C1844.87 1950.99 1851.07 1944.8 1847.02 1940.85C1841.71 1935.62 1837.84 1929.78 1837.14 1922.19C1836.17 1912.17 1839.73 1891.05 1859.15 1903.57C1867.1 1908.71 1872.2 1922.76 1876.37 1930.7C1878.43 1934.61 1884.58 1932.72 1884.54 1928.51C1884.5 1917.31 1883.53 1899.48 1896.18 1894.26C1915.6 1886.22 1921.18 1918.32 1915.86 1927.15C1912.92 1932.02 1920.52 1936.41 1923.46 1931.58C1931.94 1917.53 1924.91 1888.11 1907.16 1884.03L1907.12 1883.94Z" fill="#F1D2D3"/>
<path d="M2159.28 1970.44C2143.77 1975.23 2124.88 1994.02 2130.72 2011.37C2132.52 2016.68 2141 2014.4 2139.2 2009.04C2135.2 1997.1 2150.27 1983.13 2160.64 1979.4C2173.16 1974.92 2185.15 1983.79 2186.95 1996.48C2187.74 2002.06 2196.22 1999.69 2195.43 1994.15C2193.06 1977.43 2175.75 1965.39 2159.28 1970.49V1970.44Z" fill="#F1D2D3"/>
<path d="M1211.8 1865.98C1204.37 1856.85 1188.12 1854.48 1180.43 1863.83C1177.01 1847.1 1161.54 1830.81 1145.24 1828.31C1129.25 1825.85 1115.42 1840.34 1109.92 1855.88C1102.85 1850.44 1092.79 1848.55 1083.74 1852.76C1066.7 1860.71 1057.34 1886.31 1071.57 1900.89C1075.53 1904.93 1081.72 1898.74 1077.77 1894.7C1068.85 1885.56 1074.6 1870.02 1083.52 1863.17C1090.86 1857.55 1102.37 1858.87 1107.64 1865.28C1107.29 1868.13 1107.29 1870.94 1107.64 1873.53C1107.9 1875.25 1108.87 1876.12 1110.1 1876.47C1110.1 1876.65 1110.1 1876.83 1110.01 1877.05C1108.74 1882.53 1117.22 1884.91 1118.49 1879.37C1119.85 1873.49 1118.89 1868.09 1116.43 1863.52C1119.41 1848.06 1136.06 1831.99 1150.91 1839.59C1162.24 1845.39 1174.5 1859.7 1172.26 1872.96C1171.34 1878.49 1179.82 1880.87 1180.74 1875.29C1180.78 1874.94 1180.78 1874.54 1180.83 1874.19C1182.58 1874.85 1184.56 1874.54 1185.53 1872.26C1188.65 1865.01 1198.4 1865.15 1203.63 1870.11C1206.83 1873.14 1208.5 1877.4 1209.43 1881.57C1209.6 1882.27 1211.36 1895.27 1209.91 1895.18C1204.29 1894.79 1204.29 1903.57 1209.91 1903.96C1226.82 1905.19 1217.29 1872.79 1211.75 1866.02L1211.8 1865.98Z" fill="#F1D2D3"/>
<path d="M1067.58 1959.33C1060.15 1931.98 1026.37 1932.11 1016.31 1953.1C1002.3 1938.56 970.446 1954.59 984.416 1979.22C987.184 1984.14 994.784 1979.71 992.016 1974.79C981.429 1956.08 1010.99 1950.33 1013.63 1968.25C1014.38 1973.17 1022.37 1971.94 1022.24 1967.06C1021.71 1943.75 1052.82 1938.56 1059.05 1961.66C1060.55 1967.11 1069.03 1964.78 1067.53 1959.33H1067.58Z" fill="#F1D2D3"/>
<path d="M2903.63 2062.7H3324.78C3325.22 2062.39 3325.71 2062.17 3326.19 2061.86C3346.97 2048.38 3364.23 2027.97 3369.42 2003.73C3374.6 1979.49 3365.68 1951.65 3344.73 1938.43C3329.88 1929.08 3309.45 1929.43 3294.74 1938.21C3308.88 1915.16 3304.97 1880.3 3282.17 1864.4C3256.91 1846.75 3217.77 1858.78 3203.62 1885.21C3209.25 1869.71 3214.08 1853.91 3214.74 1837.53C3215.57 1817.06 3208.76 1795.15 3192.42 1782.77C3166.68 1763.27 3127.19 1775.44 3106.32 1800.07C3085.45 1824.7 3078.51 1857.9 3072.23 1889.56C3076.18 1866.77 3080.09 1843.1 3074.3 1820.71C3068.5 1798.31 3050.09 1777.41 3026.94 1776.49C3001.15 1775.44 2980.72 1798.31 2969.57 1821.54C2951.29 1859.7 2947.25 1904.49 2958.41 1945.33C2948.79 1929.39 2938.6 1912.83 2922.65 1903.26C2906.7 1893.69 2883.24 1893.82 2871.95 1908.62C2862.95 1920.43 2864.44 1937.16 2868.88 1951.3C2875.47 1972.38 2887.9 1991.48 2904.15 2006.41C2886.63 1998.06 2866.77 1994.42 2847.44 1996.48C2844.45 1996.79 2874.37 2043.07 2878.32 2046.8C2886.41 2054.4 2894.71 2058.79 2903.58 2062.79L2903.63 2062.7Z" fill="#F9E9CA"/>
<path d="M3160.62 1897.02C3154.34 1889.34 3140.67 1887.32 3134.17 1895.22C3131.27 1881.13 3118.27 1867.43 3104.52 1865.32C3091.08 1863.26 3079.39 1875.42 3074.78 1888.51C3068.8 1883.9 3060.37 1882.31 3052.73 1885.87C3038.36 1892.59 3030.5 1914.11 3042.49 1926.4C3045.83 1929.83 3051.06 1924.6 3047.72 1921.18C3040.21 1913.49 3045.04 1900.36 3052.59 1894.61C3058.79 1889.87 3068.45 1890.97 3072.89 1896.41C3072.58 1898.83 3072.58 1901.15 3072.89 1903.35C3073.11 1904.8 3073.94 1905.54 3074.95 1905.85C3074.95 1906.03 3074.95 1906.16 3074.87 1906.33C3073.77 1910.94 3080.93 1912.92 3081.98 1908.31C3083.13 1903.35 3082.34 1898.78 3080.27 1894.96C3082.77 1881.92 3096.79 1868.4 3109.31 1874.81C3118.84 1879.68 3129.16 1891.76 3127.32 1902.91C3126.53 1907.56 3133.69 1909.58 3134.44 1904.88C3134.48 1904.58 3134.48 1904.27 3134.52 1903.96C3136.02 1904.53 3137.69 1904.23 3138.48 1902.34C3141.11 1896.23 3149.33 1896.32 3153.72 1900.54C3156.4 1903.08 3157.81 1906.64 3158.6 1910.2C3158.73 1910.81 3160.22 1921.75 3158.99 1921.66C3154.25 1921.31 3154.25 1928.73 3158.99 1929.04C3173.23 1930.09 3165.19 1902.78 3160.53 1897.07L3160.62 1897.02Z" fill="#F1D2D3"/>
<path d="M3039.2 1975.67C3032.96 1952.62 3004.49 1952.75 2996.06 1970.4C2984.28 1958.15 2957.44 1971.67 2969.22 1992.4C2971.54 1996.53 2977.96 1992.84 2975.59 1988.67C2966.67 1972.95 2991.58 1968.07 2993.82 1983.13C2994.43 1987.3 3001.2 1986.25 3001.07 1982.17C3000.63 1962.54 3026.81 1958.19 3032.08 1977.6C3033.31 1982.17 3040.47 1980.24 3039.2 1975.62V1975.67Z" fill="#F1D2D3"/>
<path d="M1583.23 1712.56C1578.83 1701.4 1572.11 1693.28 1559.37 1692.23C1536.7 1690.38 1515.92 1709.04 1511.97 1730.6C1504.15 1721.51 1494.79 1712.43 1484.21 1708.65C1471.2 1703.99 1459.87 1710.58 1449.63 1718.4C1430.88 1732.62 1428.02 1763.8 1443.66 1782.02C1447.35 1786.33 1453.54 1780.09 1449.85 1775.83C1444.49 1769.55 1442.65 1756.12 1442.69 1748.17C1442.69 1735 1450.73 1727.31 1461.1 1721.08C1482.58 1708.21 1500.86 1730.3 1513.38 1746.15C1516.63 1750.28 1522.21 1745.14 1520.14 1740.88C1518.91 1723.4 1530.86 1707.51 1547.73 1702.46C1560.69 1698.55 1570.49 1704.21 1575.41 1716.73C1578.31 1724.11 1586.21 1740.4 1581.34 1747.9C1578.26 1752.65 1585.86 1757.08 1588.94 1752.34C1596.58 1740.53 1587.75 1724.15 1583.23 1712.6V1712.56Z" fill="#E7ECEE"/>
<path d="M1799.14 1688.36C1787.59 1686.61 1775.42 1689.42 1766.9 1696.27C1765.05 1670.62 1757.5 1637.08 1731.66 1639.05C1709.61 1640.76 1678.25 1673.08 1694.28 1695.04C1697.57 1699.56 1705.22 1695.17 1701.88 1690.6C1687.65 1671.15 1731.09 1632.64 1747 1656.09C1756.09 1669.57 1758.42 1689.59 1758.64 1706.59C1757.1 1709.83 1756.13 1713.48 1755.83 1717.52C1755.52 1722.22 1761.54 1722.92 1763.78 1719.76C1765.62 1719.41 1767.29 1718.09 1767.38 1715.67C1767.42 1713.57 1767.47 1711.11 1767.42 1708.43C1771.99 1700.88 1781.31 1697.14 1790.57 1696.66C1799.49 1696.22 1821.55 1704.13 1809.16 1715.89C1805.03 1719.8 1811.27 1725.99 1815.35 1722.09C1829.72 1708.47 1814.69 1690.65 1799.18 1688.32L1799.14 1688.36Z" fill="#E7ECEE"/>
<path d="M1954.35 1685.2C1931.9 1685.25 1914.63 1704.08 1910.64 1725.07C1909.58 1730.6 1918.06 1732.98 1919.11 1727.4C1922.1 1711.81 1932.64 1697.72 1948.99 1694.64C1967 1691.26 1984.39 1705.18 1985.49 1723.36C1985.84 1728.98 1994.63 1729.02 1994.28 1723.36C1993.05 1702.5 1975.74 1685.16 1954.39 1685.2H1954.35Z" fill="#E7ECEE"/>
<path d="M782.689 1825.32C779.394 1817.24 769.159 1812.76 761.427 1810.21C748.16 1805.82 734.41 1809.2 724.394 1817.77C723.647 1797.61 690.217 1778.82 673.567 1778.56C644.354 1778.07 626.518 1802.62 620.983 1828.66C609.21 1817.24 589.046 1817.06 576.746 1832.04C560.887 1851.31 563.742 1879.55 579.645 1897.68C583.379 1901.94 589.573 1895.71 585.839 1891.49C575.779 1880.03 572.133 1864.05 577.009 1849.47C580.392 1839.46 588.167 1829.49 599.545 1828.7C608.639 1828.04 615.711 1833.84 619.182 1841.48C619.182 1842.05 619.094 1842.62 619.05 1843.19C619.006 1844.95 619.841 1846.09 620.983 1846.75C621.027 1846.97 621.115 1847.14 621.159 1847.36C622.213 1852.9 630.692 1850.57 629.637 1845.04C629.286 1843.1 628.715 1841.35 628.056 1839.63C629.637 1819.83 638.599 1798.36 658.104 1790.46C669.614 1785.8 682.397 1786.63 693.336 1792.78C700.76 1796.95 721.583 1814.3 713.719 1824.49C711.83 1826.94 712.885 1829.97 714.817 1831.42C715.432 1834.89 720.616 1836.96 722.901 1833.05C729.314 1822.07 741.307 1815.22 754.179 1817.55C761.822 1818.95 769.247 1821.98 772.893 1828.88C777.154 1836.91 774.167 1845.74 771.092 1853.91C769.071 1859.17 777.549 1861.46 779.57 1856.23C782.997 1847.28 786.511 1834.76 782.689 1825.32Z" fill="#E7ECEE"/>
<path d="M2593.39 1801.7C2584.3 1797.08 2573.71 1798.75 2564.8 1803.28C2560.1 1784.88 2542.04 1771.66 2521.74 1776.1C2497.71 1781.36 2482.73 1803.41 2478.65 1826.5C2468.9 1815.75 2456.11 1811.49 2442.49 1823.69C2426.46 1838.05 2427.12 1861.68 2441.44 1876.87C2445.31 1881 2451.54 1874.76 2447.63 1870.68C2437.35 1859.79 2435.95 1843.32 2446.49 1831.99C2451.28 1826.86 2458.75 1822.42 2465.73 1825.98C2471.05 1828.66 2474.48 1834.72 2477.46 1839.63C2477.46 1839.85 2477.46 1840.03 2477.46 1840.25C2477.55 1845.91 2486.34 1845.91 2486.25 1840.25C2485.99 1820.75 2494.11 1799.81 2511.73 1789.58C2531.28 1778.25 2554.34 1787.78 2556.84 1809.07C2553.37 1813.55 2552.71 1819.83 2559.17 1822.77C2563.21 1824.62 2566.77 1820.27 2565.54 1817.2C2565.54 1817.02 2565.67 1816.89 2565.72 1816.71C2565.81 1815.66 2565.85 1814.65 2565.85 1813.59C2569.41 1811.58 2575.95 1808.41 2576.35 1808.33C2584.39 1806.31 2591.02 1809.51 2596.64 1815.09C2604.77 1823.17 2615.31 1841.17 2601.39 1849.16C2596.51 1851.97 2600.91 1859.57 2605.83 1856.76C2628.89 1843.45 2611.45 1810.87 2593.35 1801.65L2593.39 1801.7Z" fill="#E7ECEE"/>
<path d="M2635.74 1953.1C2632.14 1945.55 2632.14 1938.34 2624.5 1932.68C2615.36 1925.87 2602.93 1925 2591.94 1924.95C2568.97 1924.91 2562.6 1943.92 2555.83 1963.07C2553.95 1968.42 2562.42 1970.71 2564.31 1965.39C2570.16 1948.84 2575.47 1932.68 2596.82 1933.91C2608.02 1934.57 2619.8 1935.62 2625.2 1947.65C2626.78 1951.21 2627 1954.68 2628.58 1958.15C2627.48 1959.33 2626.56 1960.69 2625.77 1962.23C2623.27 1967.28 2630.82 1971.72 2633.37 1966.67C2639.17 1955.03 2670.4 1958.98 2663.64 1973.65C2661.31 1978.74 2668.87 1983.22 2671.24 1978.08C2680.81 1957.23 2652.88 1945.72 2635.79 1953.1H2635.74Z" fill="#E7ECEE"/>
<path d="M795.605 1935.05C782.382 1920.3 761.252 1927.63 756.068 1943.35C746.184 1933.03 732.785 1924.38 718.859 1933.03C701.683 1943.7 703.967 1965.44 710.952 1981.46C713.192 1986.65 720.792 1982.17 718.552 1977.03C713.324 1965 710.469 1943.61 727.162 1938.83C739.067 1935.4 749.039 1947.96 755.497 1956.04C756.903 1961.05 764.854 1958.72 763.8 1953.36C760.812 1937.99 779.351 1930.13 789.367 1941.29C793.145 1945.5 799.339 1939.27 795.561 1935.1L795.605 1935.05Z" fill="#E7ECEE"/>
<path d="M1169.05 1596.99C1157.94 1582.32 1137.34 1585.26 1129.91 1599.4C1123.5 1588.55 1111.07 1577.97 1098.37 1581.66C1091.65 1583.59 1086.47 1590.75 1082.95 1596.41C1078.82 1603 1077.28 1609.72 1080.8 1616.88C1082.47 1620.3 1087.61 1617.32 1085.89 1613.89C1082.78 1607.57 1086.2 1601.9 1089.85 1596.85C1094.33 1590.66 1098.59 1585.66 1107.16 1587.85C1116.47 1590.22 1123.63 1598.08 1127.01 1606.73C1127.1 1607 1127.28 1607.17 1127.41 1607.35C1127.28 1608.18 1127.14 1609.02 1127.1 1609.85C1126.93 1613.67 1132.86 1613.67 1133.03 1609.85C1133.73 1593.56 1153.9 1586.75 1163.91 1599.97C1166.2 1602.96 1171.34 1600.01 1169.01 1596.99H1169.05Z" fill="#CFD1F2"/>
<path d="M1298.08 1579.38C1293.42 1574.68 1288.5 1575.64 1284.46 1578.76C1282.48 1563.74 1276.9 1544.25 1261 1543.55C1244.66 1542.84 1231.87 1556.76 1230.47 1572.22C1230.12 1576 1236.05 1576 1236.4 1572.22C1237.5 1560.23 1249.62 1546.14 1262.89 1550.04C1274.79 1553.56 1278.18 1572.7 1279.14 1584.6C1278.97 1584.87 1278.79 1585.17 1278.61 1585.44C1277.25 1587.72 1279.32 1589.83 1281.38 1589.78C1283.14 1590.4 1285.42 1589.52 1285.29 1587.11C1285.29 1586.8 1285.25 1586.45 1285.2 1586.14C1287.4 1583.07 1290.52 1580.12 1293.9 1583.46C1295.22 1584.78 1300.45 1593.25 1297.9 1594.79C1294.65 1596.77 1297.64 1601.9 1300.89 1599.88C1308 1595.54 1302.51 1583.72 1298.08 1579.25V1579.38Z" fill="#CFD1F2"/>
<path d="M988.633 1652.8C985.69 1653.28 983.274 1654.95 981.605 1657.19C978.969 1651.48 974.532 1646.03 971.149 1642.26C964.472 1634.79 955.51 1634.44 946.636 1638.31C932.271 1644.58 924.496 1666.45 942.77 1673.39C946.329 1674.75 947.866 1669.04 944.352 1667.68C937.06 1664.91 936.532 1656.04 940.354 1650.42C943.166 1646.25 948.042 1643.62 952.83 1642.34C960.167 1640.37 965.57 1644.41 969.568 1650.07C972.555 1654.33 979.32 1663.03 977.651 1668.43C976.553 1672.07 982.264 1673.65 983.362 1670.01C983.406 1669.88 983.406 1669.7 983.45 1669.57C984.68 1669.09 985.646 1667.86 985.163 1666.19C984.284 1663.07 985.998 1659.29 989.38 1658.64C992.675 1657.98 995.882 1660.92 996.057 1664.08C996.321 1667.86 1002.25 1667.9 1001.99 1664.08C1001.55 1657.41 995.53 1651.61 988.589 1652.75L988.633 1652.8Z" fill="#CFD1F2"/>
<path d="M2933.85 1596.99C2922.74 1582.32 2902.13 1585.26 2894.71 1599.4C2888.3 1588.55 2875.86 1577.97 2863.17 1581.66C2856.45 1583.59 2851.26 1590.75 2847.75 1596.41C2843.62 1603 2842.08 1609.72 2845.6 1616.88C2847.27 1620.3 2852.41 1617.32 2850.69 1613.89C2847.57 1607.57 2851 1601.9 2854.65 1596.85C2859.13 1590.66 2863.39 1585.66 2871.95 1587.85C2881.27 1590.22 2888.43 1598.08 2891.81 1606.73C2891.9 1607 2892.07 1607.17 2892.21 1607.35C2892.07 1608.18 2891.94 1609.02 2891.9 1609.85C2891.72 1613.67 2897.65 1613.67 2897.83 1609.85C2898.53 1593.56 2918.7 1586.75 2928.71 1599.97C2931 1602.96 2936.14 1600.01 2933.81 1596.99H2933.85Z" fill="#CFD1F2"/>
<path d="M3062.87 1579.38C3058.22 1574.68 3053.3 1575.64 3049.26 1578.76C3047.28 1563.74 3041.7 1544.25 3025.8 1543.55C3009.46 1542.84 2996.67 1556.76 2995.27 1572.22C2994.91 1576 3000.84 1576 3001.2 1572.22C3002.29 1560.23 3014.42 1546.14 3027.69 1550.04C3039.59 1553.56 3042.97 1572.7 3043.94 1584.6C3043.76 1584.87 3043.59 1585.17 3043.41 1585.44C3042.05 1587.72 3044.12 1589.83 3046.18 1589.78C3047.94 1590.4 3050.22 1589.52 3050.09 1587.11C3050.09 1586.8 3050.05 1586.45 3050 1586.14C3052.2 1583.07 3055.32 1580.12 3058.7 1583.46C3060.02 1584.78 3065.25 1593.25 3062.7 1594.79C3059.45 1596.77 3062.43 1601.9 3065.69 1599.88C3072.8 1595.54 3067.31 1583.72 3062.87 1579.25V1579.38Z" fill="#CFD1F2"/>
<path d="M2753.43 1652.8C2750.49 1653.28 2748.07 1654.95 2746.4 1657.19C2743.77 1651.48 2739.33 1646.03 2735.95 1642.26C2729.27 1634.79 2720.31 1634.44 2711.43 1638.31C2697.07 1644.58 2689.29 1666.45 2707.57 1673.39C2711.13 1674.75 2712.66 1669.04 2709.15 1667.68C2701.86 1664.91 2701.33 1656.04 2705.15 1650.42C2707.96 1646.25 2712.84 1643.62 2717.63 1642.34C2724.97 1640.37 2730.37 1644.41 2734.37 1650.07C2737.35 1654.33 2744.12 1663.03 2742.45 1668.43C2741.35 1672.07 2747.06 1673.65 2748.16 1670.01C2748.2 1669.88 2748.2 1669.7 2748.25 1669.57C2749.48 1669.09 2750.44 1667.86 2749.96 1666.19C2749.08 1663.07 2750.8 1659.29 2754.18 1658.64C2757.47 1657.98 2760.68 1660.92 2760.86 1664.08C2761.12 1667.86 2767.05 1667.9 2766.79 1664.08C2766.35 1657.41 2760.33 1651.61 2753.39 1652.75L2753.43 1652.8Z" fill="#CFD1F2"/>
<path d="M2340.84 1630.4C2320.59 1618.02 2297.13 1628.34 2282.37 1644.5C2280.26 1612.53 2259.66 1582.58 2224.87 1580.26C2191.74 1578.02 2165.21 1607.7 2172.77 1640.28C2173.78 1644.58 2180.41 1642.78 2179.4 1638.44C2171.93 1606.29 2202.64 1580.52 2233.48 1588.55C2263.04 1596.24 2276.7 1624.83 2275.56 1653.28C2275.03 1654.07 2274.55 1654.86 2274.07 1655.69C2272.05 1659.21 2276.75 1662.32 2279.3 1659.95C2280.74 1659.69 2282.11 1658.64 2282.24 1656.79C2282.24 1656.35 2282.28 1655.96 2282.33 1655.52C2293.31 1639.45 2313.65 1626.32 2333.33 1634.4C2347.65 1640.28 2356.26 1658.24 2350.73 1672.47C2349.67 1668.65 2343.52 1670.49 2344.22 1674.66C2344.66 1677.43 2345.15 1680.15 2345.59 1682.92C2345.98 1685.42 2349.71 1686.26 2351.34 1684.46C2365.88 1667.77 2359.12 1641.6 2340.84 1630.4Z" fill="#CFD1F2"/>
<path d="M2412.71 1542.67C2401.16 1534.11 2384.9 1532.88 2374.62 1544.03C2364.21 1555.31 2364.39 1572.79 2366.41 1586.93C2367.02 1591.28 2373.66 1589.43 2373.04 1585.09C2370.58 1568.05 2373.66 1537.05 2399 1543.41C2422.07 1549.21 2422.24 1574.42 2427.82 1592.55C2426.5 1588.33 2419.87 1590.14 2421.19 1594.39C2424.13 1603.97 2434.41 1598.04 2434.46 1590.05C2434.5 1574.11 2425.67 1552.24 2412.67 1542.67H2412.71Z" fill="#CFD1F2"/>
<path d="M346.421 1630.4C326.169 1618.02 302.711 1628.34 287.95 1644.5C285.842 1612.53 265.239 1582.58 230.446 1580.26C197.323 1578.02 170.789 1607.7 178.345 1640.28C179.355 1644.58 185.989 1642.78 184.979 1638.44C177.51 1606.29 208.217 1580.52 239.056 1588.55C268.621 1596.24 282.283 1624.83 281.141 1653.28C280.614 1654.07 280.131 1654.86 279.648 1655.69C277.627 1659.21 282.327 1662.32 284.875 1659.95C286.325 1659.69 287.687 1658.64 287.819 1656.79C287.819 1656.35 287.863 1655.96 287.906 1655.52C298.889 1639.45 319.228 1626.32 338.909 1634.4C353.23 1640.28 361.841 1658.24 356.305 1672.47C355.251 1668.65 349.101 1670.49 349.804 1674.66C350.243 1677.43 350.726 1680.15 351.166 1682.92C351.561 1685.42 355.295 1686.26 356.92 1684.46C371.461 1667.77 364.696 1641.6 346.421 1630.4Z" fill="#CFD1F2"/>
<path d="M418.291 1542.67C406.737 1534.11 390.483 1532.88 380.203 1544.03C369.792 1555.31 369.968 1572.79 371.989 1586.93C372.604 1591.28 379.237 1589.43 378.622 1585.09C376.162 1568.05 379.237 1537.05 404.585 1543.41C427.648 1549.21 427.824 1574.42 433.403 1592.55C432.085 1588.33 425.451 1590.14 426.769 1594.39C429.712 1603.97 439.992 1598.04 440.036 1590.05C440.08 1574.11 431.25 1552.24 418.247 1542.67H418.291Z" fill="#CFD1F2"/>
<path d="M2300.03 1966.93C2328.1 1967.19 2359.29 1975.4 2386.53 1972.99C2374.4 1966.27 2367.07 1951.52 2371.9 1937.95C2376.69 1924.6 2392.77 1916.48 2406.38 1920.6C2419.96 1924.73 2428.88 1940.41 2425.41 1954.2C2426.77 1941.46 2428.39 1928.38 2434.81 1917.27C2441.22 1906.2 2453.56 1897.55 2466.22 1899.35C2478.87 1901.2 2488.75 1916.7 2482.16 1927.67C2490.2 1911.56 2514.76 1906.95 2528.11 1919.07C2541.69 1931.36 2538.83 1954.42 2524.91 1965.13C2547.31 1955.91 2581.66 1972.07 2605.87 1972.77C2860.93 1980.23 3116.38 1973.52 3370.34 1947.39C3371.22 1979.31 3328.25 2230.04 3396.57 2233.6C3243.86 2225.65 3091.08 2219.41 2938.24 2214.94C2574.33 2204.22 2210.15 2203.26 1846.19 2212.08C1496.02 2220.56 1145.64 2263.63 795.956 2227.01C669.657 2213.79 553.946 2187.27 426.373 2181.3C288.565 2174.8 150.756 2168.35 12.9481 2161.85C-21.2733 2160.22 -57.3398 2158.07 -86.07 2139.41C-140.455 2104.06 -145.727 2027.88 -145.244 1963.07C116.403 1968.29 377.04 1977.25 637.764 1990.69C669.701 1992.31 702.385 1995.82 734.146 1996.48C771.662 1997.27 739.506 1972.59 768.675 1963.33C780.141 1959.68 793.759 1969.26 794.198 1981.29C797.405 1966.53 800.964 1951.12 810.892 1939.75C820.82 1928.38 839.227 1922.89 851.263 1932.02C860.752 1939.22 862.993 1952.31 864.574 1964.08C866.068 1954.72 871.603 1945.77 880.038 1941.46C888.516 1937.2 899.85 1938.48 906.176 1945.55C912.546 1952.57 912.107 1965.09 904.551 1970.75C911.316 1963.81 920.234 1958.46 929.898 1958.15C939.563 1957.84 949.754 1963.64 952.434 1972.9C955.114 1982.17 947.909 1993.63 938.245 1993.41C1014.11 1995.25 1089.5 1996.39 1165.49 1995.16C1207.1 1994.51 1248.7 1993.67 1290.3 1992.66C1311.96 1992.13 1333.66 1991.56 1355.32 1990.95C1365.86 1990.64 1407.24 1983.05 1414.84 1989.1C1400.39 1977.6 1400.78 1952.13 1415.63 1941.11C1430.48 1930.09 1454.99 1937.07 1461.85 1954.24C1458.51 1936.02 1464.31 1915.99 1478.06 1903.61C1491.81 1891.23 1513.46 1887.76 1529.67 1896.67C1545.88 1905.59 1554.49 1927.06 1547.47 1944.18C1558.18 1928.64 1569.52 1912.48 1586.17 1903.52C1602.82 1894.57 1626.36 1895.36 1637.7 1910.46C1649.82 1926.53 1643.1 1949.28 1635.98 1968.12C1642.62 1956.52 1661.11 1945.11 1673.85 1953.36C1683.91 1959.86 1685.36 1974.26 1678.9 1983.7C1696.74 1974.75 1719.32 1976.46 1738.65 1975.84C1765.36 1974.97 1792.07 1974.13 1818.78 1973.34C1872.2 1971.76 1925.66 1970.36 1979.08 1969.26C2086.05 1967.02 2193.02 1965.92 2300.03 1966.89V1966.93Z" fill="#E7ECEE"/>
<path d="M1238.31 792.517C1122.56 820.927 1016.03 802.923 899.439 808.763C812.414 813.111 725.432 817.897 638.407 822.463C679.877 810.169 721.347 797.874 762.817 785.579C731.231 776.182 716.075 732.447 735.097 705.53C754.119 678.613 800.421 678.306 819.838 704.915C811.755 654.682 803.935 601.858 821.332 554.039C838.772 506.221 890.829 466.965 939.415 482.202C971.88 492.389 993.976 523.961 1002.28 556.937C1010.58 589.914 1007.46 624.559 1004.34 658.414C1001.58 621.486 1032.11 585.26 1068.96 581.703C1105.82 578.146 1142.72 607.917 1147.07 644.67C1151.42 681.423 1122.43 718.923 1085.75 724.016C1103.45 715.41 1123.57 709.789 1142.81 713.917C1162.05 718.045 1179.67 733.984 1180.72 753.612C1181.78 773.24 1161.17 792.385 1142.55 786.018C1174.48 788.169 1206.42 790.321 1238.36 792.517H1238.31Z" fill="#F6FAFB"/>
<path d="M2464.39 357.307C2373.79 379.569 2290.42 365.462 2199.17 370.038C2131.06 373.445 2062.99 377.195 1994.88 380.774C2027.33 371.139 2059.79 361.505 2092.24 351.871C2067.52 344.508 2055.66 310.237 2070.55 289.145C2085.44 268.053 2121.68 267.812 2136.87 288.663C2130.55 249.301 2124.43 207.908 2138.04 170.438C2151.69 132.968 2192.43 102.207 2230.46 114.146C2255.87 122.129 2273.16 146.868 2279.66 172.709C2286.16 198.549 2283.71 225.697 2281.27 252.226C2279.11 223.288 2303 194.902 2331.85 192.115C2360.69 189.328 2389.58 212.656 2392.98 241.456C2396.38 270.255 2373.69 299.64 2344.98 303.631C2358.84 296.887 2374.58 292.483 2389.64 295.717C2404.7 298.951 2418.49 311.442 2419.32 326.822C2420.14 342.202 2404.02 357.204 2389.44 352.215C2414.43 353.901 2439.43 355.587 2464.42 357.307H2464.39Z" fill="#F6FAFB"/>
<path d="M2798.24 1016.73C2668.87 1010.93 2539.67 1006.1 2410.17 1003.38C2436.83 999.603 2463.54 995.826 2490.21 992.05C2427.34 1005.71 2477.33 922.672 2493.72 945.637C2474.08 918.149 2477.29 877.4 2499.39 851.888C2521.48 826.332 2559.7 817.023 2591.82 827.43C2623.93 837.837 2648.92 866.378 2657.23 899.136C2653.05 877.619 2659.47 851.976 2678.84 841.657C2698.21 831.382 2728.09 847.936 2723.43 869.364C2727.03 840.208 2763.36 822.38 2790.73 833.05C2818.14 843.677 2833.3 875.863 2829.65 905.02C2826.01 934.176 2806.63 959.6 2782.65 976.593C2795.08 970.226 2808.21 963.728 2822.18 964.211C2836.15 964.694 2850.83 974.881 2851.05 988.844C2851.22 1000.09 2842 1009.75 2831.5 1013.74C2821 1017.74 2809.4 1017.3 2798.15 1016.77L2798.24 1016.73Z" fill="#F6FAFB"/>
<path d="M2963.57 482.85C2898.05 479.917 2832.61 477.473 2767.02 476.096C2780.53 474.185 2794.05 472.274 2807.56 470.363C2775.72 477.273 2801.04 435.258 2809.34 446.878C2799.39 432.969 2801.02 412.351 2812.21 399.442C2823.4 386.51 2842.76 381.8 2859.02 387.066C2875.29 392.332 2887.95 406.774 2892.15 423.349C2890.04 412.462 2893.29 399.486 2903.1 394.265C2912.91 389.065 2928.04 397.442 2925.68 408.285C2927.51 393.531 2945.91 384.511 2959.77 389.91C2973.65 395.287 2981.33 411.573 2979.48 426.326C2977.63 441.079 2967.82 453.944 2955.67 462.542C2961.97 459.321 2968.62 456.032 2975.7 456.277C2982.77 456.521 2990.2 461.676 2990.32 468.741C2990.4 474.429 2985.73 479.317 2980.41 481.339C2975.1 483.361 2969.22 483.139 2963.53 482.872L2963.57 482.85Z" fill="#F6FAFB"/>
<path d="M377.932 1052.64C312.407 1049.7 246.972 1047.26 181.381 1045.88C194.886 1043.97 208.414 1042.06 221.919 1040.15C190.08 1047.06 215.4 1005.04 223.699 1016.66C213.754 1002.75 215.378 982.136 226.569 969.227C237.761 956.295 257.118 951.585 273.382 956.851C289.646 962.117 302.306 976.559 306.511 993.134C304.398 982.247 307.646 969.271 317.458 964.05C327.27 958.851 342.399 967.227 340.041 978.07C341.865 963.316 360.266 954.296 374.127 959.695C388.011 965.072 395.687 981.358 393.84 996.111C391.993 1010.86 382.181 1023.73 370.033 1032.33C376.33 1029.11 382.982 1025.82 390.058 1026.06C397.133 1026.31 404.564 1031.46 404.675 1038.53C404.764 1044.21 400.092 1049.1 394.774 1051.12C389.457 1053.15 383.583 1052.92 377.887 1052.66L377.932 1052.64Z" fill="#F6FAFB"/>
<path d="M456.767 344.673C327.393 338.877 198.195 334.047 68.6895 331.325C95.3549 327.548 122.064 323.772 148.73 319.996C85.8661 333.652 135.858 250.617 152.244 273.582C132.608 246.095 135.815 205.346 157.911 179.834C180.008 154.278 218.227 144.969 250.34 155.376C282.453 165.782 307.449 194.324 315.752 227.081C311.578 205.565 317.992 179.922 337.365 169.603C356.738 159.328 386.611 175.882 381.954 197.31C385.556 168.154 421.887 150.326 449.255 160.996C476.667 171.622 491.823 203.809 488.177 232.965C484.531 262.122 465.157 287.546 441.172 304.539C453.604 298.172 466.739 291.673 480.709 292.156C494.678 292.64 509.351 302.827 509.571 316.79C509.746 328.031 500.521 337.692 490.022 341.687C479.522 345.683 467.925 345.244 456.679 344.717L456.767 344.673Z" fill="#F6FAFB"/>
<rect width="3167" height="2111" fill="#070707" fill-opacity="0.05"/>
</g>
</g>
<defs>
<clipPath id="clip0_213_1595">
<rect width="3167" height="2111" fill="white"/>
</clipPath>
<clipPath id="clip1_213_1595">
<rect width="3387" height="2156" fill="white" transform="translate(-92 -45)"/>
</clipPath>
</defs>
</svg>
