<svg width="94" height="113" viewBox="0 0 94 113" fill="none" xmlns="http://www.w3.org/2000/svg">
<path d="M92.787 49.5326C91.5173 46.7828 89.1935 45.018 86.5564 44.2518C86.5228 44.2417 86.4891 44.2299 86.4571 44.2215C86.4941 44.1794 86.5278 44.1323 86.5649 44.0902C86.5716 43.9302 86.5716 43.8426 86.5716 43.8426L86.7484 43.8662C87.4843 42.9737 88.1225 42.0021 88.6159 40.9378C90.4564 36.9537 90.443 32.2016 87.5719 28.7041C85.1318 25.7303 80.9809 24.176 77.2948 25.6562C76.8519 25.8347 76.431 26.0502 76.0302 26.2961C74.1038 20.0487 68.7775 14.8201 62.1108 13.7761C55.7321 12.7758 49.3769 15.5778 45.2227 20.3097C45.2159 20.3164 45.2092 20.3215 45.2025 20.3282C44.8926 20.6229 44.6064 20.9294 44.3352 21.246C41.8733 17.538 37.4816 15.1451 32.7532 16.0662C26.819 17.2231 23.2895 23.3239 23.9176 28.9819C23.0605 28.3959 22.1427 27.8992 21.1677 27.5186C17.4176 26.0553 13.1 26.8535 10.2979 29.8172C7.80741 32.4508 6.66066 36.3205 7.02102 39.8955C7.26182 42.285 8.03811 44.4943 9.08384 46.5891C8.98785 46.5925 8.89185 46.6026 8.79587 46.6077C8.68305 46.6144 8.57191 46.6211 8.45908 46.6295L5.05249 47.352C2.60743 48.2714 0.701221 50.0984 0.132052 53.3198C-0.475847 56.7584 1.06662 60.4243 3.69861 62.6639C6.30028 64.8766 9.54355 65.7405 12.8323 66.2524C12.9569 67.7191 13.4385 69.1622 14.2973 70.5026C16.0486 73.239 18.8372 74.8202 21.8093 75.9316C27.7586 78.1544 34.2148 79.5689 40.4723 80.581C53.2617 82.6522 66.9067 82.3558 78.583 76.1286C83.3789 73.5707 87.6847 68.5105 87.1189 63.1422C92.1016 60.9766 95.2034 54.7697 92.7887 49.536L92.787 49.5326ZM79.8594 62.1571C79.8797 62.1503 79.9015 62.1436 79.9217 62.1369C79.9386 62.1705 79.9554 62.2025 79.974 62.2362C79.9369 62.2093 79.8982 62.184 79.8594 62.1587V62.1571ZM85.2261 51.1576C85.3558 51.2334 85.3726 51.1307 85.2261 51.1576V51.1576Z" fill="#719CBC"/>
<path d="M79.9234 62.1368C79.9032 62.1436 79.8813 62.1503 79.8611 62.1571C79.8998 62.1823 79.9386 62.2076 79.9756 62.2345C79.9571 62.2025 79.9402 62.1688 79.9234 62.1352V62.1368Z" fill="#8AA7B5"/>
<path d="M85.2278 51.1593C85.3574 51.2351 85.3743 51.1324 85.2278 51.1593V51.1593Z" fill="#8AA7B5"/>
<path d="M86.5648 44.0885C86.6271 44.0144 86.6877 43.9386 86.7484 43.8645L86.5715 43.8409C86.5715 43.8409 86.5716 43.9302 86.5648 44.0885Z" fill="#8AA7B5"/>
<path d="M70.416 84.5028L72.1656 83.9084C73.5043 83.4537 74.8868 84.4675 74.8582 85.8803L74.7605 90.7165C74.7454 91.449 75.4745 91.9643 76.1599 91.7067L77.5794 91.1712C79.2331 90.5481 80.9574 91.9003 80.7486 93.6533L78.7969 109.976C78.7346 110.491 78.0038 110.536 77.8792 110.031L75.4425 100.116C75.3011 99.5403 74.7067 99.2019 74.1392 99.3719C72.014 100.014 69.8283 98.5687 69.5858 96.3627L69.1817 92.6951C69.1093 92.0384 68.4475 91.6158 67.8211 91.8279L67.3091 92.0014C65.1032 92.7507 62.7423 91.3783 62.3011 89.0899L60.2703 78.5737C60.1592 77.9978 60.5482 77.4438 61.1291 77.3545L68.008 76.292C68.6445 76.1943 69.2154 76.6961 69.2002 77.3394L69.0503 83.4908C69.0335 84.2098 69.7357 84.7268 70.4177 84.4961L70.416 84.5028Z" fill="#FFE5B4"/>
<path d="M79.7416 102.066L80.7469 93.6533C80.9573 91.8987 79.2313 90.5482 77.5777 91.1712L76.1581 91.7067C75.4728 91.9643 74.7437 91.4491 74.7588 90.7165L74.8565 85.8803C74.8851 84.4675 73.5026 83.4554 72.1639 83.9084L70.4143 84.5029C69.734 84.7336 69.0301 84.2166 69.0469 83.4975L69.1968 77.3445C69.2119 76.6995 68.6411 76.1977 68.0045 76.297L63.6499 76.9689L65.5224 86.665C65.9636 88.9535 68.3245 90.3242 70.5304 89.5765L71.0424 89.4031C71.6688 89.1909 72.3306 89.6119 72.403 90.2703L72.8071 93.9379C73.0513 96.1439 75.237 97.5887 77.3605 96.9471C77.928 96.7753 78.5224 97.1155 78.6638 97.6914L79.7399 102.068L79.7416 102.066Z" fill="#F9EC6C"/>
<path d="M39.7297 113C39.7297 113 39.7297 113 39.7297 112.998H39.7339C39.7339 112.998 39.7339 112.998 39.7318 113H39.7297Z" fill="#8AA7B5"/>
<path d="M38.386 92.4139C38.3826 92.4004 38.3775 92.3886 38.3725 92.3769C38.3927 92.0451 37.8522 91.9357 37.7326 92.2977C37.219 93.8688 35.9527 95.184 35.7152 96.8342C35.5519 97.9709 36.0234 99.3012 37.3049 99.4948C38.5577 99.6834 39.1252 98.4963 39.2835 97.4522C39.5378 95.7717 38.807 94.017 38.386 92.4156V92.4139ZM37.7966 97.9978C37.7966 97.9978 37.8016 97.9978 37.805 97.9978C37.805 97.9978 37.8033 98.0012 37.8016 98.0029C37.8016 98.0029 37.7999 98.0029 37.7983 98.0062C37.7983 98.0046 37.7983 98.0012 37.7983 97.9995L37.7966 97.9978ZM38.1771 94.1719C38.1788 94.1601 38.1822 94.1484 38.1839 94.1366C38.1873 94.15 38.1906 94.1635 38.1957 94.1787C38.189 94.1787 38.1839 94.1736 38.1788 94.1719H38.1771Z" fill="#95C1EB"/>
<path d="M47.4337 84.4439C47.2585 84.1576 46.8628 84.3193 46.8325 84.5803C46.8039 84.6157 46.782 84.6594 46.7702 84.7167C46.2549 87.3739 43.7644 89.137 43.3939 91.8414C43.1716 93.4681 44.0759 95.4787 45.9265 95.578C48.0432 95.6925 49.0469 93.4799 49.2119 91.71C49.4476 89.1623 48.7572 86.6111 47.432 84.4422L47.4337 84.4439ZM48.4996 91.6056C48.5282 91.5181 48.5535 91.4305 48.5753 91.3413C48.5652 91.444 48.5518 91.5484 48.5349 91.6562C48.5231 91.6393 48.5131 91.6225 48.4996 91.6073V91.6056ZM45.1149 94.6536C45.2429 94.7159 45.3708 94.7647 45.4955 94.8034C45.5409 94.8354 45.5881 94.8657 45.6369 94.8927C45.5241 94.8556 45.4079 94.8102 45.2883 94.7496C45.2277 94.7192 45.1705 94.6872 45.1149 94.6552V94.6536Z" fill="#6093B1"/>
<path d="M42.5722 102.42C42.4459 102.214 42.163 102.331 42.1427 102.518C42.1225 102.543 42.1057 102.575 42.099 102.615C41.7302 104.516 39.9469 105.779 39.6825 107.716C39.5242 108.881 40.1709 110.319 41.4961 110.39C43.0117 110.472 43.7307 108.888 43.8486 107.622C44.017 105.798 43.5236 103.971 42.5738 102.418L42.5722 102.42ZM43.335 107.547C43.3552 107.485 43.3737 107.421 43.3889 107.357C43.3821 107.43 43.372 107.505 43.3602 107.583C43.3518 107.571 43.3434 107.559 43.335 107.547ZM40.9118 109.73C41.0044 109.774 41.0954 109.811 41.1846 109.838C41.2166 109.861 41.2503 109.881 41.2856 109.902C41.2048 109.875 41.1223 109.843 41.0364 109.799C40.9926 109.777 40.9522 109.755 40.9118 109.731V109.73Z" fill="#6093B1"/>
<path d="M59.0663 95.8609C58.5729 94.694 58.1485 93.5994 57.9414 92.3398C57.9313 92.2809 57.9094 92.2354 57.8808 92.2001C57.9144 91.9138 57.5625 91.6427 57.3503 91.9172C56.2288 93.3738 55.3364 95.019 55.0922 96.8646C54.9086 98.2521 55.1191 100.359 56.8586 100.625C58.3405 100.852 59.302 99.2002 59.4351 97.9406C59.5142 97.1997 59.3508 96.5379 59.0646 95.8593L59.0663 95.8609ZM57.3503 95.9418C57.3503 95.9418 57.3503 95.9468 57.3503 95.9485C57.3503 95.9485 57.3503 95.9485 57.3487 95.9485C57.3487 95.9468 57.3487 95.9451 57.3487 95.9418H57.3503ZM57.6989 99.7845C57.6905 99.7879 57.6804 99.7912 57.672 99.7946C57.9801 99.6346 58.2395 99.382 58.4601 99.0941C58.4685 99.0873 58.4786 99.0823 58.487 99.0756C58.3152 99.3753 58.061 99.6245 57.6989 99.7845Z" fill="#95C1EB"/>
<path d="M50.2946 98.1545C50.2576 98.0332 50.1548 97.9389 50.0353 97.8884C49.9039 97.8126 49.744 97.8092 49.6076 97.9338C49.5958 97.944 49.584 97.9558 49.5722 97.9692C49.5688 97.9726 49.5655 97.976 49.5621 97.9793C48.3935 99.3854 46.0764 104.53 49.3398 105.028C53.0714 105.597 50.751 99.6363 50.2946 98.1545ZM49.8332 102.768C49.8332 102.768 49.8366 102.782 49.8382 102.789C49.8366 102.785 49.8332 102.784 49.8315 102.782C49.8315 102.777 49.8315 102.773 49.8315 102.768H49.8332Z" fill="#95C1EB"/>
<path opacity="0.47" d="M31.763 99.0958C31.7259 98.9745 31.6232 98.8802 31.5037 98.8297C31.3723 98.7539 31.2123 98.7506 31.0759 98.8735C31.0642 98.8836 31.0524 98.8954 31.0406 98.9088C31.0372 98.9122 31.0338 98.9156 31.0305 98.919C29.8618 100.325 27.5447 105.471 30.8082 105.968C34.5398 106.537 32.2193 100.576 31.763 99.0941V99.0958ZM31.3016 103.71C31.3016 103.71 31.305 103.723 31.3066 103.73C31.305 103.727 31.3016 103.725 31.2999 103.723C31.2999 103.718 31.2999 103.715 31.3016 103.71Z" fill="#94B7ED"/>
<path d="M63.2391 102.94C63.234 102.913 63.2205 102.891 63.2104 102.868C63.2862 102.45 62.6598 102.147 62.419 102.582C61.6444 103.983 59.0949 108.999 62.2657 109.501C65.3827 109.994 63.4765 104.153 63.2391 102.94Z" fill="#6093B1"/>
<path d="M30.3889 46.9158C30.3569 44.1828 32.546 41.9431 35.279 41.9111C38.0121 41.8791 40.2517 44.0699 40.2837 46.8013C40.3157 49.5343 38.1249 51.7739 35.3936 51.8059C32.6605 51.8379 30.4209 49.6488 30.3889 46.9158Z" fill="white"/>
<path d="M33.4705 47.97C33.452 46.3315 34.7655 44.986 36.4039 44.9675C38.0441 44.949 39.3879 46.2624 39.4064 47.9009C39.4249 49.5411 38.1114 50.8848 36.473 50.9034C34.8328 50.9219 33.4891 49.6084 33.4705 47.97Z" fill="#1F2020"/>
<path d="M31.9852 47.9884C31.9751 47.1684 32.6318 46.4965 33.4519 46.4864C34.272 46.4763 34.9439 47.133 34.954 47.9531C34.9641 48.7732 34.3073 49.445 33.4873 49.4552C32.6672 49.4653 31.9953 48.8085 31.9869 47.9884H31.9852Z" fill="white"/>
<path d="M55.6192 46.6245C55.5872 43.8915 57.7764 41.6518 60.5094 41.6199C63.2424 41.5879 65.482 43.777 65.514 46.51C65.546 49.243 63.3569 51.4826 60.6239 51.5146C57.8909 51.5466 55.6512 49.3558 55.6192 46.6245Z" fill="white"/>
<path d="M58.7009 47.6803C58.6824 46.0402 59.9958 44.6964 61.6343 44.6779C63.2744 44.6593 64.6182 45.9728 64.6367 47.6113C64.6553 49.2514 63.3418 50.5952 61.7033 50.6137C60.0632 50.6322 58.7194 49.3188 58.7009 47.6803Z" fill="#1F2020"/>
<path d="M57.2173 47.6971C57.2072 46.8771 57.8639 46.2052 58.684 46.1951C59.504 46.185 60.1759 46.8417 60.1843 47.6618C60.1945 48.4819 59.5377 49.1537 58.7177 49.1638C57.8976 49.1739 57.2257 48.5155 57.2156 47.6971H57.2173Z" fill="white"/>
<path d="M61.6915 0.238911L57.9835 15.2933C57.7882 16.0881 58.3456 16.8728 59.1623 16.9452L62.3802 17.2365C62.9023 17.2837 63.2744 17.7653 63.1885 18.2822L61.3918 29.0762C61.3379 29.4012 61.7892 29.541 61.9273 29.2413L69.0419 13.8653C69.4595 12.9627 68.8819 11.9119 67.8968 11.7806L63.335 11.1744C62.7305 11.0935 62.2792 10.5783 62.2809 9.96867L62.3045 0.311308C62.3045 -0.0557887 61.7791 -0.11977 61.6915 0.23554V0.238911Z" fill="#FFE5B4"/>
<path d="M65.3877 15.4027C64.3151 14.5574 61.7606 15.4431 60.3612 14.6298C59.1623 13.9343 61.4844 3.14708 62.1748 0.0637988C62.0131 -0.0473407 61.7521 -0.00523584 61.6915 0.238934L57.9835 15.2949C57.7882 16.0898 58.3456 16.8745 59.1623 16.9469L62.3802 17.2382C62.9023 17.2854 63.2744 17.767 63.1885 18.2839L61.3918 29.0779C61.3379 29.4029 61.7892 29.5427 61.9273 29.243L62.1546 28.7512C63.1784 25.6882 66.287 16.1117 65.3861 15.4027H65.3877Z" fill="#FFF9C4"/>
<path d="M44.0389 62.9535C44.7226 60.9715 45.8088 58.412 48.2774 58.385C50.6703 58.3598 51.8793 61.1585 52.3087 63.1741C52.4552 63.8595 53.5026 63.5564 53.3578 62.8727C52.8392 60.4411 51.1839 57.1339 48.2673 57.2265C45.2716 57.3208 43.8335 60.2155 42.9831 62.6757C42.7541 63.3409 43.8099 63.6136 44.0389 62.9535Z" fill="#1F2020"/>
<path d="M41.0348 32.9813C40.4808 32.3363 39.7483 31.5348 38.8255 31.5297C38.1502 31.5263 37.512 31.9507 37.3975 32.631C37.3133 33.1311 37.5289 33.5959 37.8353 34.0085C38.3843 35.4011 39.7415 36.9116 41.3042 36.7853C42.0637 36.7247 42.5082 36.0797 42.4207 35.3522C42.3146 34.453 41.6023 33.6414 41.0348 32.9796V32.9813Z" fill="#1F2020"/>
<path d="M59.6928 32.4003C59.6759 32.3161 59.6473 32.237 59.6035 32.1679C59.1354 31.1576 57.891 31.2148 57.0524 31.7284C56.4074 32.1242 55.8349 32.7169 55.4072 33.3854C54.9525 33.9024 54.5905 34.4968 54.3699 35.167C54.055 36.1268 54.5551 36.9301 55.6059 36.8577C56.7762 36.7769 58.0072 35.6823 58.7801 34.8757C59.3695 34.2611 59.9403 33.281 59.6911 32.3986L59.6928 32.4003ZM55.8113 35.0946C55.8181 35.0592 55.8298 35.0239 55.8382 34.9868C55.8635 35.0104 55.8921 35.0272 55.9208 35.0458C55.9292 35.066 55.9393 35.0862 55.9511 35.1064C55.9191 35.13 55.8871 35.1535 55.8551 35.1721C55.7877 35.2125 55.749 35.2377 55.7305 35.2529C55.7541 35.2293 55.7978 35.1754 55.813 35.0929L55.8113 35.0946Z" fill="#1F2020"/>
<path d="M79.9234 62.1368C79.9032 62.1436 79.8813 62.1503 79.8611 62.1571C79.8998 62.1823 79.9386 62.2076 79.9756 62.2345C79.9571 62.2025 79.9402 62.1688 79.9234 62.1352V62.1368Z" fill="#8AA7B5"/>
<path d="M85.2278 51.1593C85.3574 51.2351 85.3743 51.1324 85.2278 51.1593V51.1593Z" fill="#8AA7B5"/>
<path d="M0.132052 53.3164C-0.475847 56.755 1.06662 60.4209 3.69861 62.6605C6.30028 64.8732 9.54355 65.7371 12.8323 66.249C12.9569 67.7157 13.4385 69.1588 14.2973 70.4993C16.0486 73.2356 18.8372 74.8169 21.8093 75.9282C27.7586 78.151 34.2148 79.5655 40.4723 80.5776C53.2617 82.6488 66.9067 82.3525 78.583 76.1253C83.3789 73.5674 87.6847 68.5072 87.1189 63.1388C92.1016 60.9733 95.2034 54.7663 92.7887 49.5326C91.5207 46.7828 89.1969 45.0197 86.5632 44.2535C86.2112 45.4491 78.4803 70.4858 47.2552 71.2014C15.2672 71.934 9.15623 46.5521 9.15623 46.5521L9.05352 46.5184C9.06362 46.5403 9.07373 46.5622 9.08552 46.5857C4.88075 46.7609 0.992543 48.4616 0.133738 53.3164H0.132052ZM85.2261 51.1593C85.3558 51.2351 85.3726 51.1324 85.2261 51.1593V51.1593ZM79.9217 62.1368C79.9386 62.1705 79.9554 62.2025 79.974 62.2362C79.9369 62.2093 79.8982 62.184 79.8594 62.1587C79.8797 62.152 79.9015 62.1453 79.9217 62.1385V62.1368Z" fill="#6093B1"/>
<path d="M28.4441 61.9314L22.5621 79.2237C22.2505 80.1381 22.8265 81.1131 23.7779 81.2831L27.5246 81.9517C28.1325 82.0594 28.5198 82.6623 28.3666 83.2618L25.1621 95.7464C25.0661 96.1219 25.5814 96.3324 25.775 95.9957L35.6883 78.6731C36.271 77.656 35.7001 76.3644 34.555 76.1101L29.2624 74.9364C28.5619 74.7815 28.0854 74.1298 28.1477 73.4141L29.1564 62.0813C29.1951 61.6502 28.5838 61.5205 28.4457 61.9314H28.4441Z" fill="#FFF9C4"/>
<path d="M31.241 80.1044C30.0673 79.0031 26.9806 79.7828 25.4196 78.6865C24.0826 77.7486 27.9034 65.3245 29.03 61.7748C28.8515 61.6266 28.5399 61.6519 28.4456 61.9314L22.5637 79.2237C22.2521 80.1381 22.828 81.1131 23.7795 81.2832L27.5262 81.9517C28.1341 82.0594 28.5214 82.6623 28.3682 83.2618L25.1637 95.7464C25.0677 96.1219 25.583 96.3325 25.7766 95.9957L26.0932 95.4416C27.6054 91.9509 32.2277 81.0289 31.2426 80.1044H31.241Z" fill="#FFE5B4"/>
<path d="M18.3302 53.899C18.3033 51.5904 20.154 49.696 22.4626 49.6707C24.7713 49.6438 26.6657 51.4944 26.6927 53.8031C26.7196 56.1117 24.8689 58.0062 22.5603 58.0314C20.2516 58.0584 18.3572 56.2077 18.3319 53.899H18.3302Z" fill="#F8C1C1"/>
<path d="M68.8651 53.3164C68.8381 51.0077 70.6888 49.1133 72.9974 49.0864C75.3061 49.0594 77.2005 50.9101 77.2258 53.2188C77.2527 55.5274 75.4021 57.4218 73.0934 57.4471C70.7848 57.4724 68.8903 55.6234 68.8634 53.3147L68.8651 53.3164Z" fill="#F8C1C1"/>
<path d="M76.9884 64.6375C76.2474 64.1879 75.7288 64.3714 74.907 64.2569C74.6881 64.2754 74.4675 64.2923 74.2469 64.3058C73.4184 63.8359 72.9857 63.2028 72.9453 62.4046C72.7785 61.726 72.7752 60.9615 72.6927 60.2677C72.6826 60.1869 72.659 60.1161 72.6253 60.0538C72.6388 60.0084 72.6506 59.9612 72.6657 59.9158C72.8695 59.2422 71.8136 58.9677 71.6099 59.6379C70.8925 62.0005 70.4917 64.3917 70.384 66.8586C70.3688 67.2173 70.7544 67.4682 71.0811 67.3773C72.0309 67.1112 72.9772 66.9462 73.9489 66.8687C73.639 69.0696 73.4639 71.2772 73.4487 73.5051C73.4454 74.0204 74.2385 74.2729 74.4675 73.7695C75.7187 71.0297 76.6482 68.2041 77.2477 65.2504C77.2965 65.0063 77.2056 64.7688 76.9901 64.6375H76.9884ZM75.0131 67.1095C75.0131 67.1264 75.0131 67.1449 75.0131 67.1617C75.0097 67.1617 75.0047 67.1617 75.0013 67.1617C75.0047 67.1364 75.0081 67.1129 75.0114 67.0876C75.0114 67.0944 75.0131 67.1011 75.0148 67.1078L75.0131 67.1095ZM75.9915 65.7169C75.8989 65.5721 75.7793 65.4441 75.6395 65.3313C75.7945 65.3464 75.9443 65.3767 76.0925 65.4256C76.0672 65.5401 76.0437 65.6546 76.0184 65.7691C76.0083 65.7523 76.0016 65.7337 75.9915 65.7169Z" fill="#F9EC6C"/>
</svg>
