<svg width="400" height="605" viewBox="0 0 400 605" fill="none" xmlns="http://www.w3.org/2000/svg">
<mask id="mask0_224_241" style="mask-type:luminance" maskUnits="userSpaceOnUse" x="0" y="0" width="400" height="605">
<path d="M400 0H0V605H400V0Z" fill="white"/>
</mask>
<g mask="url(#mask0_224_241)">
<g filter="url(#filter0_d_224_241)">
<path d="M400 0H0V605H400V0Z" fill="white"/>
<mask id="mask1_224_241" style="mask-type:luminance" maskUnits="userSpaceOnUse" x="-361" y="-8" width="962" height="614">
<path d="M601 -7.5H-361V605.5H601V-7.5Z" fill="white"/>
</mask>
<g mask="url(#mask1_224_241)">
<path d="M601 -7.5H-361V605.5H601V-7.5Z" fill="#F1F9FE"/>
<path d="M70.2354 573.59C52.4845 574.018 35.7283 572.74 18.2124 574.674C9.6892 575.613 -36.9464 580.51 -37.1467 570.364C-45.7804 567.056 -55.3948 568.748 -64.6294 569.238C-73.864 569.729 -84.3211 568.375 -89.9985 561.075C-94.2256 555.64 -94.7091 548.077 -93.2655 541.35C-91.4421 532.869 -86.2619 524.575 -78.1532 521.488C-70.0444 518.4 -59.2213 522.468 -57.1354 530.894C-55.8783 525.176 -52.8531 520.645 -48.1011 517.295C-42.3269 513.221 -33.5413 512.62 -28.6443 517.71C-29.2314 507.523 -21.0052 497.598 -10.8865 496.279C-0.767893 494.96 9.72371 502.453 11.7613 512.454C15.2355 496.3 14.4343 482.411 31.08 473.799C41.9515 468.177 58.0722 471.195 62.2993 482.68C69.0266 466.153 86.0177 454.343 103.844 453.798C121.678 453.252 139.36 463.998 147.082 480.077C149.389 469.924 160.91 462.893 170.994 465.49C181.078 468.08 187.778 479.8 184.897 489.801C187.695 484.241 196.618 484.683 200.707 489.38C204.796 494.076 205.093 500.962 204.257 507.129C210.266 496.01 221.11 487.625 233.384 484.614C245.658 481.603 259.154 484.006 269.625 491.079C264.161 480.933 267.442 467.362 276 459.64C284.557 451.919 297.315 449.813 308.448 452.803C319.582 455.794 329.1 463.377 336.028 472.59C337.527 463.66 349.565 455.276 358.151 460.179C365.341 464.282 370.521 478.467 371.529 485.968C377.518 474.924 392.63 469.524 403.757 476.437C414.587 483.157 417.329 499.933 409.207 509.754C412.874 505.306 420.299 505.347 424.754 508.994C429.209 512.647 430.874 518.925 430.169 524.644C429.465 530.362 426.709 535.625 423.608 540.473C432.566 536.06 443.721 536.44 452.361 541.461C458.502 545.031 463.62 552.09 461.63 558.906C459.317 566.828 449.564 569.377 441.386 570.495C420.589 573.341 399.696 575.413 378.782 577.181C359.449 578.811 340.593 581.587 321.544 583.79C306.383 585.545 291.064 583.701 275.889 582.078C207.614 574.771 138.863 571.932 70.2215 573.596L70.2354 573.59Z" fill="#FCFBF2"/>
<path d="M437.208 520.541C441.221 520.818 445.061 522.965 447.395 526.232C448.97 528.442 449.854 531.06 450.711 533.636C453.902 543.215 457.1 552.794 460.291 562.374C437.684 562.063 414.774 560.612 392.188 561.427C376.53 561.994 359.664 563.458 347.376 550.785C345.332 548.678 335.482 529.699 335.883 529.637C339.868 528.96 344.164 530.777 346.457 534.099C344.586 530.673 342.894 526.985 342.824 523.083C342.748 519.112 345.642 512.343 350.678 512.951C354.428 513.4 359.159 520.783 360.713 523.849C359.76 520.382 358.8 516.915 357.847 513.448C357.274 511.376 356.714 509.139 357.46 507.129C358.558 504.194 362.323 502.861 365.313 503.814C368.304 504.767 370.459 507.488 371.53 510.437C372.6 513.386 372.752 516.57 372.89 519.706C371.108 516.183 373.084 511.294 376.82 510.009C380.557 508.718 385.129 511.349 385.896 515.223C384.998 510.7 379.611 500.278 384.577 496.638C386.345 495.347 388.977 495.706 390.655 497.108C392.333 498.51 393.162 500.734 393.335 502.916C393.507 505.099 393.093 507.281 392.686 509.436C392.554 504.774 396.705 500.423 401.368 500.326C406.03 500.23 410.353 504.408 410.423 509.07C410.423 504.097 409.601 498.952 414.905 496.521C418.676 494.794 423.767 496.32 425.839 499.939C428.291 504.215 426.26 510.327 421.854 512.523C430.902 508.006 447.112 511.059 440.841 524.706C439.211 528.263 436.227 531.011 433.153 533.436C436.496 532.669 438.776 537.573 437.104 540.563C435.267 543.85 432.062 545.087 428.512 545.757C424.078 546.592 419.098 546.551 415.582 548.519C405.836 553.982 398.667 561.358 386.911 562.664C386.055 562.76 385.171 562.829 384.259 562.871" fill="#E3F4FE"/>
<path d="M-71.6191 521.639C-68.7251 522.917 -66.3146 525.107 -63.4897 526.536C-68.8149 522.8 -71.9576 516.17 -71.481 509.684C-71.336 507.744 -70.8663 505.775 -69.7128 504.215C-68.5594 502.654 -66.6254 501.569 -64.6984 501.818C-62.1774 502.15 -60.4368 504.546 -59.5942 506.943C-58.7515 509.339 -58.4753 511.943 -57.3011 514.194C-56.2029 508.317 -50.6083 503.6 -44.6269 503.517C-38.6455 503.434 -32.9196 507.979 -31.6556 513.828C-31.3932 510.182 -32.2911 506.563 -32.7746 502.944C-33.2581 499.325 -33.2719 495.416 -31.4208 492.266C-29.5698 489.11 -25.3151 487.142 -22.0965 488.875C-20.2937 489.842 -19.161 491.728 -18.5048 493.662C-16.7712 498.772 -17.8349 504.353 -18.9124 509.643C-19.5133 506.211 -17.4274 502.495 -14.1811 501.224C-10.9349 499.953 -6.88048 501.259 -4.98798 504.187C-3.09548 507.115 -3.57206 511.349 -6.06546 513.78C-6.38318 506.155 -1.24442 498.627 5.96642 496.141C8.9847 495.105 12.9355 495.195 14.6553 497.881C15.9884 499.96 15.4082 502.709 14.5241 505.023C12.8112 509.47 10.1106 513.538 6.6709 516.84C19.9322 504.097 35.4383 531.467 19.5316 539.223C21.8247 534.568 29.2497 534.403 32.6893 538.291C36.129 542.179 35.8389 548.374 33.1935 552.836C30.5482 557.297 26.0311 560.322 21.4172 562.698C9.6202 568.776 -1.87296 569.75 -14.7268 570.026C-29.4178 570.337 -43.95 572.83 -58.7653 572.581C-63.3101 572.505 -67.9308 572.298 -72.227 570.813C-92.3261 563.865 -87.6847 514.554 -71.6122 521.646L-71.6191 521.639Z" fill="#E3F4FE"/>
<path d="M334.992 562.684C318.36 571.248 298.509 572.554 280.607 567.54C270.018 564.57 260.148 558.085 253.2 549.562C250.168 545.84 245.036 545.757 241.016 542.849C236.962 539.914 233.778 535.722 232.258 530.936C231.374 528.138 231.139 524.761 233.108 522.586C235.235 520.237 239.048 520.362 241.942 521.639C244.836 522.917 247.246 525.107 250.071 526.536C244.746 522.8 241.603 516.17 242.08 509.684C242.225 507.744 242.695 505.775 243.848 504.215C245.001 502.654 246.935 501.569 248.862 501.818C251.383 502.15 253.124 504.546 253.967 506.943C254.809 509.339 255.086 511.943 256.26 514.194C257.358 508.317 262.953 503.6 268.934 503.517C274.915 503.434 280.641 507.979 281.905 513.828C282.168 510.182 281.27 506.563 280.786 502.944C280.303 499.325 280.289 495.416 282.14 492.266C283.991 489.11 288.246 487.142 291.464 488.875C293.267 489.842 294.4 491.728 295.056 493.662C296.79 498.772 295.726 504.353 294.649 509.643C294.048 506.211 296.133 502.495 299.38 501.224C302.626 499.953 306.68 501.259 308.573 504.187C310.465 507.115 309.989 511.349 307.495 513.78C307.178 506.155 312.316 498.627 319.527 496.141C322.546 495.105 326.496 495.195 328.216 497.881C329.549 499.96 328.969 502.709 328.085 505.023C326.372 509.47 323.671 513.538 320.232 516.84C333.493 504.097 348.999 531.467 333.092 539.223C335.386 534.568 342.811 534.403 346.25 538.291C349.69 542.179 349.4 548.374 346.754 552.836C344.109 557.297 339.592 560.322 334.978 562.698L334.992 562.684Z" fill="#E3F4FE"/>
<path d="M151.033 545.743C146.598 546.579 141.619 546.537 138.103 548.505C128.357 553.968 121.188 561.344 109.432 562.65C97.235 564.003 78.724 559.88 69.9108 550.785C67.8663 548.678 58.017 529.699 58.4176 529.637C62.4029 528.96 66.6991 530.777 68.9922 534.099C67.1204 530.673 65.4282 526.985 65.3591 523.083C65.2831 519.112 68.1771 512.343 73.2123 512.951C76.9628 513.4 81.6871 520.783 83.2481 523.849C82.2949 520.382 81.3348 516.915 80.3817 513.448C79.8084 511.376 79.249 509.139 79.9949 507.129C81.0931 504.194 84.8574 502.861 87.8481 503.814C90.8319 504.767 92.9937 507.488 94.0643 510.437C95.1349 513.386 95.2868 516.57 95.425 519.706C93.643 516.183 95.6184 511.294 99.355 510.009C103.092 508.718 107.664 511.349 108.431 515.223C107.533 510.7 102.145 500.278 107.112 496.638C108.88 495.347 111.511 495.706 113.19 497.108C114.868 498.51 115.697 500.734 115.87 502.916C116.042 505.099 115.628 507.281 115.22 509.436C115.089 504.774 119.24 500.423 123.902 500.326C128.564 500.23 132.888 504.408 132.957 509.07C132.957 504.097 132.135 498.952 137.44 496.521C141.211 494.794 146.301 496.32 148.374 499.939C150.825 504.215 148.795 510.327 144.388 512.523C153.436 508.006 169.647 511.059 163.375 524.706C161.745 528.263 158.762 531.011 155.688 533.436C159.031 532.669 161.31 537.573 159.639 540.563C157.801 543.85 154.597 545.087 151.047 545.757L151.033 545.743Z" fill="#E3F4FE"/>
<path d="M107.553 583.335C111.221 585.165 115.517 585.945 118.749 588.369H299.014C301.783 583.549 302.294 577.347 299.4 572.547C294.759 564.839 282.824 563.182 275.986 568.81C279.681 565.026 282.016 559.915 282.389 554.632C277.015 553.582 271.206 555.08 267.007 558.596C272.505 553.582 276.082 546.22 275.571 538.802C275.06 531.385 270.018 524.209 262.876 522.123C255.735 520.037 247.087 523.96 244.766 531.025C245.305 522.171 238.633 513.428 229.944 511.618C221.255 509.802 211.641 515.141 208.588 523.47C207.455 513.373 205.017 501.445 195.624 497.557C187.453 494.173 177.755 499.249 172.969 506.68C168.735 513.248 167.402 521.156 166.49 528.974C165.772 524.14 159.418 520.113 154.762 522.648C149.838 525.328 149.382 532.897 152.973 537.041C147.165 532.6 138.628 531.875 132.259 535.542C125.76 539.292 122.092 547.29 123.232 554.666C121.802 551.31 116.574 549.811 113.321 552.021C109.515 554.611 108.693 560.129 110.199 564.48C111.704 568.831 114.999 572.284 118.197 575.593C115.966 573.369 113.625 571.076 110.648 570.047C107.671 569.025 103.858 569.681 102.228 572.381C99.8661 576.29 103.464 581.29 107.553 583.335Z" fill="#DFDEEF"/>
<path d="M-33.8245 585.648C-31.6627 586.726 -29.2314 587.354 -27.0626 588.369H122.182C123.799 584.702 123.888 580.351 121.809 576.891C118.045 570.641 108.362 569.294 102.815 573.859C105.813 570.786 107.705 566.642 108.009 562.36C103.651 561.51 98.934 562.726 95.5285 565.571C99.99 561.503 102.891 555.536 102.477 549.514C102.062 543.491 97.974 537.676 92.1786 535.984C86.3837 534.292 79.3732 537.476 77.4876 543.208C77.9227 536.026 72.5077 528.933 65.4626 527.462C58.4175 525.991 50.6196 530.321 48.14 537.075C47.2214 528.884 45.2391 519.208 37.6277 516.052C31.0039 513.31 23.13 517.42 19.2483 523.456C15.8156 528.788 14.7312 535.204 13.9922 541.544C13.412 537.621 8.25252 534.354 4.47442 536.412C0.482223 538.588 0.109244 544.728 3.02396 548.091C-1.68657 544.493 -8.61422 543.899 -13.7806 546.876C-19.0506 549.914 -22.0275 556.406 -21.102 562.387C-22.2623 559.666 -26.5032 558.451 -29.1416 560.246C-32.229 562.346 -32.8921 566.821 -31.6696 570.357C-30.4471 573.887 -27.7741 576.691 -25.1771 579.377C-26.9867 577.575 -28.8861 575.71 -31.3035 574.881C-33.7209 574.052 -36.8152 574.584 -38.1345 576.773C-40.0546 579.944 -37.133 583.998 -33.8176 585.655L-33.8245 585.648Z" fill="#DFDEEF"/>
<path d="M278.555 586.58C279.985 587.299 281.553 587.796 283.059 588.369H420.147C421.335 585.199 421.294 581.573 419.533 578.652C416.121 572.989 407.342 571.773 402.321 575.91C405.042 573.127 406.755 569.37 407.031 565.488C403.08 564.722 398.812 565.82 395.724 568.396C399.765 564.715 402.39 559.3 402.017 553.851C401.644 548.395 397.935 543.125 392.685 541.599C387.436 540.066 381.082 542.953 379.376 548.139C379.769 541.633 374.866 535.211 368.484 533.878C362.102 532.545 355.036 536.467 352.791 542.587C351.955 535.162 350.166 526.398 343.266 523.546C337.264 521.059 330.136 524.789 326.621 530.252C323.512 535.079 322.532 540.895 321.862 546.634C321.337 543.077 316.661 540.121 313.242 541.986C309.623 543.954 309.291 549.514 311.93 552.566C307.661 549.307 301.39 548.768 296.707 551.468C291.934 554.224 289.233 560.101 290.076 565.523C289.026 563.057 285.186 561.952 282.789 563.582C279.992 565.488 279.391 569.542 280.496 572.74C281.601 575.938 284.026 578.479 286.374 580.91C284.737 579.273 283.017 577.588 280.828 576.836C278.638 576.083 275.834 576.566 274.639 578.548C272.898 581.421 275.544 585.096 278.548 586.594L278.555 586.58Z" fill="#DFDEEF"/>
<path d="M204.264 585.669C204.734 586.643 205.252 587.534 205.791 588.369H313.863C314.671 587.893 315.431 587.347 316.129 586.705C318.795 584.246 320.197 580.04 318.408 576.884C317.027 574.446 314.077 573.21 311.273 573.23C308.469 573.244 305.782 574.315 303.275 575.565C307.329 572.657 310.596 568.347 311.301 563.409C312.005 558.471 309.692 552.981 305.188 550.826C300.685 548.671 294.365 550.888 292.928 555.667C293.847 551.807 294.766 547.877 294.565 543.913C294.365 539.948 292.887 535.867 289.779 533.394C285.158 529.727 278.258 530.597 273.099 533.456C265.888 537.448 260.763 545.004 259.727 553.181C258.373 549.175 259.893 544.831 260.051 540.604C260.21 536.378 257.745 531.198 253.524 531.474C250.796 531.654 248.807 534.064 247.336 536.371C242.232 544.341 238.985 553.499 237.929 562.905C231.906 557.145 231.754 545.501 223.776 543.111C218.189 541.433 212.325 546.233 210.667 551.827C209.009 557.422 210.37 563.416 211.731 569.086C210.494 565.923 209.182 562.636 206.661 560.357C204.14 558.078 200.044 557.159 197.343 559.217C194.076 561.71 194.594 566.794 196.142 570.599C198.276 575.855 201.785 580.558 204.264 585.669Z" fill="#FAF9EF"/>
<path d="M-86.5245 586.208C-86.1447 586.988 -85.7371 587.699 -85.302 588.369H1.20039C1.84964 587.99 2.45745 587.554 3.01691 587.036C5.15115 585.068 6.2701 581.705 4.84034 579.177C3.73523 577.222 1.37306 576.235 -0.871689 576.249C-3.11644 576.262 -5.26451 577.119 -7.27443 578.12C-4.02817 575.793 -1.41044 572.346 -0.850975 568.389C-0.291515 564.432 -2.14258 560.039 -5.74799 558.32C-9.35341 556.593 -14.4093 558.368 -15.5627 562.194C-14.8306 559.1 -14.0916 555.958 -14.2504 552.781C-14.4093 549.604 -15.5973 546.337 -18.0838 544.362C-21.779 541.426 -27.3045 542.124 -31.4349 544.41C-37.2091 547.608 -41.3049 553.658 -42.1406 560.198C-43.225 556.993 -42.0094 553.513 -41.8781 550.135C-41.7538 546.751 -43.7292 542.607 -47.1067 542.828C-49.2893 542.973 -50.8779 544.9 -52.059 546.744C-56.1479 553.126 -58.7449 560.454 -59.5875 567.982C-64.4085 563.375 -64.526 554.051 -70.9149 552.138C-75.3906 550.798 -80.0804 554.638 -81.4065 559.114C-82.7326 563.589 -81.6482 568.389 -80.55 572.927C-81.5377 570.392 -82.5876 567.768 -84.6044 565.944C-86.6212 564.121 -89.902 563.382 -92.0639 565.033C-94.6747 567.029 -94.2672 571.096 -93.0309 574.142C-91.3179 578.348 -88.5137 582.119 -86.5314 586.201L-86.5245 586.208Z" fill="#FAF9EF"/>
<path d="M77.5151 588.369H156.157C156.24 588.314 156.337 588.266 156.42 588.21C160.302 585.689 163.527 581.877 164.494 577.347C165.461 572.823 163.796 567.615 159.88 565.15C157.104 563.402 153.298 563.465 150.549 565.108C153.194 560.799 152.462 554.293 148.201 551.316C143.483 548.022 136.176 550.266 133.537 555.205C134.587 552.311 135.492 549.355 135.616 546.295C135.768 542.469 134.497 538.381 131.444 536.067C126.637 532.427 119.261 534.693 115.372 539.299C111.483 543.906 110.178 550.101 109.011 556.02C109.75 551.758 110.482 547.345 109.391 543.16C108.306 538.974 104.867 535.072 100.55 534.9C95.7356 534.706 91.916 538.974 89.8371 543.319C86.4181 550.446 85.6653 558.817 87.7581 566.441C85.9623 563.465 84.0559 560.371 81.0791 558.582C78.1022 556.793 73.7232 556.814 71.6166 559.576C69.9382 561.779 70.2145 564.901 71.0433 567.546C72.2727 571.483 74.5935 575.054 77.6325 577.844C74.3586 576.283 70.6565 575.606 67.0442 575.993C66.4847 576.055 72.0724 584.695 72.8046 585.393C74.3103 586.815 75.8643 587.63 77.522 588.376L77.5151 588.369Z" fill="#FAF9EF"/>
<path d="M278.61 558.893C277.643 558.154 276.373 557.96 275.226 558.25C276.027 554.079 275.461 548.871 270.094 549.196C266.461 549.417 263.629 551.924 262.345 555.122C261.391 553.216 259.478 551.952 257.04 552.283C253.469 552.76 252.088 556.137 252.295 559.369C252.35 560.253 253.732 560.26 253.676 559.369C253.566 557.663 253.711 555.06 255.631 554.21C258.622 552.884 261.647 554.611 261.626 558.043C261.626 558.948 262.925 558.913 263.008 558.043C263.298 554.908 265.176 552.18 268.181 551.061C274.183 548.816 274.604 555.205 273.624 559.086C273.458 559.231 273.299 559.383 273.154 559.563C272.608 560.253 273.582 561.234 274.128 560.536C274.183 560.467 274.245 560.412 274.307 560.35C274.522 560.315 274.715 560.184 274.805 559.936C275.661 559.39 276.808 559.314 277.692 559.936C278.949 560.826 279.073 562.622 278.348 563.879C277.906 564.653 279.094 565.35 279.543 564.577C280.593 562.753 280.351 560.233 278.61 558.907V558.893Z" fill="#DFDEEF"/>
<path d="M234.821 560.253C231.768 559.549 230.511 562.297 230.082 564.88C228.749 562.594 226.733 560.074 224.205 561.697C221.179 563.637 222.278 568.099 224.398 570.178C225.033 570.799 226.007 569.825 225.372 569.204C224.536 568.382 223.928 567.463 223.818 566.269C223.666 564.694 224.225 561.372 227.278 563.34C228.528 564.148 229.33 566.358 229.986 567.608C230.31 568.223 231.277 567.926 231.27 567.263C231.264 565.502 231.112 562.698 233.101 561.876C236.154 560.612 237.031 565.661 236.195 567.049C235.732 567.816 236.927 568.506 237.39 567.747C238.723 565.536 237.618 560.909 234.827 560.267L234.821 560.253Z" fill="#DFDEEF"/>
<path d="M125.498 557.429C124.33 555.992 121.775 555.619 120.566 557.09C120.027 554.459 117.596 551.896 115.034 551.503C112.52 551.116 110.344 553.395 109.481 555.84C108.369 554.984 106.787 554.687 105.364 555.35C102.684 556.6 101.213 560.626 103.451 562.919C104.072 563.555 105.046 562.581 104.425 561.945C103.023 560.509 103.927 558.064 105.329 556.987C106.483 556.102 108.293 556.31 109.121 557.318C109.066 557.767 109.066 558.209 109.121 558.616C109.163 558.886 109.315 559.024 109.508 559.079C109.508 559.107 109.508 559.134 109.494 559.169C109.294 560.032 110.627 560.405 110.827 559.535C111.042 558.61 110.89 557.76 110.503 557.042C110.972 554.611 113.59 552.083 115.925 553.278C117.707 554.189 119.634 556.441 119.281 558.527C119.136 559.397 120.469 559.77 120.615 558.893C120.621 558.837 120.621 558.775 120.628 558.72C120.905 558.824 121.215 558.775 121.367 558.416C121.858 557.277 123.391 557.297 124.213 558.078C124.717 558.554 124.98 559.224 125.125 559.88C125.152 559.991 125.429 562.035 125.201 562.021C124.317 561.959 124.317 563.34 125.201 563.403C127.86 563.596 126.361 558.499 125.491 557.435L125.498 557.429Z" fill="#DFDEEF"/>
<path d="M102.822 572.112C101.655 567.809 96.344 567.83 94.762 571.131C92.5587 568.845 87.5512 571.366 89.7476 575.24C90.1827 576.014 91.3776 575.316 90.9425 574.543C89.2779 571.6 93.9263 570.696 94.3407 573.514C94.4581 574.287 95.7152 574.094 95.6944 573.327C95.6116 569.66 100.502 568.845 101.482 572.478C101.717 573.334 103.05 572.968 102.815 572.112H102.822Z" fill="#DFDEEF"/>
<path d="M391.497 588.369H457.714C457.783 588.321 457.859 588.286 457.935 588.238C461.202 586.118 463.916 582.906 464.731 579.094C465.546 575.282 464.144 570.903 460.85 568.824C458.515 567.353 455.303 567.408 452.99 568.79C455.214 565.164 454.599 559.68 451.014 557.18C447.043 554.404 440.889 556.296 438.665 560.454C439.549 558.016 440.309 555.529 440.412 552.953C440.543 549.735 439.473 546.289 436.903 544.341C432.856 541.275 426.647 543.188 423.366 547.062C420.085 550.937 418.994 556.158 418.006 561.137C418.628 557.553 419.242 553.83 418.331 550.308C417.419 546.786 414.525 543.498 410.885 543.353C406.831 543.188 403.619 546.786 401.865 550.439C398.991 556.441 398.356 563.486 400.11 569.909C398.598 567.401 396.995 564.798 394.488 563.292C391.981 561.787 388.292 561.807 386.517 564.135C385.101 565.993 385.336 568.624 386.034 570.848C387.07 574.163 389.025 577.167 391.58 579.515C388.824 578.203 385.702 577.63 382.663 577.955C382.194 578.003 386.897 585.282 387.519 585.869C388.79 587.064 390.095 587.755 391.49 588.383L391.497 588.369Z" fill="#FAF9EF"/>
<path d="M412.812 574.681C411.832 571.055 407.356 571.076 406.03 573.852C404.179 571.925 399.959 574.052 401.81 577.312C402.176 577.961 403.184 577.381 402.811 576.725C401.409 574.253 405.325 573.486 405.677 575.855C405.774 576.511 406.838 576.345 406.817 575.703C406.748 572.616 410.865 571.932 411.693 574.985C411.887 575.703 413.013 575.399 412.812 574.674V574.681Z" fill="#DFDEEF"/>
<path d="M183.896 533.297C183.205 531.543 182.148 530.265 180.145 530.1C176.581 529.81 173.314 532.745 172.693 536.136C171.463 534.706 169.992 533.277 168.328 532.683C166.283 531.951 164.501 532.987 162.892 534.216C159.943 536.454 159.494 541.357 161.953 544.223C162.533 544.9 163.507 543.919 162.926 543.249C162.084 542.262 161.794 540.148 161.801 538.898C161.801 536.827 163.065 535.618 164.695 534.637C168.072 532.614 170.945 536.088 172.914 538.581C173.425 539.23 174.302 538.422 173.977 537.752C173.784 535.003 175.663 532.503 178.315 531.709C180.353 531.094 181.893 531.985 182.666 533.953C183.122 535.114 184.366 537.676 183.599 538.857C183.115 539.603 184.31 540.3 184.794 539.555C185.996 537.697 184.607 535.121 183.896 533.304V533.297Z" fill="#E3F4FE"/>
<path d="M217.843 529.492C216.027 529.216 214.114 529.658 212.774 530.735C212.484 526.702 211.296 521.425 207.234 521.736C203.767 522.005 198.836 527.088 201.357 530.542C201.875 531.253 203.076 530.562 202.551 529.844C200.314 526.785 207.145 520.728 209.645 524.416C211.075 526.536 211.441 529.685 211.475 532.358C211.233 532.869 211.082 533.442 211.033 534.078C210.985 534.817 211.931 534.927 212.283 534.43C212.573 534.375 212.836 534.168 212.85 533.788C212.857 533.456 212.864 533.069 212.857 532.648C213.575 531.46 215.039 530.873 216.497 530.797C217.899 530.728 221.366 531.971 219.418 533.822C218.769 534.437 219.75 535.411 220.392 534.796C222.651 532.655 220.288 529.851 217.85 529.485L217.843 529.492Z" fill="#E3F4FE"/>
<path d="M242.246 528.995C238.716 529.002 236.002 531.964 235.373 535.266C235.207 536.136 236.54 536.509 236.706 535.632C237.176 533.18 238.834 530.963 241.403 530.48C244.235 529.948 246.97 532.137 247.143 534.996C247.198 535.88 248.579 535.887 248.524 534.996C248.331 531.716 245.609 528.988 242.252 528.995H242.246Z" fill="#E3F4FE"/>
<path d="M58.0307 551.033C57.5126 549.762 55.9033 549.058 54.6877 548.657C52.6018 547.967 50.4399 548.499 48.8652 549.845C48.7477 546.675 43.4916 543.719 40.8738 543.678C36.2807 543.602 33.4765 547.463 32.6063 551.558C30.7552 549.762 27.5849 549.735 25.651 552.09C23.1576 555.122 23.6065 559.563 26.1068 562.415C26.6939 563.085 27.6678 562.104 27.0807 561.441C25.499 559.639 24.9257 557.125 25.6924 554.832C26.2242 553.257 27.4468 551.689 29.2357 551.565C30.6654 551.461 31.7774 552.373 32.3231 553.575C32.3231 553.665 32.3093 553.754 32.3023 553.844C32.2954 554.12 32.4267 554.3 32.6063 554.404C32.6132 554.438 32.627 554.466 32.6339 554.5C32.7996 555.37 34.1327 555.004 33.9669 554.134C33.9117 553.83 33.8219 553.554 33.7183 553.285C33.9669 550.17 35.3759 546.793 38.4426 545.549C40.2522 544.817 42.2621 544.949 43.982 545.916C45.1492 546.572 48.4231 549.3 47.1868 550.902C46.8898 551.289 47.0555 551.765 47.3595 551.993C47.4562 552.539 48.2712 552.863 48.6303 552.249C49.6387 550.522 51.5243 549.445 53.5481 549.811C54.7499 550.032 55.9171 550.508 56.4904 551.593C57.1604 552.856 56.6907 554.245 56.2072 555.529C55.8895 556.358 57.2225 556.717 57.5403 555.895C58.079 554.486 58.6316 552.518 58.0307 551.033Z" fill="#E3F4FE"/>
<path d="M342.721 547.318C341.291 546.592 339.626 546.855 338.224 547.566C337.485 544.672 334.646 542.594 331.455 543.291C327.677 544.12 325.322 547.587 324.68 551.22C323.146 549.528 321.136 548.858 318.995 550.778C316.474 553.036 316.578 556.752 318.83 559.141C319.437 559.791 320.418 558.81 319.803 558.168C318.187 556.455 317.966 553.865 319.624 552.083C320.377 551.275 321.551 550.577 322.649 551.137C323.485 551.558 324.024 552.511 324.493 553.285C324.493 553.319 324.493 553.347 324.493 553.381C324.507 554.272 325.888 554.272 325.875 553.381C325.833 550.315 327.111 547.021 329.881 545.411C332.954 543.63 336.58 545.128 336.974 548.478C336.428 549.182 336.325 550.17 337.34 550.633C337.976 550.923 338.535 550.239 338.342 549.756C338.342 549.728 338.362 549.707 338.369 549.68C338.383 549.514 338.39 549.355 338.39 549.189C338.949 548.872 339.979 548.374 340.041 548.36C341.305 548.043 342.348 548.547 343.232 549.424C344.509 550.695 346.167 553.526 343.978 554.783C343.211 555.225 343.902 556.42 344.675 555.978C348.301 553.886 345.559 548.761 342.714 547.311L342.721 547.318Z" fill="#E3F4FE"/>
<path d="M349.379 571.131C348.813 569.943 348.813 568.81 347.611 567.919C346.174 566.849 344.22 566.711 342.493 566.704C338.881 566.697 337.879 569.687 336.815 572.698C336.518 573.541 337.851 573.9 338.148 573.064C339.067 570.461 339.903 567.919 343.26 568.113C345.021 568.216 346.872 568.382 347.721 570.274C347.97 570.834 348.005 571.379 348.253 571.925C348.081 572.111 347.935 572.325 347.811 572.567C347.417 573.361 348.605 574.059 349.006 573.265C349.918 571.435 354.829 572.056 353.765 574.363C353.399 575.164 354.587 575.868 354.96 575.06C356.466 571.78 352.073 569.97 349.386 571.131H349.379Z" fill="#E3F4FE"/>
<path d="M60.0616 568.292C57.9826 565.972 54.6603 567.125 53.8453 569.598C52.2913 567.975 50.1846 566.614 47.9952 567.975C45.2945 569.653 45.6537 573.071 46.7519 575.592C47.1042 576.407 48.2991 575.703 47.9468 574.895C47.1249 573.002 46.6759 569.639 49.3006 568.886C51.1723 568.347 52.7402 570.323 53.7555 571.593C53.9766 572.381 55.2267 572.015 55.0609 571.172C54.5913 568.755 57.506 567.519 59.0808 569.273C59.6748 569.936 60.6486 568.955 60.0546 568.299L60.0616 568.292Z" fill="#E3F4FE"/>
<path d="M118.777 515.12C117.03 512.813 113.791 513.276 112.623 515.499C111.615 513.794 109.66 512.129 107.664 512.709C106.607 513.013 105.792 514.139 105.24 515.03C104.59 516.066 104.349 517.122 104.901 518.248C105.164 518.787 105.972 518.317 105.703 517.779C105.212 516.784 105.751 515.893 106.324 515.099C107.029 514.125 107.699 513.338 109.045 513.683C110.51 514.056 111.636 515.292 112.167 516.653C112.181 516.694 112.209 516.722 112.23 516.75C112.209 516.881 112.188 517.012 112.181 517.143C112.154 517.744 113.086 517.744 113.114 517.143C113.224 514.581 116.394 513.51 117.969 515.589C118.328 516.059 119.136 515.596 118.77 515.12H118.777Z" fill="#D0E1F1"/>
<path d="M139.063 512.35C138.331 511.611 137.557 511.763 136.922 512.253C136.611 509.891 135.734 506.825 133.234 506.714C130.664 506.604 128.654 508.793 128.433 511.224C128.378 511.818 129.31 511.818 129.366 511.224C129.538 509.339 131.445 507.122 133.531 507.737C135.402 508.289 135.934 511.3 136.086 513.172C136.059 513.213 136.031 513.262 136.003 513.303C135.789 513.662 136.114 513.994 136.438 513.987C136.715 514.084 137.074 513.945 137.053 513.566C137.053 513.517 137.046 513.462 137.039 513.414C137.385 512.93 137.875 512.468 138.407 512.992C138.614 513.2 139.436 514.533 139.035 514.774C138.524 515.085 138.994 515.893 139.505 515.575C140.624 514.892 139.761 513.034 139.063 512.329V512.35Z" fill="#D0E1F1"/>
<path d="M90.4106 523.898C89.9478 523.974 89.568 524.236 89.3055 524.588C88.8911 523.691 88.1935 522.834 87.6616 522.24C86.6118 521.066 85.2028 521.011 83.8076 521.619C81.549 522.606 80.3265 526.046 83.1997 527.137C83.7592 527.351 84.001 526.453 83.4484 526.239C82.3019 525.804 82.219 524.409 82.8199 523.525C83.2619 522.869 84.0286 522.454 84.7814 522.254C85.9349 521.943 86.7844 522.579 87.413 523.47C87.8827 524.14 88.9463 525.507 88.6839 526.357C88.5112 526.93 89.4091 527.178 89.5818 526.605C89.5887 526.584 89.5887 526.557 89.5956 526.536C89.789 526.46 89.9409 526.267 89.865 526.004C89.7268 525.514 89.9962 524.92 90.528 524.816C91.046 524.713 91.5502 525.176 91.5779 525.673C91.6193 526.267 92.5517 526.274 92.5103 525.673C92.4412 524.623 91.495 523.711 90.4037 523.891L90.4106 523.898Z" fill="#D0E1F1"/>
<path d="M396.249 515.12C394.502 512.813 391.263 513.276 390.095 515.499C389.087 513.794 387.132 512.129 385.136 512.709C384.079 513.013 383.264 514.139 382.712 515.03C382.063 516.066 381.821 517.122 382.373 518.248C382.636 518.787 383.444 518.317 383.175 517.779C382.684 516.784 383.223 515.893 383.796 515.099C384.501 514.125 385.171 513.338 386.518 513.683C387.982 514.056 389.108 515.292 389.64 516.653C389.653 516.694 389.681 516.722 389.702 516.75C389.681 516.881 389.66 517.012 389.653 517.143C389.626 517.744 390.558 517.744 390.586 517.143C390.696 514.581 393.867 513.51 395.441 515.589C395.801 516.059 396.609 515.596 396.243 515.12H396.249Z" fill="#D0E1F1"/>
<path d="M367.883 523.898C367.42 523.974 367.04 524.236 366.778 524.588C366.363 523.691 365.666 522.834 365.134 522.24C364.084 521.066 362.675 521.011 361.28 521.619C359.021 522.606 357.799 526.046 360.672 527.137C361.231 527.351 361.473 526.453 360.921 526.239C359.774 525.804 359.691 524.409 360.292 523.525C360.734 522.869 361.501 522.454 362.254 522.254C363.407 521.943 364.257 522.579 364.885 523.47C365.355 524.14 366.418 525.507 366.156 526.357C365.983 526.93 366.881 527.178 367.054 526.605C367.061 526.584 367.061 526.557 367.068 526.536C367.261 526.46 367.413 526.267 367.337 526.004C367.199 525.514 367.468 524.92 368 524.816C368.518 524.713 369.022 525.176 369.05 525.673C369.091 526.267 370.024 526.274 369.982 525.673C369.913 524.623 368.967 523.711 367.876 523.891L367.883 523.898Z" fill="#D0E1F1"/>
<path d="M303.013 520.376C299.829 518.428 296.14 520.051 293.82 522.593C293.488 517.565 290.249 512.855 284.779 512.488C279.571 512.136 275.399 516.805 276.587 521.93C276.746 522.606 277.789 522.323 277.63 521.639C276.456 516.584 281.284 512.53 286.132 513.794C290.781 515.002 292.929 519.498 292.749 523.974C292.666 524.098 292.59 524.222 292.514 524.354C292.197 524.906 292.936 525.397 293.336 525.024C293.564 524.982 293.778 524.816 293.799 524.526C293.799 524.457 293.806 524.395 293.813 524.326C295.539 521.798 298.737 519.733 301.832 521.004C304.083 521.93 305.437 524.754 304.567 526.992C304.401 526.391 303.434 526.681 303.545 527.337C303.614 527.772 303.69 528.201 303.759 528.636C303.821 529.029 304.408 529.161 304.664 528.877C306.95 526.253 305.886 522.137 303.013 520.376Z" fill="#D0E1F1"/>
<path d="M314.312 506.577C312.496 505.23 309.94 505.036 308.324 506.791C306.687 508.566 306.715 511.314 307.033 513.538C307.129 514.222 308.172 513.932 308.075 513.248C307.689 510.568 308.172 505.693 312.157 506.694C315.784 507.606 315.811 511.57 316.688 514.422C316.481 513.759 315.438 514.042 315.645 514.712C316.108 516.218 317.724 515.286 317.731 514.029C317.738 511.522 316.35 508.082 314.306 506.577H314.312Z" fill="#D0E1F1"/>
<path d="M0.7377 506.577C-1.07882 505.23 -3.63438 505.036 -5.2506 506.791C-6.88755 508.566 -6.85992 511.314 -6.5422 513.538C-6.44551 514.222 -5.40256 513.932 -5.49925 513.248C-5.88604 510.568 -5.40256 505.693 -1.41727 506.694C2.20887 507.606 2.23651 511.57 3.11369 514.422C2.90648 513.759 1.86353 514.042 2.07074 514.712C2.5335 516.218 4.14973 515.286 4.15663 514.029C4.16354 511.522 2.77524 508.082 0.73079 506.577H0.7377Z" fill="#D0E1F1"/>
<path d="M296.596 573.306C301.01 573.348 305.913 574.639 310.196 574.259C308.289 573.203 307.136 570.882 307.896 568.748C308.649 566.648 311.177 565.371 313.318 566.02C315.452 566.669 316.854 569.135 316.308 571.303C316.522 569.301 316.778 567.242 317.786 565.495C318.795 563.755 320.736 562.394 322.725 562.677C324.714 562.967 326.268 565.405 325.232 567.132C326.496 564.597 330.357 563.872 332.457 565.778C334.591 567.712 334.142 571.338 331.953 573.023C335.475 571.573 340.876 574.114 344.682 574.225C384.784 575.399 424.948 574.342 464.877 570.233C465.015 575.254 458.26 614.689 469 615.249C444.991 613.999 420.969 613.018 396.94 612.314C339.723 610.629 282.464 610.477 225.241 611.865C170.185 613.198 115.096 619.973 60.1165 614.213C40.2591 612.134 22.0662 607.963 2.00845 607.023C-19.6586 606.001 -41.3256 604.986 -62.9927 603.964C-68.3732 603.708 -74.0438 603.37 -78.5609 600.435C-87.1117 594.875 -87.9405 582.892 -87.8645 572.698C-46.7268 573.52 -5.74804 574.929 35.2446 577.043C40.266 577.298 45.4047 577.851 50.3984 577.954C56.2969 578.079 51.2411 574.197 55.8273 572.74C57.63 572.167 59.7711 573.672 59.8402 575.565C60.3444 573.244 60.9039 570.82 62.4648 569.031C64.0258 567.242 66.9198 566.379 68.8123 567.816C70.3042 568.948 70.6565 571.006 70.9051 572.857C71.1399 571.386 72.0102 569.977 73.3363 569.301C74.6694 568.631 76.4514 568.831 77.446 569.943C78.4475 571.048 78.3784 573.016 77.1904 573.907C78.2541 572.816 79.6562 571.973 81.1757 571.925C82.6952 571.877 84.2976 572.788 84.719 574.245C85.1403 575.703 84.0076 577.505 82.488 577.471C94.4163 577.761 106.269 577.94 118.218 577.747C124.758 577.643 131.299 577.512 137.84 577.353C141.245 577.271 144.657 577.181 148.062 577.084C149.72 577.036 156.226 575.841 157.421 576.794C155.149 574.984 155.211 570.979 157.546 569.245C159.88 567.512 163.734 568.61 164.812 571.31C164.287 568.444 165.199 565.295 167.36 563.347C169.522 561.4 172.927 560.854 175.476 562.256C178.025 563.658 179.378 567.035 178.273 569.729C179.959 567.284 181.741 564.742 184.358 563.333C186.976 561.924 190.678 562.049 192.46 564.425C194.367 566.952 193.31 570.53 192.191 573.493C193.234 571.669 196.142 569.874 198.145 571.172C199.726 572.194 199.954 574.46 198.939 575.944C201.743 574.536 205.293 574.805 208.332 574.708C212.532 574.57 216.731 574.439 220.931 574.315C229.329 574.066 237.735 573.845 246.134 573.672C262.952 573.32 279.771 573.147 296.596 573.299V573.306Z" fill="#E3F4FE"/>
<path d="M93.9927 313.532C74.6986 318.245 56.9421 315.258 37.5088 316.227C23.0034 316.948 8.5054 317.742 -6 318.5C0.91221 316.46 7.8244 314.421 14.7366 312.381C9.4719 310.822 6.9458 303.567 10.1163 299.102C13.2868 294.636 21.0045 294.585 24.2409 299C22.8936 290.666 21.5902 281.903 24.4899 273.97C27.3968 266.038 36.0737 259.525 44.1721 262.053C49.5832 263.743 53.2663 268.98 54.6502 274.451C56.0341 279.922 55.5142 285.669 54.9944 291.285C54.5331 285.159 59.622 279.15 65.7654 278.56C71.9088 277.969 78.0595 282.908 78.7844 289.005C79.5093 295.102 74.6766 301.323 68.5625 302.168C71.5134 300.741 74.867 299.808 78.0741 300.493C81.2812 301.178 84.2175 303.822 84.3932 307.078C84.5689 310.334 81.1348 313.51 78.0302 312.454C83.3534 312.811 88.6767 313.168 94 313.532H93.9927Z" fill="white"/>
<path d="M394.354 152.379C368.623 158.708 344.942 154.697 319.025 155.999C299.68 156.967 280.345 158.033 261 159.051C270.218 156.312 279.437 153.572 288.655 150.833C281.634 148.74 278.265 138.996 282.493 132.999C286.722 127.002 297.014 126.933 301.331 132.862C299.534 121.67 297.795 109.901 301.663 99.248C305.539 88.594 317.111 79.848 327.912 83.2427C335.128 85.5123 340.04 92.5463 341.886 99.893C343.731 107.24 343.038 114.959 342.345 122.502C341.729 114.274 348.516 106.203 356.709 105.411C364.902 104.618 373.105 111.251 374.072 119.44C375.039 127.628 368.594 135.983 360.44 137.117C364.375 135.2 368.848 133.948 373.125 134.867C377.402 135.787 381.318 139.338 381.552 143.711C381.786 148.084 377.207 152.349 373.066 150.931C380.165 151.41 387.265 151.89 394.364 152.379H394.354Z" fill="white"/>
<path d="M408.939 276.427C384.29 275.321 359.674 274.399 335 273.88C340.08 273.159 345.169 272.438 350.25 271.717C338.273 274.324 347.797 258.476 350.919 262.859C347.178 257.613 347.789 249.836 351.999 244.967C356.209 240.089 363.491 238.313 369.609 240.299C375.728 242.285 380.49 247.732 382.072 253.984C381.277 249.878 382.499 244.984 386.19 243.014C389.881 241.053 395.572 244.213 394.685 248.302C395.372 242.738 402.293 239.335 407.508 241.372C412.731 243.4 415.618 249.543 414.923 255.107C414.229 260.672 410.538 265.524 405.968 268.768C408.336 267.552 410.839 266.312 413.501 266.404C416.162 266.496 418.958 268.441 419 271.106C419.033 273.251 417.275 275.095 415.275 275.857C413.275 276.62 411.065 276.536 408.922 276.436L408.939 276.427Z" fill="white"/>
</g>
</g>
</g>
<defs>
<filter id="filter0_d_224_241" x="-365" y="-11.5" width="970" height="621" filterUnits="userSpaceOnUse" color-interpolation-filters="sRGB">
<feFlood flood-opacity="0" result="BackgroundImageFix"/>
<feColorMatrix in="SourceAlpha" type="matrix" values="0 0 0 0 0 0 0 0 0 0 0 0 0 0 0 0 0 0 127 0" result="hardAlpha"/>
<feOffset/>
<feGaussianBlur stdDeviation="2"/>
<feComposite in2="hardAlpha" operator="out"/>
<feColorMatrix type="matrix" values="0 0 0 0 0.698039 0 0 0 0 0.921569 0 0 0 0 0.94902 0 0 0 1 0"/>
<feBlend mode="normal" in2="BackgroundImageFix" result="effect1_dropShadow_224_241"/>
<feBlend mode="normal" in="SourceGraphic" in2="effect1_dropShadow_224_241" result="shape"/>
</filter>
</defs>
</svg>
